<?xml version="1.0" encoding="UTF-8"?>
<svg id="Layer_1" data-name="Layer 1" xmlns="http://www.w3.org/2000/svg" viewBox="0 0 1845.29 304.06">
  <defs>
    <style>
      .cls-1 {
        fill: #fff;
        stroke-width: 0px;
      }
    </style>
  </defs>
  <path class="cls-1" d="M1364.29,199.27c4.74,5.18,8.82,9.65,12.9,14.11-2.6-5.83-3.59-13.15-12.9-14.11Z"/>
  <path class="cls-1" d="M152.51,240.12h-35.85v-81.7l25.61-13.82v-7.18l-25.61,13.83-52.24,24.58v64.28H28.56V60.85h35.86v73.24l-25.61,13.83v7.17l25.61-13.83,52.24-24.58v-55.83h35.85v179.27Z"/>
  <path class="cls-1" d="M306.92,240.12h-50.44c-26.89,0-39.96-13.06-39.96-39.96v-99.36c0-26.89,13.06-39.96,39.96-39.96h50.44c26.89,0,39.96,13.06,39.96,39.96v99.36c0,26.89-13.06,39.96-39.96,39.96ZM311.02,108.48c0-9.72-4.61-14.34-14.33-14.34h-29.97c-9.73,0-14.33,4.62-14.33,14.34v84c0,9.73,4.6,14.34,14.33,14.34h29.97c9.72,0,14.33-4.61,14.33-14.34v-84Z"/>
  <path class="cls-1" d="M574.28,240.12h-35.86V108.74h-7.93v43.02l-18.19,88.36h-40.47l-18.18-88.36v-43.02h-6.92v131.38h-35.85V60.85h38.92c11.79,0,18.7,5.64,21.26,16.9l17.16,81.44v45.07h7.18v-45.07l17.67-80.92c2.82-11.78,9.47-17.42,21.52-17.42h39.69v179.27Z"/>
  <path class="cls-1" d="M736.12,127.18v33.29l-59.4,10.24v63h7.17v-26.89h75.55v33.3h-118.58V60.85h118.58v33.29h-108.33v7.18h25.61v36.11l59.4-10.24Z"/>
  <path class="cls-1" d="M1230.04,200.17c0,21.52-8.45,34.32-25.87,38.42l8.71,21.77h-30.99l-8.19-20.23h-34.05c-26.89,0-39.96-13.06-39.96-39.96v-99.36c0-26.89,13.06-39.96,39.96-39.96h50.44c26.89,0,39.96,13.06,39.96,39.96v99.36ZM1194.18,108.48c0-9.72-4.6-14.34-14.33-14.34h-29.97c-9.73,0-14.33,4.62-14.33,14.34v84c0,9.73,4.6,14.34,14.33,14.34h10.25l-15.62-38.93h30.97l14.6,35.86c2.83-2.31,4.1-6.15,4.1-11.27v-84Z"/>
  <path class="cls-1" d="M1329.9,192.48c0,9.73,4.62,14.34,14.35,14.34h34.82c9.73,0,14.35-4.86,14.35-14.34V60.85h35.86v139.31c0,26.89-13.06,39.96-39.96,39.96h-55.33c-26.89,0-39.94-13.06-39.94-39.96V60.85h35.84v131.63Z"/>
  <path class="cls-1" d="M1583.94,198.63l-52.25-24.58v66.08h-35.84V100.81c0-26.89,13.04-39.96,39.94-39.96h44.05c26.89,0,39.96,13.06,39.96,39.96v139.31h-35.86v-34.32l25.6,13.83v-7.18l-25.6-13.83ZM1531.7,139.47l52.25,24.58v-55.58c0-9.47-4.87-14.34-14.33-14.34h-23.57c-9.48,0-14.35,4.62-14.35,14.34v23.83l-25.6-13.83v7.17l25.6,13.83Z"/>
  <path class="cls-1" d="M1686.38,60.85h90.39c26.89,0,39.96,13.06,39.96,39.96v99.36c0,26.89-13.06,39.96-39.96,39.96h-90.39V60.85ZM1696.62,94.14v7.18h25.6v98.34h-25.6v7.17h69.91c9.48,0,14.35-4.86,14.35-14.34v-84c0-9.47-4.87-14.34-14.35-14.34h-69.91Z"/>
  <path class="cls-1" d="M1028.37,179.77c-15.96-11.44-41.16-29.69-62.26-45.01l-.04.06-61.86-44.08,6.29-3.36,16.71,11.07h3.82c4.4,0,8.94.03,13.54.06,10.62.07,21.62.15,31.75-.16,7.35-.23,13,.45,16.63,4.47,3.51,3.9,3.94,9.68,3.52,17.17-.06,1.1-.04,1.31,1.03,2.06,9.62,6.75,27.85,19.7,37.92,26.85l-.23-54.89-66.81-45.42c-10.73-7.93-17.09-5.33-27.98,1.63l-60.53,42.09c-.03,5.77,0,10.57,0,21.15,0,5.08,2.35,9.79,6.28,12.6,32.17,23.03,96.31,69.97,100.48,73.08l12,8.94h-.08l17.1,12.19-6.3,3.36-23.47-15.55h-5.44c-9.93.01-36.3.03-48.41-.05-8.21-.05-12.91-4.98-13.22-13.87l-.02-.53c-.08-2.15-.15-4.37.04-6.69.04-.5-.17-.98-.55-1.25-9.53-6.71-28.1-20.02-38.25-27.31-.1,13.41-.23,38.43.05,52.3.19,9.27,2.91,25.26,19.02,28.17,7.67,1.38,109.03,1.78,115.38.45,17.01-3.55,20.44-13.27,20.82-29.96.05-2.32.04-4.65.02-6.97-.02-2.77-.03-5.63.06-8.49h0c.21-6.21-1.9-10.43-7.03-14.11Z"/>
</svg>