<?xml version="1.0" encoding="UTF-8"?>
<svg id="Layer_1" data-name="Layer 1" xmlns="http://www.w3.org/2000/svg" viewBox="0 0 1165.17 675">
  <defs>
    <style>
      .cls-1 {
        fill: #aaa;
      }

      .cls-1, .cls-2 {
        stroke-width: 0px;
      }

      .cls-2 {
        fill: #f37021;
      }
    </style>
  </defs>
  <g>
    <path class="cls-1" d="M192.61,297.99h-41.58v-94.75l29.71-16.03v-8.32l-29.71,16.04-60.58,28.51v74.55h-41.59V90.08h41.59v84.95l-29.71,16.04v8.31l29.71-16.04,60.58-28.51v-64.74h41.58v207.91Z"/>
    <path class="cls-1" d="M371.69,297.99h-58.5c-31.19,0-46.34-15.15-46.34-46.34v-115.23c0-31.19,15.15-46.34,46.34-46.34h58.5c31.19,0,46.34,15.15,46.34,46.34v115.23c0,31.19-15.15,46.34-46.34,46.34ZM376.44,145.32c0-11.28-5.34-16.63-16.62-16.63h-34.76c-11.29,0-16.62,5.35-16.62,16.63v97.42c0,11.29,5.33,16.63,16.62,16.63h34.76c11.28,0,16.62-5.34,16.62-16.63v-97.42Z"/>
    <path class="cls-1" d="M681.76,297.99h-41.59v-152.37h-9.19v49.9l-21.09,102.47h-46.93l-21.08-102.47v-49.9h-8.02v152.37h-41.58V90.08h45.13c13.68,0,21.69,6.54,24.65,19.6l19.9,94.45v52.27h8.32v-52.27l20.49-93.85c3.27-13.67,10.99-20.2,24.95-20.2h46.03v207.91Z"/>
    <path class="cls-1" d="M869.46,167v38.61l-68.89,11.88v73.07h8.31v-31.19h87.62v38.62h-137.52V90.08h137.52v38.61h-125.64v8.32h29.71v41.88l68.89-11.88Z"/>
  </g>
  <g>
    <path class="cls-2" d="M450.55,574.82c0,24.68-9.69,39.37-29.68,44.07l10,24.97h-35.55l-9.4-23.2h-39.06c-30.85,0-45.83-14.98-45.83-45.83v-113.97c0-30.85,14.98-45.83,45.83-45.83h57.86c30.85,0,45.83,14.98,45.83,45.83v113.97ZM409.42,469.65c0-11.15-5.27-16.45-16.44-16.45h-34.38c-11.17,0-16.44,5.3-16.44,16.45v96.35c0,11.17,5.27,16.45,16.44,16.45h11.76l-17.92-44.65h35.53l16.75,41.13c3.24-2.65,4.7-7.05,4.7-12.93v-96.35Z"/>
    <path class="cls-2" d="M565.09,566c0,11.17,5.3,16.45,16.46,16.45h39.94c11.17,0,16.46-5.57,16.46-16.45v-150.98h41.13v159.8c0,30.85-14.98,45.83-45.83,45.83h-63.46c-30.85,0-45.81-14.98-45.81-45.83v-159.8h41.11v150.98Z"/>
    <path class="cls-2" d="M856.49,573.05l-59.93-28.2v75.8h-41.11v-159.8c0-30.85,14.96-45.83,45.81-45.83h50.53c30.85,0,45.83,14.98,45.83,45.83v159.8h-41.13v-39.37l29.37,15.87v-8.23l-29.37-15.87ZM796.56,505.2l59.93,28.2v-63.75c0-10.87-5.58-16.45-16.44-16.45h-27.03c-10.88,0-16.46,5.3-16.46,16.45v27.33l-29.37-15.87v8.22l29.37,15.87Z"/>
    <path class="cls-2" d="M973.99,415.02h103.69c30.85,0,45.83,14.98,45.83,45.83v113.97c0,30.85-14.98,45.83-45.83,45.83h-103.69v-205.63ZM985.73,453.2v8.23h29.37v112.8h-29.37v8.22h80.19c10.88,0,16.46-5.57,16.46-16.45v-96.35c0-10.87-5.58-16.45-16.46-16.45h-80.19Z"/>
    <path class="cls-2" d="M219.22,551.43c-18.3-13.12-47.21-34.06-71.41-51.63l-.04.07-70.96-50.56,7.22-3.86,19.17,12.7h4.38c5.04,0,10.25.04,15.53.07,12.19.09,24.79.17,36.42-.19,8.43-.26,14.91.51,19.07,5.13,4.03,4.47,4.52,11.11,4.03,19.69-.07,1.27-.05,1.5,1.18,2.36,11.04,7.75,31.95,22.59,43.5,30.8l-.26-62.96-76.63-52.09c-12.31-9.1-19.6-6.12-32.09,1.87l-69.43,48.28c-.03,6.61,0,12.13,0,24.26,0,5.82,2.69,11.23,7.2,14.45,36.9,26.42,110.47,80.26,115.26,83.82l13.77,10.25h-.09l19.62,13.98-7.22,3.86-26.92-17.84h-6.24c-11.39.01-41.64.04-55.53-.06-9.42-.06-14.81-5.71-15.17-15.91l-.02-.6c-.09-2.46-.18-5.01.05-7.67.05-.57-.19-1.12-.63-1.43-10.93-7.69-32.23-22.97-43.87-31.32-.11,15.38-.26,44.08.06,59.99.21,10.63,3.33,28.98,21.82,32.31,8.8,1.59,125.06,2.04,132.34.52,19.51-4.08,23.45-15.22,23.88-34.37.06-2.66.04-5.33.03-8-.02-3.17-.04-6.45.07-9.73h0c.24-7.13-2.18-11.97-8.07-16.19Z"/>
  </g>
</svg>