<?xml version="1.0" encoding="UTF-8"?>
<svg id="Layer_1" data-name="Layer 1" xmlns="http://www.w3.org/2000/svg" viewBox="0 0 3130.37 365">
  <defs>
    <style>
      .cls-1 {
        fill: #121275;
      }

      .cls-1, .cls-2 {
        stroke-width: 0px;
      }

      .cls-2 {
        fill: #f37021;
      }
    </style>
  </defs>
  <g>
    <path class="cls-1" d="M2047.76,178.62c-5.56-3.71-12.04-6.79-18.53-8.95-5.87-1.85-10.8-3.09-13.9-3.71-11.11-2.78-20.07-5.25-26.86-6.79-5.25-1.24-10.5-3.09-15.43-5.25-2.16-.92-4.33-2.16-5.87-4.33-.94-1.86-1.54-4.01-1.24-6.17,0-2.48.62-4.94,1.86-6.79,1.23-1.86,3.09-3.4,4.93-4.64,2.16-1.54,4.63-2.47,7.11-3.09,2.77-.62,5.55-.92,8.64-.92,4.02,0,8.35.3,12.36,1.24,3.4.61,6.49,1.85,9.26,3.71,2.48,1.54,4.64,3.71,5.87,6.48,1.86,3.4,2.78,7.41,2.78,11.12l.3,4.33h46.63v-4.33c.3-9.88-1.85-19.45-6.49-28.41-4.01-7.72-9.88-14.2-16.99-19.15-7.4-4.93-15.43-8.64-24.08-10.8-17.29-4.33-35.51-4.33-52.8,0-8.64,2.16-16.37,5.87-23.16,10.5-6.79,4.94-12.34,11.12-16.67,18.21-4.33,8.03-6.49,16.99-6.49,25.94-.3,8.03,1.54,15.75,5.25,22.85,3.09,6.17,7.72,11.42,13.28,15.75,5.55,4.33,11.42,7.41,17.91,9.88,6.49,2.48,12.96,4.64,19.77,6.18,6.48,1.85,12.96,3.39,19.14,4.93,5.56,1.24,10.81,2.78,16.06,4.94,4.01,1.54,7.41,3.71,10.5,6.49,2.16,2.16,3.39,5.25,3.09,8.33.3,2.78-.62,5.87-2.47,8.03-1.86,2.47-4.33,4.31-7.11,5.55-3.09,1.54-6.49,2.47-9.88,3.09-8.03,1.24-16.37.92-24.4-.92-4.01-.92-7.72-2.78-11.12-4.94-3.09-2.16-5.55-5.25-7.1-8.64-1.86-4.02-2.78-8.65-2.78-12.98v-4.63h-46.01v4.33c-.3,10.5,1.86,20.99,6.49,30.57,4.33,8.33,10.5,15.44,18.21,20.99,7.73,5.56,16.68,9.57,25.94,12.04,9.57,2.48,19.45,3.71,29.65,3.71,11.12.32,22.54-1.23,33.04-4.31,8.95-2.48,17.3-6.8,24.71-12.66,6.48-5.25,12.04-12.05,15.43-19.77,3.4-7.72,5.25-16.06,5.25-24.4.32-9.57-2.16-18.83-7.1-26.86-4.33-6.49-10.49-11.11-16.97-15.74"/>
    <polygon class="cls-1" points="2128.35 203.01 2213.89 203.01 2213.89 163.49 2128.35 163.49 2128.35 134.77 2221.6 134.77 2221.6 93.08 2080.18 93.08 2080.18 278.97 2223.46 278.97 2223.46 237.29 2128.35 237.29 2128.35 203.01"/>
    <path class="cls-1" d="M2392.98,264.47c-.94-3.4-1.54-7.11-1.86-10.51-.3-3.71-.62-7.72-.92-11.42-.3-3.71-.3-7.1-.62-10.19-.3-4.63-.92-9.26-1.85-13.89-.94-4.63-2.48-9.27-4.94-13.58-2.16-4.33-4.94-8.03-8.65-11.12-1.54-1.24-2.77-2.16-4.31-3.1,6.17-3.71,11.42-8.64,15.13-15.13,4.94-8.95,7.41-19.15,7.11-29.33,0-7.11-1.24-13.9-4.02-20.69-2.47-6.49-6.49-12.36-11.42-16.99-5.25-4.94-11.12-8.95-17.91-11.42-7.41-2.78-15.14-4.33-23.16-4.33h-100.05v185.89h48.17v-68.86h34.27c8.33,0,14.51,1.86,17.91,5.25,3.4,3.4,5.87,9.57,7.11,17.91.92,7.11,1.85,14.52,2.15,21.93.32,7.41,1.86,14.51,4.33,21.3l1.24,3.09h50.94l-5.25-7.1c-1.54-2.78-2.77-5.25-3.39-7.72M2283.67,132.3h37.98c7.72,0,13.58,1.54,16.99,4.63,3.39,3.09,5.25,8.03,5.25,15.14s-1.86,12.96-5.25,16.05c-3.4,3.09-9.27,4.63-16.99,4.63h-37.98v-40.45Z"/>
    <polygon class="cls-1" points="2515.26 161.02 2452.88 161.02 2452.88 93.09 2404.72 93.09 2404.72 278.97 2452.88 278.97 2452.88 202.7 2515.26 202.7 2515.26 278.97 2563.43 278.97 2563.43 93.09 2515.26 93.09 2515.26 161.02"/>
    <path class="cls-1" d="M2638.15,93.08l-70.41,185.89h49.1l13.9-39.52h59.59l13.28,39.52h50.32l-69.47-185.89h-46.31ZM2677.06,201.47h-33.04l16.67-47.25,16.37,47.25Z"/>
    <polygon class="cls-1" points="2871.28 201.16 2803.97 93.09 2758.27 93.09 2758.27 278.97 2803.66 278.97 2803.66 171.21 2870.66 278.98 2916.68 278.98 2916.68 93.09 2870.98 93.09 2871.28 201.16"/>
    <polygon class="cls-1" points="3076.93 93.09 2922.85 93.09 2922.85 134.77 2975.96 134.77 2975.96 278.98 3024.13 278.98 3024.13 134.77 3076.93 134.77 3076.93 93.09"/>
    <path class="cls-1" d="M3082.8,233.12c-14.52,0-26.24,11.74-26.24,26.24s11.72,26.26,26.24,26.26,26.24-11.74,26.24-26.26-11.74-26.24-26.24-26.24"/>
  </g>
  <rect class="cls-1" x="1774.14" y="33.67" width="3.85" height="307.19"/>
  <g>
    <path class="cls-1" d="M134.88,266.09h-32.08v-73.1l22.92-12.37v-6.42l-22.92,12.38-46.74,22v57.52H23.98V105.68h32.08v65.54l-22.92,12.38v6.41l22.92-12.38,46.74-22v-49.95h32.08v160.4Z"/>
    <path class="cls-1" d="M273.05,266.09h-45.13c-24.06,0-35.75-11.69-35.75-35.75v-88.9c0-24.06,11.69-35.75,35.75-35.75h45.13c24.06,0,35.75,11.69,35.75,35.75v88.9c0,24.06-11.69,35.75-35.75,35.75ZM276.72,148.3c0-8.7-4.12-12.83-12.82-12.83h-26.82c-8.71,0-12.82,4.13-12.82,12.83v75.16c0,8.71,4.11,12.83,12.82,12.83h26.82c8.7,0,12.82-4.12,12.82-12.83v-75.16Z"/>
    <path class="cls-1" d="M512.27,266.09h-32.08v-117.55h-7.09v38.5l-16.27,79.06h-36.21l-16.27-79.06v-38.5h-6.19v117.55h-32.08V105.68h34.82c10.55,0,16.73,5.04,19.02,15.12l15.35,72.87v40.33h6.42v-40.33l15.81-72.41c2.52-10.54,8.48-15.59,19.25-15.59h35.51v160.4Z"/>
    <path class="cls-1" d="M657.08,165.03v29.79l-53.15,9.17v56.37h6.41v-24.06h67.6v29.8h-106.1V105.68h106.1v29.79h-96.93v6.42h22.92v32.31l53.15-9.17Z"/>
    <path class="cls-2" d="M1099.03,230.34c0,19.25-7.56,30.71-23.15,34.37l7.8,19.48h-27.73l-7.33-18.1h-30.47c-24.06,0-35.75-11.69-35.75-35.75v-88.9c0-24.06,11.69-35.75,35.75-35.75h45.13c24.06,0,35.75,11.69,35.75,35.75v88.9ZM1066.95,148.3c0-8.7-4.11-12.83-12.82-12.83h-26.82c-8.71,0-12.82,4.13-12.82,12.83v75.16c0,8.71,4.11,12.83,12.82,12.83h9.17l-13.98-34.83h27.71l13.06,32.08c2.53-2.07,3.67-5.5,3.67-10.09v-75.16Z"/>
    <path class="cls-2" d="M1188.38,223.46c0,8.71,4.13,12.83,12.84,12.83h31.15c8.71,0,12.84-4.35,12.84-12.83v-117.78h32.08v124.65c0,24.06-11.69,35.75-35.75,35.75h-49.5c-24.06,0-35.73-11.69-35.73-35.75v-124.65h32.07v117.78Z"/>
    <path class="cls-2" d="M1415.69,228.96l-46.75-22v59.13h-32.07v-124.65c0-24.06,11.67-35.75,35.73-35.75h39.42c24.06,0,35.75,11.69,35.75,35.75v124.65h-32.08v-30.71l22.91,12.38v-6.42l-22.91-12.38ZM1368.94,176.03l46.75,22v-49.73c0-8.48-4.35-12.83-12.82-12.83h-21.09c-8.49,0-12.84,4.13-12.84,12.83v21.32l-22.91-12.38v6.41l22.91,12.38Z"/>
    <path class="cls-2" d="M1507.35,105.68h80.88c24.06,0,35.75,11.69,35.75,35.75v88.9c0,24.06-11.69,35.75-35.75,35.75h-80.88V105.68ZM1516.51,135.47v6.42h22.91v87.99h-22.91v6.41h62.55c8.49,0,12.84-4.35,12.84-12.83v-75.16c0-8.48-4.35-12.83-12.84-12.83h-62.55Z"/>
    <path class="cls-2" d="M918.58,212.09c-14.28-10.24-36.83-26.57-55.71-40.27l-.03.05-55.35-39.44,5.63-3.01,14.95,9.91h3.42c3.93,0,8,.03,12.11.06,9.51.07,19.34.13,28.41-.14,6.58-.2,11.63.4,14.88,4,3.14,3.49,3.53,8.66,3.15,15.36-.06.99-.04,1.17.92,1.84,8.61,6.04,24.92,17.62,33.93,24.02l-.21-49.12-59.78-40.64c-9.6-7.1-15.29-4.77-25.03,1.46l-54.16,37.66c-.02,5.16,0,9.46,0,18.92,0,4.54,2.1,8.76,5.62,11.27,28.78,20.61,86.17,62.6,89.91,65.39l10.74,8h-.07l15.3,10.9-5.63,3.01-21-13.91h-4.87c-8.88,0-32.48.03-43.31-.05-7.35-.05-11.55-4.46-11.83-12.41l-.02-.47c-.07-1.92-.14-3.91.04-5.98.04-.45-.15-.87-.49-1.12-8.52-6-25.14-17.91-34.22-24.43-.09,12-.2,34.38.05,46.8.17,8.3,2.6,22.6,17.02,25.2,6.86,1.24,97.56,1.6,103.24.41,15.22-3.18,18.29-11.87,18.63-26.81.05-2.08.03-4.16.02-6.24-.02-2.47-.03-5.03.05-7.59h0c.19-5.56-1.7-9.34-6.29-12.63Z"/>
  </g>
</svg>