<?xml version="1.0" encoding="UTF-8"?>
<svg id="Layer_1" data-name="Layer 1" xmlns="http://www.w3.org/2000/svg" viewBox="0 0 509.67 556.02">
  <defs>
    <style>
      .cls-1 {
        fill: #f37021;
        stroke-width: 0px;
      }
    </style>
  </defs>
  <path class="cls-1" d="M421.22,367.05c-37.53-26.91-96.81-69.84-146.44-105.86l-.09.14-145.5-103.68,14.8-7.91,39.3,26.04h8.98c10.34,0,21.02.07,31.85.15,24.99.18,50.84.35,74.67-.38,17.29-.54,30.58,1.05,39.1,10.52,8.26,9.17,9.28,22.77,8.27,40.38-.15,2.6-.1,3.08,2.41,4.85,22.63,15.89,65.51,46.33,89.2,63.15l-.54-129.11-157.14-106.82c-25.24-18.65-40.2-12.54-65.8,3.83l-142.38,99c-.06,13.56,0,24.87,0,49.74,0,11.94,5.52,23.02,14.76,29.63,75.66,54.17,226.52,164.57,236.35,171.88l28.23,21.02h-.18l40.23,28.66-14.81,7.91-55.19-36.57h-12.81c-23.36.02-85.38.07-113.86-.12-19.32-.12-30.37-11.71-31.1-32.63l-.04-1.24c-.18-5.05-.36-10.28.1-15.73.1-1.17-.39-2.3-1.3-2.93-22.4-15.77-66.09-47.09-89.96-64.23-.23,31.54-.53,90.38.13,123.02.44,21.81,6.84,59.42,44.75,66.25,18.04,3.25,256.45,4.19,271.38,1.07,40.01-8.36,48.08-31.22,48.98-70.48.13-5.46.09-10.93.05-16.4-.04-6.51-.08-13.23.14-19.96h0c.49-14.61-4.46-24.54-16.54-33.2Z"/>
</svg>