<?xml version="1.0" encoding="UTF-8"?>
<svg id="Layer_1" data-name="Layer 1" xmlns="http://www.w3.org/2000/svg" viewBox="0 0 1640 1106.13">
  <defs>
    <style>
      .cls-1 {
        fill: #121275;
        stroke-width: 0px;
      }
    </style>
  </defs>
  <g id="Layer_2" data-name="Layer 2">
    <g id="Layer_1-2" data-name="Layer 1-2">
      <path class="cls-1" d="M237.8,934.16c-6.99-4.66-15.93-7.38-24.09-10.1-7.38-2.33-13.6-3.89-17.48-4.66-13.99-3.5-25.25-6.61-33.8-8.55-6.61-1.55-13.21-3.89-19.43-6.61-2.72-1.17-5.44-2.72-7.38-5.44-1.17-2.33-1.94-5.05-1.55-7.77,0-3.11.78-6.22,2.33-8.55,1.55-2.33,3.89-4.27,6.22-5.83,2.72-1.94,5.83-3.11,8.94-3.89,3.5-.78,6.99-1.17,10.88-1.17,5.05,0,10.49.39,15.54,1.55,4.27.78,8.16,2.33,11.66,4.66,3.11,1.94,5.83,4.66,7.38,8.16,2.33,4.27,3.5,9.32,3.5,13.99l.39,5.44h58.67v-5.44c.39-12.43-2.33-24.48-8.16-35.74-5.05-9.71-12.43-17.87-21.37-24.09-9.32-6.22-19.43-10.88-30.31-13.6-21.76-5.44-44.68-5.44-66.44,0-10.88,2.72-20.59,7.38-29.14,13.21-8.55,6.22-15.54,13.99-20.98,22.92-5.44,10.1-8.16,21.37-8.16,32.64-.39,10.1,1.94,19.82,6.61,28.75,3.89,7.77,9.71,14.38,16.71,19.82,6.99,5.44,14.38,9.32,22.53,12.43,8.16,3.11,16.32,5.83,24.87,7.77,8.16,2.33,16.32,4.27,24.09,6.22,6.99,1.55,13.6,3.5,20.2,6.22,5.05,1.94,9.32,4.66,13.21,8.16,2.72,2.72,4.27,6.61,3.89,10.49.39,3.5-.78,7.38-3.11,10.1-2.33,3.11-5.44,5.44-8.94,6.99-3.89,1.94-8.16,3.11-12.43,3.89-10.1,1.55-20.59,1.17-30.69-1.17-5.05-1.17-9.71-3.5-13.99-6.22-3.89-2.72-6.99-6.61-8.94-10.88h0c-2.33-5.05-3.5-10.88-3.5-16.32v-5.83h-57.89v5.44c-.39,13.21,2.33,26.42,8.16,38.46,5.44,10.49,13.21,19.43,22.92,26.42,9.71,6.99,20.98,12.04,32.64,15.15,12.04,3.11,24.48,4.66,37.3,4.66,13.99.39,28.36-1.55,41.57-5.44,11.27-3.11,21.76-8.55,31.08-15.93,8.16-6.61,15.15-15.15,19.43-24.87,4.27-9.71,6.61-20.2,6.61-30.69.39-12.04-2.72-23.7-8.94-33.8-5.44-8.16-12.43-15.15-20.59-20.98"/>
      <polygon class="cls-1" points="338.43 966.02 446.06 966.02 446.06 916.28 338.43 916.28 338.43 880.15 455.77 880.15 455.77 827.7 277.82 827.7 277.82 1061.59 458.1 1061.59 458.1 1009.14 338.43 1009.14 338.43 966.02"/>
      <path class="cls-1" d="M533.87,877.04h47.79c9.71,0,17.1,1.94,21.37,5.83,4.27,3.89,6.61,10.1,6.61,19.04s-2.33,16.32-6.61,20.2c-4.27,3.89-11.66,5.83-21.37,5.83h-47.79v-50.9ZM671.41,1043.33c-1.17-4.27-1.94-8.94-2.33-13.21-.39-4.66-.78-9.71-1.17-14.38-.39-4.66-.39-8.94-.78-12.82-.39-5.83-1.17-11.66-2.33-17.48-1.17-5.83-3.11-11.66-6.22-17.1-2.72-5.44-6.22-10.1-10.88-13.99-1.94-1.55-3.5-2.72-5.44-3.89,7.77-4.66,14.38-10.88,19.04-19.04,6.22-11.27,9.32-24.09,8.94-36.91,0-8.94-1.55-17.48-5.05-26.03-3.11-8.16-8.16-15.54-14.38-21.37-6.61-6.22-13.99-11.27-22.53-14.38-9.32-3.5-19.04-5.44-29.14-5.44h-125.88v233.9h60.61v-86.64h43.13c10.49,0,18.26,2.33,22.53,6.61,4.27,4.27,7.38,12.04,8.94,22.53,1.17,8.94,2.33,18.26,2.72,27.59.39,9.32,2.33,18.26,5.44,26.81l1.55,3.89h64.11l-6.61-8.94c-1.94-3.5-3.5-6.61-4.27-9.71"/>
      <polygon class="cls-1" points="825.26 913.18 746.78 913.18 746.78 827.7 686.17 827.7 686.17 1061.59 746.78 1061.59 746.78 965.63 825.26 965.63 825.26 1061.59 885.87 1061.59 885.87 827.7 825.26 827.7 825.26 913.18"/>
      <path class="cls-1" d="M1028.85,964.07h-41.57l20.98-59.45,20.59,59.45ZM979.9,827.7l-88.59,233.9h61.78l17.48-49.73h74.99l16.71,49.73h63.33l-87.42-233.9h-58.28Z"/>
      <polygon class="cls-1" points="1273.24 963.68 1188.54 827.7 1131.04 827.7 1131.04 1061.59 1188.15 1061.59 1188.15 926 1272.46 1061.59 1330.35 1061.59 1330.35 827.7 1272.85 827.7 1273.24 963.68"/>
      <polygon class="cls-1" points="1532 827.7 1338.12 827.7 1338.12 880.15 1404.95 880.15 1404.95 1061.59 1465.56 1061.59 1465.56 880.15 1532 880.15 1532 827.7"/>
      <path class="cls-1" d="M1539.38,997.49c-18.26,0-33.03,14.76-33.03,33.03s14.76,33.03,33.03,33.03,33.03-14.76,33.03-33.03h0c0-18.26-14.76-33.03-33.03-33.03"/>
    </g>
  </g>
  <rect class="cls-1" x="-3.33" y="701.33" width="1646.65" height="7"/>
  <g>
    <path class="cls-1" d="M424.46,249.15h-41.78v-95.22l29.85-16.11v-8.36l-29.85,16.12-60.89,28.65v74.92h-41.79V40.21h41.79v85.37l-29.85,16.12v8.35l29.85-16.12,60.89-28.65V40.21h41.78v208.95Z"/>
    <path class="cls-1" d="M604.44,249.15h-58.79c-31.35,0-46.57-15.22-46.57-46.57v-115.81c0-31.35,15.22-46.57,46.57-46.57h58.79c31.35,0,46.57,15.22,46.57,46.57v115.81c0,31.35-15.22,46.57-46.57,46.57ZM609.21,95.72c0-11.33-5.37-16.72-16.7-16.72h-34.93c-11.35,0-16.7,5.38-16.7,16.72v97.9c0,11.35,5.36,16.72,16.7,16.72h34.93c11.33,0,16.7-5.37,16.7-16.72v-97.9Z"/>
    <path class="cls-1" d="M916.05,249.15h-41.79V96.03h-9.24v50.15l-21.2,102.98h-47.16l-21.19-102.98v-50.15h-8.06v153.13h-41.78V40.21h45.36c13.74,0,21.79,6.57,24.78,19.7l20,94.92v52.53h8.36v-52.53l20.59-94.32c3.28-13.73,11.04-20.3,25.08-20.3h46.26v208.95Z"/>
    <path class="cls-1" d="M1104.69,117.52v38.8l-69.24,11.94v73.43h8.35v-31.35h88.06v38.81h-138.21V40.21h138.21v38.8h-126.27v8.36h29.85v42.09l69.24-11.94Z"/>
  </g>
  <g>
    <path class="cls-1" d="M683.69,509.09c0,24.8-9.74,39.56-29.83,44.28l10.05,25.09h-35.72l-9.45-23.32h-39.25c-31,0-46.06-15.06-46.06-46.06v-114.54c0-31,15.06-46.06,46.06-46.06h58.14c31,0,46.06,15.06,46.06,46.06v114.54ZM642.36,403.4c0-11.21-5.3-16.53-16.52-16.53h-34.55c-11.22,0-16.52,5.32-16.52,16.53v96.83c0,11.22,5.3,16.53,16.52,16.53h11.82l-18.01-44.87h35.7l16.83,41.34c3.26-2.66,4.72-7.09,4.72-12.99v-96.83Z"/>
    <path class="cls-1" d="M798.8,500.23c0,11.22,5.32,16.53,16.54,16.53h40.14c11.22,0,16.54-5.6,16.54-16.53v-151.74h41.34v160.6c0,31-15.06,46.06-46.06,46.06h-63.78c-31,0-46.04-15.06-46.04-46.06v-160.6h41.31v151.74Z"/>
    <path class="cls-1" d="M1091.65,507.31l-60.23-28.34v76.17h-41.31v-160.6c0-31,15.04-46.06,46.04-46.06h50.78c31,0,46.06,15.06,46.06,46.06v160.6h-41.34v-39.56l29.52,15.94v-8.27l-29.52-15.94ZM1031.43,439.12l60.23,28.34v-64.07c0-10.92-5.61-16.53-16.52-16.53h-27.17c-10.93,0-16.54,5.32-16.54,16.53v27.46l-29.52-15.94v8.26l29.52,15.94Z"/>
    <path class="cls-1" d="M1209.74,348.49h104.2c31,0,46.06,15.06,46.06,46.06v114.54c0,31-15.06,46.06-46.06,46.06h-104.2v-206.65ZM1221.54,386.87v8.27h29.52v113.36h-29.52v8.26h80.59c10.93,0,16.54-5.6,16.54-16.53v-96.83c0-10.92-5.61-16.53-16.54-16.53h-80.59Z"/>
    <path class="cls-1" d="M451.21,485.58c-18.39-13.19-47.44-34.23-71.77-51.88l-.04.07-71.31-50.81,7.25-3.88,19.26,12.76h4.4c5.07,0,10.3.04,15.61.07,12.25.09,24.92.17,36.6-.19,8.47-.26,14.99.52,19.17,5.16,4.05,4.49,4.55,11.16,4.05,19.79-.07,1.27-.05,1.51,1.18,2.37,11.09,7.79,32.11,22.71,43.72,30.95l-.27-63.28-77.02-52.35c-12.37-9.14-19.7-6.15-32.25,1.88l-69.78,48.52c-.03,6.65,0,12.19,0,24.38,0,5.85,2.71,11.28,7.23,14.52,37.08,26.55,111.02,80.65,115.83,84.24l13.84,10.3h-.09l19.72,14.05-7.26,3.88-27.05-17.92h-6.28c-11.45.01-41.85.04-55.8-.06-9.47-.06-14.88-5.74-15.24-15.99l-.02-.61c-.09-2.48-.18-5.04.05-7.71.05-.57-.19-1.13-.64-1.44-10.98-7.73-32.39-23.08-44.09-31.48-.11,15.46-.26,44.3.06,60.29.22,10.69,3.35,29.12,21.93,32.47,8.84,1.59,125.68,2.05,133,.52,19.61-4.1,23.56-15.3,24-34.54.06-2.68.04-5.36.03-8.04-.02-3.19-.04-6.48.07-9.78h0c.24-7.16-2.19-12.03-8.11-16.27Z"/>
  </g>
</svg>