<?xml version="1.0" standalone="no"?>
<!DOCTYPE svg PUBLIC "-//W3C//DTD SVG 20010904//EN"
 "http://www.w3.org/TR/2001/REC-SVG-20010904/DTD/svg10.dtd">
<svg version="1.1" xmlns="http://www.w3.org/2000/svg"
 width="3494.400000pt" height="983.040000pt" viewBox="0 0 3494.400000 983.040000"
 preserveAspectRatio="xMidYMid meet">
<metadata>
Created by potrace 1.16, written by Peter Selinger 2001-2019
</metadata>
<g transform="translate(0.000000,983.040000) scale(0.024000,-0.024000)"
fill="#FFFFFF" stroke="none">
<path d="M10360 40170 c-1538 0 -1538 0 -1567 -36 -28 -35 -28 -35 -238 -40
-210 -5 -210 -5 -241 -41 -31 -35 -31 -35 -280 -40 -249 -4 -249 -4 -279 -39
-31 -35 -31 -35 -160 -40 -130 -5 -130 -5 -160 -39 -30 -35 -30 -35 -200 -41
-170 -5 -170 -5 -202 -42 -32 -37 -32 -37 -119 -37 -87 -1 -87 -1 -120 -40
-33 -40 -33 -40 -120 -40 -87 -1 -87 -1 -120 -40 -33 -40 -33 -40 -120 -40
-87 -1 -87 -1 -120 -40 -33 -40 -33 -40 -120 -40 -87 -1 -87 -1 -118 -37 -26
-31 -39 -38 -84 -44 -44 -6 -57 -12 -78 -39 -21 -28 -34 -34 -77 -40 -43 -5
-57 -12 -84 -43 -32 -37 -32 -37 -119 -37 -87 -1 -87 -1 -118 -37 -26 -31 -39
-38 -84 -44 -44 -6 -57 -12 -78 -39 -21 -27 -34 -35 -77 -40 -48 -7 -57 -13
-124 -82 -66 -69 -75 -74 -123 -80 -43 -5 -55 -11 -76 -39 -21 -28 -34 -34
-80 -40 -46 -5 -59 -12 -80 -39 -21 -27 -34 -35 -77 -40 -50 -7 -56 -12 -164
-121 -105 -108 -114 -115 -160 -121 -43 -5 -55 -13 -119 -79 -65 -67 -76 -75
-120 -81 -47 -6 -54 -12 -241 -200 -186 -187 -194 -193 -240 -200 -43 -5 -56
-14 -124 -82 -41 -42 -85 -84 -97 -93 -16 -13 -22 -29 -22 -59 0 -22 -4 -49
-10 -59 -7 -12 -27 -20 -62 -25 -29 -4 -61 -11 -70 -17 -14 -6 -18 -21 -18
-58 0 -50 0 -50 -178 -227 -99 -98 -189 -186 -200 -195 -17 -14 -22 -29 -22
-63 0 -44 -3 -48 -98 -142 -55 -54 -109 -106 -120 -115 -17 -14 -22 -29 -22
-63 0 -42 -4 -49 -58 -102 -33 -32 -69 -66 -80 -75 -17 -14 -22 -29 -22 -63 0
-42 -4 -49 -58 -102 -33 -32 -69 -66 -80 -75 -17 -14 -22 -29 -22 -63 0 -31
-6 -51 -18 -62 -11 -10 -29 -26 -40 -35 -17 -14 -22 -29 -22 -63 0 -31 -6 -51
-18 -62 -11 -10 -29 -26 -40 -35 -17 -14 -22 -29 -22 -63 0 -31 -6 -51 -18
-62 -11 -10 -29 -26 -40 -35 -17 -14 -22 -29 -22 -63 0 -35 -6 -52 -25 -70
-13 -14 -28 -25 -34 -25 -5 0 -15 -16 -21 -35 -7 -21 -9 -56 -5 -90 6 -42 4
-61 -9 -79 -8 -14 -24 -27 -35 -31 -11 -3 -25 -21 -31 -40 -7 -21 -9 -56 -5
-90 6 -42 4 -61 -9 -79 -8 -14 -24 -27 -35 -31 -11 -3 -25 -21 -31 -40 -7 -21
-9 -56 -5 -90 6 -42 4 -61 -9 -79 -8 -14 -24 -27 -35 -31 -11 -3 -25 -21 -31
-40 -7 -21 -9 -70 -5 -130 5 -78 3 -102 -9 -120 -9 -13 -24 -26 -35 -30 -11
-3 -23 -18 -28 -33 -5 -15 -8 -110 -7 -212 2 -146 0 -190 -11 -207 -8 -12 -23
-24 -34 -28 -11 -3 -23 -16 -27 -28 -4 -12 -7 -161 -6 -332 1 -251 -2 -314
-13 -332 -8 -12 -23 -24 -34 -28 -11 -3 -23 -15 -26 -26 -4 -11 -7 -218 -7
-459 0 -241 3 -448 7 -459 3 -11 15 -23 26 -26 11 -4 26 -16 34 -28 11 -18 13
-68 12 -247 -2 -124 1 -237 6 -252 5 -15 17 -30 28 -33 11 -4 26 -16 34 -28
11 -17 13 -54 11 -166 -2 -80 1 -157 6 -172 5 -16 18 -31 29 -34 11 -4 26 -17
35 -30 12 -18 14 -42 9 -120 -4 -60 -2 -109 5 -130 6 -19 20 -37 31 -40 11 -4
27 -17 35 -31 13 -18 15 -37 9 -79 -4 -34 -2 -69 5 -90 6 -19 16 -35 21 -35 6
0 21 -11 34 -25 19 -18 25 -35 25 -70 0 -34 5 -49 22 -63 11 -9 30 -25 41 -36
17 -16 18 -26 13 -78 -5 -36 -3 -73 4 -94 6 -19 16 -34 21 -34 6 0 21 -11 34
-25 19 -18 25 -35 25 -70 0 -34 5 -49 22 -63 11 -9 29 -25 40 -34 12 -12 18
-32 18 -63 0 -34 5 -49 22 -63 11 -9 47 -43 80 -74 54 -54 58 -61 58 -103 0
-34 5 -49 22 -63 11 -9 29 -25 40 -34 12 -12 18 -32 18 -63 0 -34 5 -49 22
-63 11 -9 47 -43 80 -74 54 -54 58 -61 58 -103 0 -34 5 -49 22 -63 11 -9 83
-79 160 -154 137 -137 138 -138 138 -183 0 -34 5 -49 22 -63 11 -9 164 -159
338 -333 310 -310 317 -316 364 -322 44 -6 55 -14 159 -120 105 -107 115 -114
160 -120 46 -6 55 -14 160 -120 106 -107 115 -114 161 -120 44 -6 55 -14 120
-81 66 -68 75 -74 123 -81 43 -5 56 -12 77 -40 21 -27 34 -34 80 -39 46 -6 59
-12 80 -40 21 -28 33 -34 76 -39 48 -6 57 -11 123 -80 67 -69 76 -75 124 -82
43 -5 56 -12 77 -40 21 -27 34 -34 80 -39 46 -6 58 -12 80 -40 21 -28 34 -34
78 -40 45 -6 58 -13 84 -44 31 -36 31 -36 118 -37 87 0 87 0 119 -37 26 -30
41 -38 82 -43 41 -5 56 -13 81 -43 31 -36 31 -36 118 -37 87 0 87 0 120 -40
33 -39 33 -39 120 -40 87 0 87 0 120 -40 33 -39 33 -39 120 -40 87 0 87 0 120
-40 33 -39 33 -39 120 -40 87 0 87 0 120 -40 33 -39 33 -39 120 -40 87 0 87 0
119 -37 26 -30 41 -38 82 -43 40 -5 56 -13 80 -40 30 -34 30 -34 160 -39 129
-5 129 -5 161 -43 31 -37 31 -37 118 -38 87 0 87 0 119 -37 32 -37 32 -37 162
-42 129 -5 129 -5 160 -40 30 -35 30 -35 160 -40 129 -5 129 -5 160 -40 30
-35 30 -35 160 -40 129 -5 129 -5 160 -40 30 -35 30 -35 160 -40 129 -5 129
-5 160 -40 30 -35 30 -35 160 -40 129 -5 129 -5 160 -40 30 -35 30 -35 160
-40 129 -5 129 -5 161 -43 31 -37 31 -37 118 -38 87 0 87 0 119 -37 32 -37 32
-37 162 -42 129 -5 129 -5 160 -40 30 -35 30 -35 160 -40 129 -5 129 -5 160
-40 30 -35 30 -35 160 -40 129 -5 129 -5 160 -40 30 -35 30 -35 160 -40 129
-5 129 -5 160 -40 30 -35 30 -35 160 -40 129 -5 129 -5 160 -40 30 -35 30 -35
160 -40 129 -5 129 -5 160 -40 24 -28 40 -36 80 -41 41 -5 56 -13 81 -43 31
-36 31 -36 118 -37 87 0 87 0 120 -40 33 -39 33 -39 120 -40 87 0 87 0 119
-37 27 -31 41 -38 84 -43 43 -6 56 -12 77 -40 21 -27 34 -34 80 -39 46 -6 58
-12 80 -40 21 -28 34 -35 80 -40 46 -6 58 -12 80 -40 21 -28 34 -35 80 -40 46
-6 59 -12 80 -40 21 -28 33 -34 76 -39 48 -6 57 -11 123 -80 65 -67 77 -75
119 -80 47 -6 54 -12 344 -303 296 -296 296 -296 290 -356 -4 -36 -3 -73 4
-93 6 -19 20 -37 31 -40 11 -4 26 -16 34 -28 11 -18 14 -99 14 -447 0 -348 -3
-429 -14 -447 -8 -12 -23 -24 -34 -28 -11 -3 -25 -21 -31 -40 -7 -20 -8 -57
-4 -93 6 -60 6 -60 -53 -118 -33 -33 -70 -67 -81 -76 -17 -14 -22 -29 -22 -63
0 -45 0 -45 -215 -260 -214 -215 -216 -216 -266 -222 -42 -5 -55 -12 -75 -39
-21 -28 -34 -34 -80 -40 -46 -5 -59 -12 -80 -40 -22 -28 -34 -34 -80 -40 -46
-5 -59 -12 -80 -40 -22 -28 -34 -34 -80 -40 -46 -5 -59 -12 -80 -39 -21 -28
-34 -34 -77 -40 -43 -5 -57 -12 -84 -43 -32 -37 -32 -37 -119 -37 -87 -1 -87
-1 -120 -40 -33 -40 -33 -40 -120 -40 -87 -1 -87 -1 -118 -39 -32 -37 -32 -37
-242 -42 -209 -5 -209 -5 -241 -42 -32 -37 -32 -37 -1073 -37 -1041 0 -1041 0
-1073 37 -32 37 -32 37 -202 42 -170 6 -170 6 -200 41 -30 34 -30 34 -160 39
-129 5 -129 5 -160 40 -30 35 -30 35 -160 40 -129 5 -129 5 -160 40 -25 28
-39 36 -82 41 -43 6 -56 12 -77 40 -21 27 -34 34 -80 39 -46 6 -58 12 -80 40
-21 28 -34 35 -80 40 -46 6 -58 12 -80 40 -21 28 -34 35 -80 40 -46 6 -59 12
-80 40 -21 28 -33 34 -76 39 -48 6 -57 11 -123 80 -65 67 -77 75 -120 80 -46
6 -53 13 -302 262 -255 255 -255 255 -255 300 0 34 -5 49 -22 63 -11 9 -47 43
-80 75 -54 53 -58 60 -58 102 0 34 -5 49 -22 63 -11 9 -30 25 -41 36 -17 16
-18 26 -13 78 4 36 3 73 -4 93 -6 19 -20 37 -31 40 -11 4 -27 17 -35 31 -13
18 -15 37 -9 79 4 34 2 69 -5 90 -6 19 -20 37 -31 40 -11 4 -27 17 -35 31 -13
18 -15 37 -9 79 4 34 2 69 -5 90 -6 19 -20 37 -31 40 -11 4 -26 16 -34 28 -11
17 -13 54 -11 166 2 80 -1 157 -6 172 -5 16 -18 31 -29 34 -11 4 -26 16 -34
28 -12 18 -14 107 -14 527 0 278 0 513 -1 522 0 9 -7 24 -16 32 -14 14 -281
16 -2792 16 -1527 0 -2782 -4 -2789 -8 -6 -4 -16 -19 -21 -32 -5 -14 -7 -108
-6 -210 2 -146 0 -190 -11 -207 -8 -12 -23 -24 -34 -28 -11 -3 -23 -16 -27
-28 -4 -11 -7 -145 -7 -297 0 -152 3 -286 7 -297 4 -12 16 -25 27 -28 11 -4
26 -16 34 -28 11 -18 14 -86 13 -372 0 -193 2 -360 6 -372 4 -12 16 -25 27
-28 11 -4 26 -16 34 -28 11 -18 13 -68 12 -247 -2 -124 1 -237 6 -252 5 -15
17 -30 28 -33 11 -4 26 -17 35 -30 12 -18 14 -42 9 -120 -4 -60 -2 -109 5
-130 6 -19 20 -37 31 -40 11 -4 26 -17 35 -30 12 -18 14 -42 9 -120 -4 -60 -2
-109 5 -130 6 -19 20 -37 31 -40 11 -4 27 -17 35 -31 13 -18 15 -37 9 -79 -4
-34 -2 -69 5 -90 6 -19 20 -37 31 -40 11 -4 27 -17 35 -31 13 -18 15 -37 9
-79 -4 -34 -2 -69 5 -90 6 -19 16 -35 21 -35 6 0 21 -11 34 -25 19 -18 25 -35
25 -70 0 -34 5 -49 22 -63 11 -9 30 -25 41 -36 17 -16 18 -26 13 -78 -5 -36
-3 -73 4 -94 6 -19 16 -34 21 -34 6 0 21 -11 34 -25 19 -18 25 -35 25 -70 0
-34 5 -49 22 -63 11 -9 29 -25 40 -34 12 -12 18 -32 18 -63 0 -34 5 -49 22
-63 11 -9 29 -25 40 -34 12 -12 18 -32 18 -63 0 -34 5 -49 22 -63 11 -9 47
-43 80 -74 54 -54 58 -61 58 -103 0 -34 5 -49 22 -63 11 -9 29 -25 40 -34 12
-12 18 -32 18 -63 0 -34 5 -49 22 -63 11 -9 47 -43 80 -74 54 -54 58 -61 58
-103 0 -34 5 -49 22 -63 11 -9 65 -61 120 -114 95 -95 98 -99 98 -143 0 -34 5
-49 22 -63 11 -9 101 -97 200 -194 178 -178 178 -178 178 -223 0 -34 5 -49 22
-63 12 -9 110 -105 217 -213 190 -189 198 -196 244 -202 46 -6 55 -14 200
-160 146 -147 154 -154 200 -160 46 -6 55 -14 160 -120 106 -107 115 -114 161
-120 44 -6 55 -14 120 -81 64 -66 76 -74 120 -80 44 -5 55 -13 120 -80 64 -66
76 -74 120 -80 44 -5 55 -13 120 -80 66 -68 75 -74 123 -81 43 -5 56 -12 77
-40 21 -27 34 -34 80 -39 46 -6 58 -12 80 -40 21 -28 34 -34 78 -40 45 -6 58
-13 84 -44 31 -36 31 -36 117 -37 85 0 85 0 161 -80 77 -79 77 -79 162 -80 85
0 85 0 117 -37 27 -31 41 -38 84 -43 43 -6 56 -12 77 -40 21 -27 34 -33 78
-39 45 -6 58 -13 84 -44 31 -36 31 -36 118 -37 87 0 87 0 120 -40 33 -39 33
-39 120 -40 87 0 87 0 120 -40 33 -39 33 -39 120 -40 87 0 87 0 119 -37 32
-37 32 -37 162 -42 129 -5 129 -5 160 -40 30 -35 30 -35 160 -40 129 -5 129
-5 160 -40 30 -35 30 -35 200 -40 170 -6 170 -6 200 -40 30 -35 30 -35 239
-40 210 -5 210 -5 240 -40 31 -35 31 -35 201 -40 170 -6 170 -6 198 -41 29
-35 29 -35 2127 -35 2098 0 2098 0 2127 35 28 36 28 36 158 41 130 5 130 5
161 40 30 35 30 35 240 40 209 5 209 5 239 40 31 35 31 35 160 40 130 5 130 5
160 40 31 35 31 35 160 40 130 5 130 5 160 40 31 35 31 35 160 40 130 5 130 5
160 40 31 35 31 35 160 40 130 5 130 5 162 42 32 37 32 37 119 37 87 1 87 1
118 37 25 30 40 38 81 43 41 5 56 13 82 43 32 37 32 37 119 37 87 1 87 1 118
37 26 31 39 38 84 44 44 6 57 12 78 40 22 28 34 34 80 40 46 5 59 12 80 40 22
28 34 34 80 40 46 5 59 12 80 40 22 28 34 34 80 40 46 5 59 12 80 40 22 28 34
34 80 40 46 5 59 12 80 39 21 28 34 35 77 40 48 7 57 13 124 82 66 69 75 74
123 80 43 5 55 11 76 39 21 26 34 34 77 39 48 7 57 13 123 81 65 67 76 75 120
81 46 6 55 13 161 120 105 106 114 114 160 120 46 6 54 13 240 200 185 186
194 194 240 200 46 6 55 14 244 202 107 108 205 204 217 213 17 14 22 29 22
63 0 45 0 45 178 223 99 97 189 185 200 194 17 14 22 29 22 63 0 42 4 49 58
103 33 31 69 65 80 74 17 14 22 29 22 63 0 42 4 49 58 102 33 32 69 66 80 75
17 14 22 29 22 63 0 31 6 51 18 63 11 9 29 25 40 34 17 14 22 29 22 63 0 42 4
49 58 103 33 31 69 65 80 74 17 14 22 29 22 63 0 35 6 52 25 70 13 14 28 25
34 25 5 0 15 15 21 34 7 21 9 58 4 94 -5 52 -4 62 13 78 11 11 30 27 41 36 17
14 22 29 22 63 0 35 6 52 25 70 13 14 28 25 34 25 5 0 15 15 21 34 7 21 9 58
4 94 -5 52 -4 62 13 78 11 11 30 27 41 36 17 14 22 29 22 63 0 35 6 52 25 70
13 14 28 25 34 25 5 0 15 16 21 35 7 21 9 56 5 90 -6 42 -4 61 9 79 8 14 24
27 35 31 11 3 25 21 31 40 7 21 9 70 5 130 -5 78 -3 102 9 120 9 13 24 26 35
30 11 3 25 21 31 40 7 21 9 70 5 130 -5 78 -3 102 9 120 9 13 24 26 35 30 11
3 24 18 29 34 5 15 8 92 6 172 -2 112 0 149 11 166 8 12 23 24 34 28 10 3 22
13 25 22 4 9 7 523 7 1143 0 620 -3 1134 -7 1143 -3 9 -15 19 -25 22 -11 4
-26 16 -34 28 -11 17 -13 54 -11 166 2 80 -1 157 -6 172 -5 16 -18 31 -29 34
-11 4 -27 17 -35 31 -13 18 -15 37 -9 79 4 34 2 69 -5 90 -6 19 -20 37 -31 40
-11 4 -27 17 -35 31 -13 18 -15 37 -9 79 4 34 2 69 -5 90 -6 19 -20 37 -31 40
-11 4 -27 17 -35 31 -13 18 -15 37 -9 79 4 34 2 69 -5 90 -6 19 -16 35 -21 35
-6 0 -21 11 -34 25 -19 18 -25 35 -25 70 0 34 -5 49 -22 63 -11 9 -29 25 -40
35 -12 11 -18 31 -18 62 0 34 -5 49 -22 63 -11 9 -29 25 -40 35 -12 11 -18 31
-18 62 0 34 -5 49 -22 63 -11 9 -29 25 -40 35 -12 11 -18 31 -18 62 0 34 -5
49 -22 63 -11 9 -29 25 -40 35 -12 11 -18 31 -18 62 0 34 -5 49 -22 63 -11 9
-29 25 -40 35 -12 11 -18 31 -18 62 0 34 -5 49 -22 63 -11 9 -47 43 -80 75
-54 53 -58 60 -58 102 0 34 -5 49 -22 63 -11 9 -83 79 -160 155 -137 136 -138
137 -138 182 0 34 -5 49 -22 63 -11 9 -254 249 -538 533 -512 511 -517 516
-564 522 -44 6 -55 14 -159 120 -106 107 -115 114 -161 120 -44 6 -55 14 -120
81 -66 68 -75 74 -123 81 -43 5 -56 12 -77 40 -21 27 -34 34 -80 39 -46 6 -58
12 -80 40 -21 28 -34 35 -80 40 -46 6 -58 12 -80 40 -21 28 -34 35 -80 40 -46
6 -58 12 -80 40 -21 28 -34 35 -80 40 -46 6 -58 12 -80 40 -21 28 -34 34 -78
40 -45 6 -58 13 -84 44 -31 36 -31 36 -118 37 -87 0 -87 0 -120 40 -33 39 -33
39 -120 40 -87 0 -87 0 -120 40 -33 39 -33 39 -120 40 -87 0 -87 0 -119 37
-26 30 -41 38 -82 43 -41 5 -56 13 -81 43 -31 36 -31 36 -118 37 -87 0 -87 0
-119 37 -32 37 -32 37 -162 42 -129 5 -129 5 -161 43 -31 37 -31 37 -118 38
-87 0 -87 0 -119 37 -32 37 -32 37 -162 42 -129 5 -129 5 -161 43 -31 37 -31
37 -118 38 -87 0 -87 0 -119 37 -32 37 -32 37 -202 42 -170 6 -170 6 -200 41
-30 34 -30 34 -160 39 -129 5 -129 5 -160 40 -30 35 -30 35 -160 40 -129 5
-129 5 -161 43 -31 37 -31 37 -118 38 -87 0 -87 0 -119 37 -32 37 -32 37 -162
42 -129 5 -129 5 -160 40 -30 35 -30 35 -160 40 -129 5 -129 5 -160 40 -30 35
-30 35 -160 40 -129 5 -129 5 -160 40 -30 35 -30 35 -160 40 -129 5 -129 5
-160 40 -30 35 -30 35 -160 40 -129 5 -129 5 -160 40 -30 35 -30 35 -160 40
-129 5 -129 5 -160 40 -30 35 -30 35 -160 40 -129 5 -129 5 -160 40 -30 35
-30 35 -160 40 -129 5 -129 5 -160 40 -30 35 -30 35 -160 40 -129 5 -129 5
-161 43 -31 37 -31 37 -118 38 -87 0 -87 0 -119 37 -32 37 -32 37 -162 42
-129 5 -129 5 -161 43 -31 37 -31 37 -118 38 -87 0 -87 0 -120 40 -33 39 -33
39 -120 40 -87 0 -87 0 -119 37 -26 30 -41 38 -82 43 -41 5 -56 13 -81 43 -31
36 -31 36 -118 37 -87 0 -87 0 -119 37 -27 31 -41 38 -84 43 -43 6 -56 12 -77
40 -21 27 -34 34 -80 39 -46 6 -58 12 -80 40 -21 28 -34 35 -80 40 -46 6 -59
12 -80 40 -20 27 -33 34 -75 39 -49 6 -55 10 -186 142 -133 134 -135 136 -135
180 0 34 -5 49 -22 63 -11 9 -30 25 -41 36 -17 16 -18 26 -13 78 4 36 3 73 -4
93 -6 19 -20 37 -31 40 -11 4 -26 16 -33 28 -11 17 -14 79 -14 287 0 208 3
270 14 287 7 12 22 24 33 28 11 3 25 21 31 40 7 21 9 71 5 134 -5 90 -4 102
13 118 10 10 29 26 40 35 17 14 22 29 22 63 0 31 6 51 18 63 11 9 29 25 40 34
17 14 22 29 22 63 0 45 0 45 175 220 168 169 177 176 222 182 43 5 55 13 120
80 66 69 75 74 123 80 43 5 55 11 76 39 21 28 34 34 80 40 46 5 59 12 80 39
21 28 34 34 77 40 43 5 57 12 84 43 32 37 32 37 119 37 87 1 87 1 118 38 32
38 32 38 161 43 130 5 130 5 161 40 31 36 31 36 280 41 249 4 249 4 281 41 32
37 32 37 353 37 321 0 321 0 353 -37 32 -37 32 -37 321 -41 289 -4 289 -4 320
-40 31 -36 31 -36 201 -41 170 -6 170 -6 200 -41 30 -34 30 -34 160 -39 129
-5 129 -5 161 -43 31 -37 31 -37 118 -38 87 0 87 0 119 -37 27 -31 41 -38 84
-43 43 -6 56 -12 77 -40 21 -27 34 -34 80 -39 46 -6 58 -12 80 -40 21 -28 34
-35 80 -40 46 -6 59 -12 80 -40 20 -27 33 -34 75 -39 50 -6 50 -6 306 -262
255 -255 255 -255 255 -300 0 -34 5 -49 22 -63 11 -9 29 -25 40 -34 12 -12 18
-32 18 -63 0 -34 5 -49 22 -63 11 -9 29 -25 40 -34 12 -12 18 -32 18 -63 0
-34 5 -49 22 -63 11 -9 30 -25 41 -36 17 -16 18 -26 13 -78 -4 -36 -3 -73 4
-93 6 -19 20 -37 31 -40 11 -4 26 -17 35 -30 12 -18 14 -42 9 -120 -4 -60 -2
-109 5 -130 6 -19 20 -37 31 -40 11 -4 26 -16 34 -28 11 -18 14 -91 13 -413 0
-215 3 -400 6 -412 4 -11 16 -24 27 -27 11 -4 27 -17 35 -31 12 -18 14 -37 9
-81 -4 -36 -2 -70 5 -88 6 -16 17 -33 23 -37 7 -4 1280 -8 2829 -8 2547 0
2818 2 2832 16 9 8 16 23 16 32 0 9 1 375 1 812 0 438 -3 803 -6 813 -4 9 -16
19 -26 22 -11 4 -26 16 -34 28 -11 18 -13 68 -12 247 2 124 -1 237 -6 252 -5
15 -17 30 -28 33 -11 4 -26 17 -35 30 -12 18 -14 42 -9 120 4 60 2 109 -5 130
-6 19 -20 37 -31 40 -11 4 -26 17 -35 30 -12 18 -14 42 -9 120 4 61 2 109 -5
131 -6 19 -16 34 -21 34 -6 0 -21 11 -34 25 -19 18 -25 35 -25 70 0 34 -5 49
-22 63 -11 9 -30 25 -41 36 -17 16 -18 26 -13 78 5 36 3 73 -4 94 -6 19 -16
34 -21 34 -6 0 -21 11 -34 25 -19 18 -25 35 -25 70 0 34 -5 49 -22 63 -11 9
-30 25 -41 36 -17 16 -18 26 -13 78 5 36 3 73 -4 94 -6 19 -16 34 -21 34 -6 0
-21 11 -34 25 -19 18 -25 35 -25 70 0 34 -5 49 -22 63 -11 9 -29 25 -40 35
-12 11 -18 31 -18 62 0 34 -5 49 -22 63 -11 9 -29 25 -40 35 -12 11 -18 31
-18 62 0 34 -5 49 -22 63 -11 9 -29 25 -40 35 -12 11 -18 31 -18 62 0 34 -5
49 -22 63 -11 9 -47 43 -80 75 -54 53 -58 60 -58 102 0 34 -5 49 -22 63 -11 9
-47 43 -80 75 -54 53 -58 60 -58 102 0 34 -5 49 -22 63 -11 9 -65 61 -120 115
-95 94 -98 98 -98 142 0 34 -5 49 -22 63 -11 9 -254 249 -538 533 -514 513
-517 516 -564 522 -44 6 -56 14 -120 81 -64 66 -76 74 -120 80 -44 5 -55 13
-120 80 -64 66 -76 74 -120 80 -44 5 -55 13 -120 80 -66 68 -75 74 -123 81
-43 5 -56 13 -77 39 -21 28 -33 34 -76 39 -49 6 -56 11 -126 84 -75 77 -75 77
-160 78 -85 0 -85 0 -117 37 -27 31 -41 38 -84 43 -43 6 -56 12 -77 40 -21 27
-34 34 -80 39 -46 6 -58 12 -80 40 -21 28 -34 35 -80 40 -46 6 -58 12 -80 40
-21 28 -34 34 -78 40 -45 6 -58 13 -84 44 -31 36 -31 36 -118 37 -87 0 -87 0
-119 37 -26 30 -41 38 -82 43 -41 5 -56 13 -81 43 -31 36 -31 36 -118 37 -87
0 -87 0 -120 40 -33 39 -33 39 -120 40 -87 0 -87 0 -119 37 -32 37 -32 37
-162 42 -129 5 -129 5 -160 40 -30 35 -30 35 -160 40 -129 5 -129 5 -160 40
-30 35 -30 35 -200 40 -170 6 -170 6 -200 40 -30 35 -30 35 -239 40 -210 5
-210 5 -240 40 -31 35 -31 35 -241 40 -210 5 -210 5 -238 40 -29 36 -29 36
-1567 36z"/>
<path d="M46040 39770 c-6339 0 -6339 0 -6364 -33 -14 -18 -37 -39 -50 -47
-14 -7 -27 -19 -31 -27 -3 -8 -5 -5035 -5 -11171 0 -6137 0 -11165 0 -11174 0
-9 7 -24 16 -32 14 -15 296 -16 2954 -16 2658 0 2940 1 2954 16 9 8 16 23 16
32 0 9 0 1847 0 4083 0 3486 2 4068 14 4085 14 19 55 19 2456 19 2441 0 2441
0 2473 -37 32 -37 32 -37 162 -42 129 -5 129 -5 161 -43 31 -37 31 -37 118
-38 87 0 87 0 119 -37 27 -31 41 -38 84 -43 43 -6 56 -12 77 -40 21 -27 34
-34 80 -39 46 -6 59 -12 80 -40 20 -27 33 -34 75 -39 50 -6 50 -6 306 -262
255 -255 255 -255 255 -300 0 -34 5 -49 22 -63 11 -9 29 -25 40 -34 12 -12 18
-32 18 -63 0 -34 5 -49 22 -63 11 -9 29 -25 40 -34 12 -12 18 -32 18 -63 0
-34 5 -49 22 -63 11 -9 30 -25 41 -36 17 -16 18 -26 13 -78 -4 -36 -3 -73 4
-93 6 -19 20 -37 31 -40 11 -4 27 -17 35 -31 13 -18 15 -37 9 -79 -4 -34 -2
-69 5 -90 6 -19 20 -37 31 -40 11 -4 26 -17 35 -30 12 -18 14 -42 9 -120 -4
-60 -2 -109 5 -130 6 -19 20 -37 31 -40 11 -4 26 -16 34 -28 11 -17 13 -54 11
-166 -2 -80 1 -157 6 -172 5 -16 18 -31 29 -34 11 -4 26 -16 34 -28 11 -18 14
-75 13 -292 -1 -148 2 -280 6 -292 4 -12 16 -25 27 -28 11 -4 26 -16 34 -28
11 -18 14 -75 13 -292 -1 -148 2 -280 6 -292 4 -12 16 -25 27 -28 11 -4 26
-16 34 -28 11 -18 14 -81 13 -332 -1 -170 2 -320 6 -332 4 -12 16 -25 27 -28
11 -4 26 -16 34 -28 12 -18 14 -113 14 -577 0 -305 3 -563 6 -572 4 -10 16
-20 26 -23 11 -4 26 -16 34 -28 11 -18 13 -68 12 -247 -2 -124 1 -237 6 -252
5 -15 17 -30 28 -33 11 -4 26 -16 34 -28 11 -17 13 -61 11 -207 -1 -102 2
-197 7 -212 5 -15 17 -30 28 -33 11 -4 26 -17 35 -30 12 -18 14 -42 9 -120 -4
-60 -2 -109 5 -130 6 -19 20 -37 31 -40 11 -4 26 -17 35 -30 12 -18 14 -42 9
-120 -4 -60 -2 -109 5 -130 6 -19 20 -37 31 -40 11 -4 27 -17 35 -31 13 -18
15 -37 9 -79 -4 -34 -2 -69 5 -90 6 -19 20 -37 31 -40 11 -4 27 -17 35 -31 13
-18 15 -37 9 -79 -4 -34 -2 -69 5 -90 6 -19 20 -37 31 -40 11 -4 27 -17 35
-31 13 -18 15 -37 9 -79 -4 -34 -2 -69 5 -90 6 -19 16 -35 21 -35 6 0 21 -11
34 -25 20 -19 25 -34 25 -73 0 -28 6 -54 13 -60 6 -5 38 -13 69 -16 49 -6 60
-12 83 -42 26 -34 26 -34 3001 -34 2976 0 2976 0 3037 62 58 58 62 64 62 108
0 46 -1 47 -122 168 -121 120 -123 122 -123 167 0 34 -5 49 -22 63 -11 9 -65
61 -120 115 -95 94 -98 98 -98 142 0 34 -5 49 -22 63 -11 9 -47 43 -80 75 -54
53 -58 60 -58 102 0 34 -5 49 -22 63 -11 9 -29 25 -40 35 -12 11 -18 31 -18
62 0 34 -5 49 -22 63 -11 9 -29 25 -40 35 -12 11 -18 31 -18 62 0 34 -5 49
-22 63 -11 9 -30 25 -41 36 -17 16 -18 26 -13 78 4 36 3 73 -4 93 -6 19 -20
37 -31 40 -11 4 -27 17 -35 31 -13 18 -15 37 -9 79 4 34 2 69 -5 90 -6 19 -20
37 -31 40 -11 4 -26 17 -35 30 -12 18 -14 42 -9 120 4 60 2 109 -5 130 -6 19
-20 37 -31 40 -11 4 -26 17 -35 30 -12 18 -14 42 -9 120 4 60 2 109 -5 130 -6
19 -20 37 -31 40 -11 4 -26 16 -34 28 -11 18 -14 75 -13 292 1 149 -2 280 -6
292 -4 12 -16 25 -27 28 -11 4 -26 16 -34 28 -12 18 -14 102 -14 493 1 260 -2
481 -6 492 -3 12 -15 24 -26 27 -11 4 -26 16 -34 28 -12 19 -14 123 -14 657 0
349 -3 643 -6 652 -4 10 -16 20 -26 23 -11 4 -26 16 -34 28 -11 18 -14 91 -13
413 0 215 -3 400 -6 412 -4 11 -16 24 -27 27 -11 4 -26 16 -34 28 -11 18 -13
68 -12 247 2 124 -1 237 -6 252 -5 15 -17 30 -28 33 -11 4 -26 16 -34 28 -11
17 -13 61 -11 207 1 102 -2 197 -7 212 -5 15 -17 30 -28 33 -11 4 -26 17 -35
30 -12 18 -14 42 -9 120 4 60 2 109 -5 130 -6 19 -20 37 -31 40 -11 4 -27 17
-35 31 -13 18 -15 37 -9 79 4 34 2 69 -5 90 -6 19 -20 37 -31 40 -11 4 -27 17
-35 31 -13 18 -15 37 -9 79 4 34 2 69 -5 90 -6 19 -20 37 -31 40 -11 4 -27 17
-35 31 -13 18 -15 37 -9 79 4 34 2 69 -5 90 -6 19 -16 35 -21 35 -6 0 -21 11
-34 25 -19 18 -25 35 -25 70 0 34 -5 49 -22 63 -11 9 -29 25 -40 35 -12 11
-18 31 -18 62 0 34 -5 49 -22 63 -11 9 -29 25 -40 35 -12 11 -18 31 -18 62 0
34 -5 49 -22 63 -11 9 -29 25 -40 35 -12 11 -18 31 -18 62 0 34 -5 49 -22 63
-11 9 -29 25 -40 35 -12 11 -18 31 -18 62 0 34 -5 49 -22 63 -11 9 -47 43 -80
75 -54 53 -58 60 -58 102 0 34 -5 49 -22 63 -11 9 -47 43 -80 75 -54 53 -58
60 -58 102 0 34 -5 49 -22 63 -11 9 -182 177 -378 373 -350 350 -357 356 -404
362 -43 6 -55 14 -142 103 -72 74 -94 102 -94 123 0 15 6 34 13 43 6 9 34 18
61 22 45 6 55 12 121 81 66 68 77 76 121 82 47 6 55 12 201 160 145 147 154
154 200 160 45 6 55 14 164 122 63 64 125 124 137 133 17 14 22 29 22 63 0 45
0 45 178 223 99 97 189 185 200 194 17 14 22 29 22 63 0 42 4 49 58 103 33 31
69 65 80 74 17 14 22 29 22 63 0 31 6 51 18 63 11 9 29 25 40 34 17 14 22 29
22 63 0 31 6 51 18 63 11 9 29 25 40 34 17 14 22 29 22 63 0 43 4 49 66 110
36 36 69 65 74 65 5 0 14 15 20 34 7 21 9 58 4 94 -5 52 -4 62 13 78 11 11 30
27 41 36 17 14 22 29 22 63 0 31 6 51 18 63 11 9 29 25 40 34 17 14 22 29 22
63 0 35 6 52 25 70 13 14 28 25 34 25 5 0 15 16 21 35 7 21 9 56 5 90 -6 42
-4 61 9 79 8 14 24 27 35 31 11 3 25 21 31 40 7 21 9 70 5 130 -5 78 -3 102 9
120 9 13 24 26 35 30 11 3 25 21 31 40 7 21 9 56 5 90 -6 42 -4 61 9 79 8 14
24 27 35 31 11 3 24 18 29 34 5 15 8 92 6 172 -2 112 0 149 11 166 8 12 23 24
34 28 11 3 23 18 28 33 5 15 8 128 6 252 -1 179 1 229 12 247 8 12 23 24 34
28 10 3 22 13 26 23 3 9 6 361 6 782 0 421 -3 773 -6 782 -4 10 -16 20 -26 23
-11 4 -26 16 -34 28 -11 18 -14 75 -13 292 1 149 -2 280 -6 292 -4 12 -16 25
-27 28 -11 4 -26 17 -35 30 -12 18 -14 42 -9 120 4 60 2 109 -5 130 -6 19 -20
37 -31 40 -11 4 -26 17 -35 30 -12 18 -14 42 -9 120 4 60 2 109 -5 130 -6 19
-20 37 -31 40 -11 4 -27 17 -35 31 -13 18 -15 37 -9 79 4 34 2 69 -5 90 -6 19
-20 37 -31 40 -11 4 -27 17 -35 31 -13 18 -15 37 -9 79 4 34 2 69 -5 90 -6 19
-16 35 -21 35 -6 0 -21 11 -34 25 -19 18 -25 35 -25 70 0 34 -5 49 -22 63 -11
9 -30 25 -41 36 -17 16 -18 26 -13 78 5 36 3 73 -4 94 -6 19 -16 34 -21 34 -6
0 -21 11 -34 25 -19 18 -25 35 -25 70 0 34 -5 49 -22 63 -11 9 -29 25 -40 35
-12 11 -18 31 -18 62 0 34 -5 49 -22 63 -11 9 -29 25 -40 35 -12 11 -18 31
-18 62 0 34 -5 49 -22 63 -11 9 -47 43 -80 75 -54 53 -58 60 -58 102 0 34 -5
49 -22 63 -11 9 -47 43 -80 75 -54 53 -58 60 -58 102 0 34 -5 49 -22 63 -11 9
-65 61 -120 115 -95 94 -98 98 -98 142 0 34 -5 49 -22 63 -11 9 -200 195 -418
413 -391 390 -397 396 -444 402 -44 6 -55 14 -159 120 -105 107 -115 114 -160
120 -46 6 -55 14 -160 120 -106 107 -115 114 -161 120 -44 6 -55 14 -120 81
-66 68 -75 74 -123 81 -43 5 -56 12 -77 40 -21 27 -34 34 -80 39 -46 6 -58 12
-80 40 -21 28 -34 35 -80 40 -46 6 -58 12 -80 40 -21 28 -34 34 -78 40 -45 6
-58 13 -84 44 -31 36 -31 36 -118 37 -87 0 -87 0 -119 37 -26 30 -41 38 -82
43 -41 5 -56 13 -81 43 -31 36 -31 36 -118 37 -87 0 -87 0 -120 40 -33 39 -33
39 -120 40 -87 0 -87 0 -119 37 -32 37 -32 37 -162 42 -129 5 -129 5 -161 43
-31 37 -31 37 -118 38 -87 0 -87 0 -119 37 -32 37 -32 37 -202 42 -170 6 -170
6 -200 40 -30 35 -30 35 -319 39 -290 4 -290 4 -319 41 -29 36 -29 36 -6367
36z m2103 -4904 c2538 -1 2538 -1 2570 -38 32 -37 32 -37 241 -42 210 -5 210
-5 242 -42 31 -38 31 -38 118 -39 87 0 87 0 120 -40 33 -39 33 -39 119 -40 85
0 85 0 159 -76 66 -69 78 -77 121 -82 46 -6 53 -13 262 -222 215 -215 215
-215 215 -260 0 -34 5 -49 22 -63 11 -9 29 -25 40 -34 12 -12 18 -32 18 -63 0
-34 5 -49 22 -63 11 -9 30 -25 41 -36 17 -16 18 -26 13 -78 -4 -36 -3 -73 4
-93 6 -19 20 -37 31 -40 11 -4 26 -17 35 -30 12 -18 14 -42 9 -120 -4 -60 -2
-109 5 -130 6 -19 20 -37 31 -40 11 -4 26 -16 34 -28 12 -18 14 -124 14 -647
0 -523 -2 -629 -14 -647 -8 -12 -23 -24 -34 -28 -11 -3 -25 -21 -31 -40 -7
-21 -9 -70 -5 -130 5 -78 3 -102 -9 -120 -9 -13 -24 -26 -35 -30 -11 -3 -25
-21 -31 -40 -7 -21 -9 -56 -5 -90 6 -42 4 -61 -9 -79 -8 -14 -24 -27 -35 -31
-11 -3 -25 -21 -31 -40 -7 -20 -8 -57 -4 -93 6 -60 6 -60 -53 -118 -33 -33
-70 -67 -81 -76 -17 -14 -22 -29 -22 -63 0 -44 -2 -46 -135 -180 -128 -128
-137 -136 -182 -142 -43 -5 -55 -13 -119 -79 -65 -68 -76 -75 -120 -80 -40 -5
-55 -13 -81 -42 -32 -37 -32 -37 -119 -37 -87 -1 -87 -1 -118 -38 -32 -38 -32
-38 -161 -43 -130 -5 -130 -5 -161 -40 -30 -35 -30 -35 -240 -40 -209 -5 -209
-5 -241 -42 -32 -37 -32 -37 -2513 -37 -2436 0 -2482 0 -2496 19 -12 17 -14
367 -14 2366 0 1847 3 2350 13 2363 6 8 23 18 37 20 14 2 1167 4 2563 3z"/>
<path d="M29480 39690 c-7713 0 -8500 -1 -8514 -16 -9 -8 -16 -22 -16 -30 0
-8 0 -5049 0 -11204 0 -6154 0 -11196 0 -11204 0 -8 7 -22 16 -30 14 -15 812
-16 8634 -16 7822 0 8620 1 8634 16 9 8 16 23 16 32 0 9 0 1149 0 2533 0 1384
-3 2524 -6 2533 -3 9 -16 18 -28 21 -11 3 -2557 6 -5657 8 -5636 2 -5636 2
-5692 60 -57 58 -57 58 -57 1966 0 1620 2 1911 14 1927 14 19 102 19 5102 22
5088 2 5088 2 5131 47 23 25 47 45 52 45 5 0 12 7 15 16 4 9 6 1082 6 2384 0
1302 -2 2375 -6 2384 -3 9 -16 18 -28 21 -11 3 -2305 6 -5097 8 -5076 2 -5076
2 -5132 60 -57 57 -57 57 -57 1607 0 1550 0 1550 57 1607 56 58 56 58 5581 61
5526 2 5526 2 5569 47 23 25 47 45 52 45 5 0 12 7 15 16 4 9 6 1118 6 2464 0
1346 -2 2454 -5 2462 -3 9 -17 21 -31 28 -13 8 -36 29 -50 47 -25 33 -25 33
-8524 33z"/>
<path d="M62920 39690 c-2622 0 -2900 -2 -2914 -16 -9 -8 -16 -22 -16 -30 0
-8 0 -5049 0 -11204 0 -6154 0 -11196 0 -11204 0 -8 7 -22 16 -30 14 -14 292
-16 2914 -16 2899 0 2899 0 2924 33 14 18 37 39 50 47 14 7 27 19 31 27 3 9 5
2048 5 4532 0 3876 2 4520 14 4537 14 19 68 19 3656 19 3588 0 3642 0 3656
-19 12 -17 14 -665 14 -4565 0 -2500 0 -4554 0 -4563 0 -9 7 -24 16 -32 14
-14 292 -16 2914 -16 2899 0 2899 0 2924 33 14 18 37 39 50 47 14 7 27 19 31
27 3 8 5 5023 5 11143 0 6120 -2 11135 -5 11143 -4 8 -17 20 -31 27 -13 8 -36
29 -50 47 -25 33 -25 33 -2924 33 -2622 0 -2900 -2 -2914 -16 -9 -8 -16 -23
-16 -32 0 -9 0 -1829 0 -4043 0 -3451 -2 -4028 -14 -4045 -14 -19 -69 -19
-3656 -19 -3587 0 -3642 0 -3656 19 -12 17 -14 590 -14 4017 0 2198 -2 4003
-5 4011 -4 9 -17 21 -31 28 -13 8 -36 29 -50 47 -25 33 -25 33 -2924 33z"/>
<path d="M90920 39690 c-2819 0 -2819 0 -2844 -33 -14 -18 -37 -39 -51 -47
-13 -7 -29 -28 -35 -46 -7 -19 -8 -57 -4 -92 5 -52 4 -62 -13 -78 -11 -11 -30
-27 -41 -36 -17 -14 -22 -29 -22 -63 0 -35 -6 -52 -25 -70 -13 -14 -28 -25
-34 -25 -5 0 -15 -15 -21 -34 -7 -21 -9 -58 -4 -94 5 -52 4 -62 -13 -78 -11
-11 -30 -27 -41 -36 -17 -14 -22 -29 -22 -63 0 -35 -6 -52 -25 -70 -13 -14
-28 -25 -34 -25 -5 0 -15 -16 -21 -35 -7 -21 -9 -56 -5 -90 6 -42 4 -61 -9
-79 -8 -14 -24 -27 -35 -31 -11 -3 -25 -21 -31 -40 -7 -21 -9 -56 -5 -90 6
-42 4 -61 -9 -79 -8 -14 -24 -27 -35 -31 -11 -3 -25 -21 -31 -40 -7 -20 -8
-57 -4 -93 5 -52 4 -62 -13 -78 -11 -11 -30 -27 -41 -36 -17 -14 -22 -29 -22
-63 0 -35 -6 -52 -25 -70 -13 -14 -28 -25 -34 -25 -5 0 -15 -16 -21 -35 -7
-21 -9 -56 -5 -90 6 -42 4 -61 -9 -79 -8 -14 -24 -27 -35 -31 -11 -3 -25 -21
-31 -40 -7 -20 -8 -57 -4 -93 5 -52 4 -62 -13 -78 -11 -11 -30 -27 -41 -36
-17 -14 -22 -29 -22 -63 0 -35 -6 -52 -25 -70 -13 -14 -28 -25 -34 -25 -5 0
-15 -15 -21 -34 -7 -21 -9 -58 -4 -94 5 -52 4 -62 -13 -78 -11 -11 -30 -27
-41 -36 -17 -14 -22 -29 -22 -63 0 -35 -6 -52 -25 -70 -13 -14 -28 -25 -34
-25 -5 0 -15 -16 -21 -35 -7 -21 -9 -56 -5 -90 6 -42 4 -61 -9 -79 -8 -14 -24
-27 -35 -31 -11 -3 -25 -21 -31 -40 -7 -20 -8 -57 -4 -93 5 -52 4 -62 -13 -78
-11 -11 -30 -27 -41 -36 -17 -14 -22 -29 -22 -63 0 -35 -6 -52 -25 -70 -13
-14 -28 -25 -34 -25 -5 0 -15 -16 -21 -35 -7 -21 -9 -56 -5 -90 6 -42 4 -61
-9 -79 -8 -14 -24 -27 -35 -31 -11 -3 -25 -21 -31 -40 -7 -21 -9 -56 -5 -90 6
-42 4 -61 -9 -79 -8 -14 -24 -27 -35 -31 -11 -3 -25 -21 -31 -40 -7 -20 -8
-57 -4 -93 5 -52 4 -62 -13 -78 -11 -11 -30 -27 -41 -36 -17 -14 -22 -29 -22
-63 0 -35 -6 -52 -25 -70 -13 -14 -28 -25 -34 -25 -5 0 -15 -15 -21 -34 -7
-21 -9 -58 -4 -94 5 -52 4 -62 -13 -78 -11 -11 -30 -27 -41 -36 -17 -14 -22
-29 -22 -63 0 -35 -6 -52 -25 -70 -13 -14 -28 -25 -34 -25 -5 0 -15 -15 -21
-34 -7 -21 -9 -58 -4 -94 5 -52 4 -62 -13 -78 -11 -11 -30 -27 -41 -36 -17
-14 -22 -29 -22 -63 0 -35 -6 -52 -25 -70 -13 -14 -28 -25 -34 -25 -5 0 -15
-16 -21 -35 -7 -21 -9 -56 -5 -90 6 -42 4 -61 -9 -79 -8 -14 -24 -27 -35 -31
-11 -3 -25 -21 -31 -40 -7 -20 -8 -57 -4 -93 5 -52 4 -62 -13 -78 -11 -11 -30
-27 -41 -36 -17 -14 -22 -29 -22 -63 0 -35 -6 -52 -25 -70 -13 -14 -28 -25
-34 -25 -5 0 -15 -16 -21 -35 -7 -21 -9 -56 -5 -90 6 -42 4 -61 -9 -79 -8 -14
-24 -27 -35 -31 -11 -3 -25 -21 -31 -40 -7 -21 -9 -56 -5 -90 6 -42 4 -61 -9
-79 -8 -14 -24 -27 -35 -31 -11 -3 -25 -21 -31 -40 -7 -20 -8 -57 -4 -93 5
-52 4 -62 -13 -78 -11 -11 -30 -27 -41 -36 -17 -14 -22 -29 -22 -63 0 -35 -6
-52 -25 -70 -13 -14 -28 -25 -34 -25 -5 0 -15 -15 -21 -34 -7 -21 -9 -58 -4
-94 5 -52 4 -62 -13 -78 -11 -11 -30 -27 -41 -36 -17 -14 -22 -29 -22 -63 0
-35 -6 -52 -25 -70 -13 -14 -28 -25 -34 -25 -5 0 -15 -15 -21 -34 -7 -21 -9
-58 -4 -94 5 -52 4 -62 -13 -78 -11 -11 -30 -27 -41 -36 -17 -14 -22 -29 -22
-63 0 -35 -6 -52 -25 -70 -13 -14 -28 -25 -34 -25 -5 0 -15 -16 -21 -35 -7
-21 -9 -56 -5 -90 6 -42 4 -61 -9 -79 -8 -14 -24 -27 -35 -31 -11 -3 -25 -21
-31 -40 -7 -21 -9 -56 -5 -90 6 -42 4 -61 -9 -79 -8 -14 -24 -27 -35 -31 -11
-3 -25 -21 -31 -40 -7 -20 -8 -57 -4 -93 5 -52 4 -62 -13 -78 -11 -11 -30 -27
-41 -36 -17 -14 -22 -29 -22 -63 0 -35 -6 -52 -25 -70 -13 -14 -28 -25 -34
-25 -5 0 -15 -16 -21 -35 -7 -21 -9 -56 -5 -90 6 -42 4 -61 -9 -79 -8 -14 -24
-27 -35 -31 -11 -3 -25 -21 -31 -40 -7 -20 -8 -57 -4 -93 5 -52 4 -62 -13 -78
-11 -11 -30 -27 -41 -36 -17 -14 -22 -29 -22 -63 0 -35 -6 -52 -25 -70 -13
-14 -28 -25 -34 -25 -5 0 -15 -15 -21 -34 -7 -21 -9 -58 -4 -94 5 -52 4 -62
-13 -78 -11 -11 -30 -27 -41 -36 -17 -14 -22 -29 -22 -63 0 -35 -6 -52 -25
-70 -13 -14 -28 -25 -34 -25 -5 0 -15 -16 -21 -35 -7 -21 -9 -56 -5 -90 6 -42
4 -61 -9 -79 -8 -14 -24 -27 -35 -31 -11 -3 -25 -21 -31 -40 -7 -20 -8 -57 -4
-93 5 -52 4 -62 -13 -78 -11 -11 -30 -27 -41 -36 -17 -14 -22 -29 -22 -63 0
-35 -6 -52 -25 -70 -13 -14 -28 -25 -34 -25 -5 0 -15 -16 -21 -35 -7 -21 -9
-56 -5 -90 6 -42 4 -61 -9 -79 -8 -14 -24 -27 -35 -31 -11 -3 -25 -21 -31 -40
-7 -21 -9 -56 -5 -90 6 -42 4 -61 -9 -79 -8 -14 -24 -27 -35 -31 -11 -3 -25
-21 -31 -40 -7 -20 -8 -57 -4 -93 5 -52 4 -62 -13 -78 -11 -11 -30 -27 -41
-36 -17 -14 -22 -29 -22 -63 0 -35 -6 -52 -25 -70 -13 -14 -28 -25 -34 -25 -5
0 -15 -15 -21 -34 -7 -21 -9 -58 -4 -94 5 -52 4 -62 -13 -78 -11 -11 -30 -27
-41 -36 -17 -14 -22 -29 -22 -63 0 -35 -6 -52 -25 -70 -13 -14 -28 -25 -34
-25 -5 0 -15 -15 -21 -34 -7 -21 -9 -58 -4 -94 5 -52 4 -62 -13 -78 -11 -11
-30 -27 -41 -36 -17 -14 -22 -29 -22 -63 0 -35 -6 -52 -25 -70 -13 -14 -28
-25 -34 -25 -5 0 -15 -16 -21 -35 -7 -21 -9 -56 -5 -90 6 -42 4 -61 -9 -79 -8
-14 -24 -27 -35 -31 -11 -3 -25 -21 -31 -40 -7 -21 -9 -56 -5 -90 6 -42 4 -61
-9 -79 -8 -14 -24 -27 -35 -31 -11 -3 -25 -21 -31 -40 -7 -21 -9 -56 -5 -90 6
-42 4 -61 -9 -79 -8 -14 -24 -27 -35 -31 -11 -3 -25 -21 -31 -40 -7 -20 -8
-57 -4 -93 5 -52 4 -62 -13 -78 -11 -11 -30 -27 -41 -36 -17 -14 -22 -29 -22
-63 0 -35 -6 -52 -25 -70 -13 -14 -28 -25 -34 -25 -5 0 -15 -15 -21 -34 -7
-21 -9 -58 -4 -94 5 -52 4 -62 -13 -78 -11 -11 -30 -27 -41 -36 -17 -14 -22
-29 -22 -63 0 -35 -6 -52 -25 -70 -13 -14 -28 -25 -34 -25 -5 0 -15 -15 -21
-34 -7 -21 -9 -58 -4 -94 5 -52 4 -62 -13 -78 -11 -11 -30 -27 -41 -36 -17
-14 -22 -29 -22 -63 0 -35 -6 -52 -25 -70 -13 -14 -28 -25 -34 -25 -5 0 -15
-16 -21 -35 -7 -21 -9 -56 -5 -90 6 -42 4 -61 -9 -79 -8 -14 -24 -27 -35 -31
-11 -3 -25 -21 -31 -40 -7 -20 -8 -57 -4 -93 5 -52 4 -62 -13 -78 -11 -11 -30
-27 -41 -36 -17 -14 -22 -29 -22 -63 0 -35 -6 -52 -25 -70 -13 -14 -28 -25
-34 -25 -5 0 -15 -16 -21 -35 -7 -21 -9 -56 -5 -90 6 -42 4 -61 -9 -79 -8 -14
-24 -27 -35 -31 -11 -3 -25 -21 -31 -40 -7 -20 -8 -57 -4 -93 5 -52 4 -62 -13
-78 -11 -11 -30 -27 -41 -36 -17 -14 -22 -29 -22 -63 0 -35 -6 -52 -25 -70
-13 -14 -28 -25 -34 -25 -5 0 -15 -15 -21 -34 -7 -21 -9 -58 -4 -94 5 -52 4
-62 -13 -78 -11 -11 -30 -27 -41 -36 -17 -14 -22 -29 -22 -63 0 -35 -6 -52
-25 -70 -13 -14 -28 -25 -34 -25 -5 0 -15 -16 -21 -35 -7 -21 -9 -56 -5 -90 6
-42 4 -61 -9 -79 -8 -14 -24 -27 -35 -31 -11 -3 -25 -21 -31 -40 -7 -20 -8
-57 -4 -93 5 -52 4 -62 -13 -78 -11 -11 -30 -27 -41 -36 -17 -14 -22 -29 -22
-63 0 -35 -6 -52 -25 -70 -13 -14 -28 -25 -34 -25 -5 0 -15 -16 -21 -35 -7
-21 -9 -56 -5 -90 6 -42 4 -61 -9 -79 -8 -14 -24 -27 -35 -31 -11 -3 -25 -21
-31 -40 -7 -20 -8 -57 -4 -93 5 -52 4 -62 -13 -78 -11 -11 -30 -27 -41 -36
-17 -14 -22 -29 -22 -63 0 -35 -6 -52 -25 -70 -13 -14 -28 -25 -34 -25 -5 0
-15 -16 -21 -35 -7 -21 -9 -56 -5 -90 6 -42 4 -61 -9 -79 -8 -14 -24 -27 -35
-31 -11 -3 -25 -21 -31 -40 -7 -20 -8 -57 -4 -93 5 -52 4 -62 -13 -78 -11 -11
-30 -27 -41 -36 -17 -14 -22 -29 -22 -63 0 -35 -6 -52 -25 -70 -13 -14 -28
-25 -34 -25 -5 0 -15 -15 -21 -34 -7 -21 -9 -58 -4 -94 5 -52 4 -62 -13 -78
-11 -11 -30 -27 -41 -36 -17 -14 -22 -29 -22 -63 0 -35 -6 -52 -25 -70 -13
-14 -28 -25 -34 -25 -5 0 -15 -16 -21 -35 -7 -21 -9 -56 -5 -90 6 -42 4 -61
-9 -79 -8 -14 -24 -27 -35 -31 -11 -3 -25 -21 -31 -40 -7 -21 -9 -56 -5 -90 6
-42 4 -61 -9 -79 -8 -14 -24 -27 -35 -31 -11 -3 -25 -21 -31 -40 -7 -20 -8
-57 -4 -93 5 -52 4 -62 -13 -78 -11 -11 -30 -27 -41 -36 -17 -14 -22 -29 -22
-63 0 -35 -6 -52 -25 -70 -13 -14 -28 -25 -34 -25 -5 0 -15 -16 -21 -35 -7
-21 -9 -56 -5 -90 6 -42 4 -61 -9 -79 -8 -14 -24 -27 -35 -31 -11 -3 -25 -21
-31 -40 -7 -20 -8 -57 -4 -93 5 -52 4 -62 -13 -78 -11 -11 -30 -27 -41 -36
-17 -14 -22 -29 -22 -63 0 -35 -6 -52 -25 -70 -13 -14 -28 -25 -34 -25 -5 0
-15 -15 -21 -34 -7 -21 -9 -58 -4 -94 5 -52 4 -62 -13 -78 -11 -11 -30 -27
-41 -36 -17 -14 -22 -29 -22 -63 0 -35 -6 -52 -25 -70 -13 -14 -28 -25 -34
-25 -5 0 -15 -16 -21 -35 -7 -21 -9 -56 -5 -90 6 -42 4 -61 -9 -79 -8 -14 -24
-27 -35 -31 -11 -3 -25 -21 -31 -40 -7 -20 -8 -57 -4 -93 5 -52 4 -62 -13 -78
-11 -11 -30 -27 -41 -36 -17 -14 -22 -29 -22 -63 0 -35 -6 -52 -25 -70 -13
-14 -28 -25 -34 -25 -5 0 -15 -16 -21 -35 -7 -21 -9 -56 -5 -90 6 -42 4 -61
-9 -79 -8 -14 -24 -27 -35 -31 -11 -3 -25 -21 -31 -40 -7 -20 -8 -57 -4 -93 5
-52 4 -62 -13 -78 -11 -11 -30 -27 -41 -36 -17 -14 -22 -29 -22 -63 0 -35 -6
-52 -25 -70 -13 -14 -28 -25 -34 -25 -5 0 -15 -16 -21 -35 -7 -21 -9 -56 -5
-90 6 -42 4 -61 -9 -79 -8 -14 -24 -27 -35 -31 -11 -3 -25 -21 -31 -40 -7 -20
-8 -57 -4 -93 5 -52 4 -62 -13 -78 -11 -11 -30 -27 -41 -36 -17 -14 -22 -29
-22 -63 0 -35 -6 -52 -25 -70 -13 -14 -28 -25 -34 -25 -5 0 -15 -15 -21 -34
-7 -21 -9 -58 -4 -94 5 -52 4 -62 -13 -78 -11 -11 -30 -27 -41 -36 -17 -14
-22 -29 -22 -63 0 -35 -6 -52 -25 -70 -13 -14 -28 -25 -34 -25 -5 0 -15 -16
-21 -35 -7 -21 -9 -56 -5 -90 6 -42 4 -61 -9 -79 -8 -14 -24 -27 -35 -31 -11
-3 -25 -21 -31 -40 -7 -21 -8 -57 -4 -94 7 -61 7 -61 -37 -101 -41 -37 -44
-44 -44 -89 0 -34 6 -55 19 -70 19 -21 19 -21 2997 -21 2694 0 2979 1 2993 16
10 9 16 33 16 60 0 34 6 51 25 69 13 14 28 25 34 25 5 0 15 15 21 34 7 21 9
58 4 94 -5 52 -4 62 13 78 11 11 30 27 41 36 17 14 22 29 22 63 0 35 6 52 25
70 13 14 28 25 34 25 5 0 15 16 21 35 7 21 9 56 5 90 -6 42 -4 61 9 79 8 14
24 27 35 31 11 3 25 21 31 40 7 21 9 56 5 90 -6 42 -4 61 9 79 8 14 24 27 35
31 11 3 25 21 31 40 7 21 9 56 5 90 -6 42 -4 61 9 79 8 14 24 27 35 31 11 3
25 21 31 40 7 21 9 56 5 90 -6 42 -4 61 9 79 8 14 24 27 35 31 11 3 25 21 31
40 7 20 8 57 4 93 -5 52 -4 62 13 78 11 11 30 27 41 36 17 14 22 29 22 63 0
35 6 52 25 70 13 14 28 25 34 25 5 0 15 16 21 35 7 21 9 56 5 90 -6 42 -4 61
9 79 8 14 24 27 35 31 11 3 25 21 31 40 7 21 9 56 5 90 -6 42 -4 61 9 79 8 14
24 27 35 31 11 3 25 21 31 40 7 21 9 56 5 90 -6 42 -4 61 9 79 8 14 24 27 35
31 11 3 25 21 31 40 7 20 8 57 4 93 -5 52 -4 62 13 78 11 11 30 27 41 36 17
14 22 29 22 63 0 35 6 52 25 70 13 14 28 25 34 25 5 0 15 16 21 35 7 21 9 56
5 90 -6 42 -4 61 9 79 8 14 24 27 35 31 11 3 25 21 31 40 7 21 9 56 5 90 -6
42 -4 61 9 79 8 14 24 27 35 31 11 3 25 21 31 40 7 21 9 56 5 90 -6 42 -4 61
9 79 8 14 24 27 35 31 11 3 25 21 31 40 7 21 9 56 5 90 -6 42 -4 61 9 79 8 14
24 27 35 31 11 3 25 21 31 40 7 21 9 56 5 90 -6 42 -4 61 9 79 8 14 24 27 35
31 11 3 25 21 31 40 7 21 9 56 5 90 -6 42 -4 61 9 79 8 14 24 27 35 31 11 3
25 21 31 40 7 20 9 58 5 92 -5 44 -3 63 8 78 15 20 27 20 3577 20 3514 0 3562
0 3576 -19 8 -11 14 -39 14 -63 0 -32 6 -48 22 -61 11 -9 30 -25 41 -36 17
-16 18 -26 13 -78 -4 -36 -3 -73 4 -93 6 -19 20 -37 31 -40 11 -4 26 -17 35
-30 12 -18 14 -42 9 -120 -4 -61 -2 -109 5 -131 6 -19 16 -34 21 -34 6 0 21
-11 34 -25 19 -18 25 -35 25 -70 0 -34 5 -49 22 -63 11 -9 30 -25 40 -35 17
-16 18 -28 13 -118 -4 -64 -2 -113 5 -135 6 -19 16 -34 21 -34 6 0 21 -11 34
-25 19 -18 25 -35 25 -70 0 -34 5 -49 22 -63 11 -9 30 -25 41 -36 17 -16 18
-26 13 -78 -4 -36 -3 -73 4 -93 6 -19 20 -37 31 -40 11 -4 27 -17 35 -31 13
-18 15 -37 9 -79 -4 -34 -2 -69 5 -90 6 -19 20 -37 31 -40 11 -4 27 -17 35
-31 13 -18 15 -37 9 -79 -4 -34 -2 -69 5 -90 6 -19 20 -37 31 -40 11 -4 27
-17 35 -31 13 -18 15 -37 9 -79 -4 -34 -2 -69 5 -90 6 -19 20 -37 31 -40 11
-4 27 -17 35 -31 13 -18 15 -37 9 -79 -4 -34 -2 -69 5 -90 6 -19 20 -37 31
-40 11 -4 27 -17 35 -31 13 -18 15 -37 9 -79 -4 -34 -2 -69 5 -90 6 -19 20
-37 31 -40 11 -4 27 -17 35 -31 13 -18 15 -37 9 -79 -4 -34 -2 -69 5 -90 6
-19 20 -37 31 -40 11 -4 27 -17 35 -31 13 -18 15 -37 9 -79 -4 -34 -2 -69 5
-90 6 -19 20 -37 31 -40 11 -4 27 -17 35 -31 13 -18 15 -37 9 -79 -4 -34 -2
-69 5 -90 6 -19 20 -37 31 -40 11 -4 27 -17 35 -31 13 -18 15 -37 9 -79 -4
-34 -2 -69 5 -90 6 -19 20 -37 31 -40 11 -4 27 -17 35 -31 13 -18 15 -37 9
-79 -4 -34 -2 -69 5 -90 6 -19 20 -37 31 -40 11 -4 27 -17 35 -31 13 -18 15
-37 9 -79 -4 -34 -2 -69 5 -90 6 -19 20 -37 31 -40 11 -4 27 -17 35 -31 13
-18 15 -37 9 -79 -4 -34 -2 -69 5 -90 6 -19 20 -37 31 -40 11 -4 27 -17 35
-31 12 -18 14 -37 9 -81 -4 -36 -2 -70 5 -88 6 -16 17 -33 23 -37 7 -4 1387
-8 3067 -8 1680 0 3060 4 3067 8 6 4 17 20 22 35 6 16 11 54 11 86 0 32 -5 72
-11 89 -6 17 -19 34 -30 37 -11 4 -27 17 -35 31 -13 18 -15 37 -9 79 4 34 2
69 -5 90 -6 19 -16 35 -21 35 -6 0 -21 11 -34 25 -19 18 -25 35 -25 70 0 34
-5 49 -22 63 -11 9 -30 25 -41 36 -17 16 -18 26 -13 78 4 36 3 73 -4 93 -6 19
-20 37 -31 40 -11 4 -27 17 -35 31 -13 18 -15 37 -9 79 4 34 2 69 -5 90 -6 19
-20 37 -31 40 -11 4 -27 17 -35 31 -13 18 -15 37 -9 79 4 34 2 69 -5 90 -6 19
-16 35 -21 35 -6 0 -21 11 -34 25 -19 18 -25 35 -25 70 0 34 -5 49 -22 63 -11
9 -30 25 -41 36 -17 16 -18 26 -13 78 4 36 3 73 -4 93 -6 19 -20 37 -31 40
-11 4 -27 17 -35 31 -13 18 -15 37 -9 79 4 34 2 69 -5 90 -6 19 -16 35 -21 35
-6 0 -21 11 -34 25 -19 18 -25 35 -25 70 0 34 -5 49 -22 63 -11 9 -30 25 -41
36 -17 16 -18 26 -13 78 5 36 3 73 -4 94 -6 19 -16 34 -21 34 -6 0 -21 11 -34
25 -19 18 -25 35 -25 70 0 34 -5 49 -22 63 -11 9 -30 25 -41 36 -17 16 -18 26
-13 78 4 36 3 73 -4 93 -6 19 -20 37 -31 40 -11 4 -27 17 -35 31 -13 18 -15
37 -9 79 4 34 2 69 -5 90 -6 19 -20 37 -31 40 -11 4 -27 17 -35 31 -13 18 -15
37 -9 79 4 34 2 69 -5 90 -6 19 -16 35 -21 35 -6 0 -21 11 -34 25 -19 18 -25
35 -25 70 0 34 -5 49 -22 63 -11 9 -30 25 -41 36 -17 16 -18 26 -13 78 4 36 3
73 -4 93 -6 19 -20 37 -31 40 -11 4 -27 17 -35 31 -13 18 -15 37 -9 79 4 34 2
69 -5 90 -6 19 -16 35 -21 35 -6 0 -21 11 -34 25 -19 18 -25 35 -25 70 0 34
-5 49 -22 63 -11 9 -30 25 -41 36 -17 16 -18 26 -13 78 5 36 3 73 -4 94 -6 19
-16 34 -21 34 -6 0 -21 11 -34 25 -19 18 -25 35 -25 70 0 34 -5 49 -22 63 -11
9 -30 25 -41 36 -17 16 -18 26 -13 78 4 36 3 73 -4 93 -6 19 -20 37 -31 40
-11 4 -27 17 -35 31 -13 18 -15 37 -9 79 4 34 2 69 -5 90 -6 19 -20 37 -31 40
-11 4 -27 17 -35 31 -13 18 -15 37 -9 79 4 34 2 69 -5 90 -6 19 -16 35 -21 35
-6 0 -21 11 -34 25 -19 18 -25 35 -25 70 0 34 -5 49 -22 63 -11 9 -30 25 -41
36 -17 16 -18 26 -13 78 4 36 3 73 -4 93 -6 19 -20 37 -31 40 -11 4 -27 17
-35 31 -13 18 -15 37 -9 79 4 34 2 69 -5 90 -6 19 -16 35 -21 35 -6 0 -21 11
-34 25 -19 18 -25 35 -25 70 0 34 -5 49 -22 63 -11 9 -30 25 -41 36 -17 16
-18 26 -13 78 5 36 3 73 -4 94 -6 19 -16 34 -21 34 -6 0 -21 11 -34 25 -19 18
-25 35 -25 70 0 34 -5 49 -22 63 -11 9 -30 25 -41 36 -17 16 -18 26 -13 78 4
36 3 73 -4 93 -6 19 -20 37 -31 40 -11 4 -27 17 -35 31 -13 18 -15 37 -9 79 4
34 2 69 -5 90 -6 19 -20 37 -31 40 -11 4 -27 17 -35 31 -13 18 -15 37 -9 79 4
34 2 69 -5 90 -6 19 -16 35 -21 35 -6 0 -21 11 -34 25 -19 18 -25 35 -25 70 0
34 -5 49 -22 63 -11 9 -30 25 -41 36 -17 16 -18 26 -13 78 4 36 3 73 -4 93 -6
19 -20 37 -31 40 -11 4 -27 17 -35 31 -13 18 -15 37 -9 79 4 34 2 69 -5 90 -6
19 -20 37 -31 40 -11 4 -27 17 -35 31 -13 18 -15 37 -9 79 4 34 2 69 -5 90 -6
19 -16 35 -21 35 -6 0 -21 11 -34 25 -19 18 -25 35 -25 70 0 34 -5 49 -22 63
-11 9 -30 25 -41 36 -17 16 -18 26 -13 78 5 36 3 73 -4 94 -6 19 -16 34 -21
34 -6 0 -21 11 -34 25 -19 18 -25 35 -25 70 0 34 -5 49 -22 63 -11 9 -30 25
-41 36 -17 16 -18 26 -13 78 4 36 3 73 -4 93 -6 19 -20 37 -31 40 -11 4 -27
17 -35 31 -13 18 -15 37 -9 79 4 34 2 69 -5 90 -6 19 -20 37 -31 40 -11 4 -27
17 -35 31 -13 18 -15 37 -9 79 4 34 2 69 -5 90 -6 19 -16 35 -21 35 -6 0 -21
11 -34 25 -19 18 -25 35 -25 70 0 34 -5 49 -22 63 -11 9 -30 25 -41 36 -17 16
-18 26 -13 78 4 36 3 73 -4 93 -6 19 -20 37 -31 40 -11 4 -27 17 -35 31 -13
18 -15 37 -9 79 4 34 2 69 -5 90 -6 19 -20 37 -31 40 -11 4 -27 17 -35 31 -13
18 -15 37 -9 79 4 34 2 69 -5 90 -6 19 -16 35 -21 35 -6 0 -21 11 -34 25 -19
18 -25 35 -25 70 0 34 -5 49 -22 63 -11 9 -30 25 -41 36 -17 16 -18 26 -13 78
5 36 3 73 -4 94 -6 19 -16 34 -21 34 -6 0 -21 11 -34 25 -19 18 -25 35 -25 70
0 34 -5 49 -22 63 -11 9 -30 25 -41 36 -17 16 -18 26 -13 78 4 36 3 73 -4 93
-6 19 -20 37 -31 40 -11 4 -27 17 -35 31 -13 18 -15 37 -9 79 4 34 2 69 -5 90
-6 19 -16 35 -21 35 -6 0 -21 11 -34 25 -19 18 -25 35 -25 70 0 34 -5 49 -22
63 -11 9 -30 25 -41 36 -17 16 -18 26 -13 78 4 36 3 73 -4 93 -6 19 -20 37
-31 40 -11 4 -27 17 -35 31 -13 18 -15 37 -9 79 4 34 2 69 -5 90 -6 19 -20 37
-31 40 -11 4 -27 17 -35 31 -13 18 -15 37 -9 79 4 34 2 69 -5 90 -6 19 -16 35
-21 35 -6 0 -21 11 -34 25 -19 18 -25 35 -25 70 0 34 -5 49 -22 63 -11 9 -30
25 -41 36 -17 16 -18 26 -13 78 5 36 3 73 -4 94 -6 19 -16 34 -21 34 -6 0 -21
11 -34 25 -19 18 -25 35 -25 70 0 34 -5 49 -22 63 -11 9 -30 25 -41 36 -17 16
-18 26 -13 78 4 36 3 73 -4 93 -6 19 -20 37 -31 40 -11 4 -27 17 -35 31 -13
18 -15 37 -9 79 4 34 2 69 -5 90 -6 19 -16 35 -21 35 -6 0 -21 11 -34 25 -19
18 -25 35 -25 70 0 34 -5 49 -22 63 -11 9 -30 25 -41 36 -17 16 -18 26 -13 78
4 36 3 73 -4 93 -6 19 -20 37 -31 40 -11 4 -27 17 -35 31 -13 18 -15 37 -9 79
4 34 2 69 -5 90 -6 19 -20 37 -31 40 -11 4 -27 17 -35 31 -13 18 -15 37 -9 79
4 34 2 69 -5 90 -6 19 -16 35 -21 35 -6 0 -21 11 -34 25 -19 18 -25 35 -25 70
0 34 -5 49 -22 63 -11 9 -30 25 -41 36 -17 16 -18 26 -13 78 4 36 3 73 -4 93
-6 19 -20 37 -31 40 -11 4 -27 17 -35 31 -13 18 -15 37 -9 79 4 34 2 69 -5 90
-6 19 -16 35 -21 35 -6 0 -21 11 -34 25 -19 18 -25 35 -25 70 0 34 -5 49 -22
63 -11 9 -30 25 -41 36 -17 16 -18 26 -13 78 5 36 3 73 -4 94 -6 19 -16 34
-21 34 -6 0 -21 11 -34 25 -19 18 -25 35 -25 70 0 34 -5 49 -22 63 -11 9 -30
25 -41 36 -17 16 -18 26 -13 78 4 36 3 73 -4 93 -6 19 -20 37 -31 40 -11 4
-27 17 -35 31 -13 18 -15 37 -9 79 4 34 2 69 -5 90 -6 19 -20 37 -31 40 -11 4
-27 17 -35 31 -13 18 -15 37 -9 79 4 34 2 69 -5 90 -6 19 -16 35 -21 35 -6 0
-21 11 -34 25 -19 18 -25 35 -25 70 0 34 -5 49 -22 63 -11 9 -30 25 -41 36
-17 16 -18 26 -13 78 4 36 3 73 -4 93 -6 19 -20 37 -31 40 -11 4 -27 17 -35
31 -13 18 -15 37 -9 79 4 34 2 69 -5 90 -6 19 -16 35 -21 35 -6 0 -21 11 -34
25 -19 18 -25 35 -25 70 0 34 -5 49 -22 63 -11 9 -30 25 -41 36 -17 16 -18 26
-13 78 4 36 3 73 -4 93 -6 19 -20 37 -31 40 -11 4 -27 17 -35 31 -13 18 -15
37 -9 79 4 34 2 69 -5 90 -6 19 -16 35 -21 35 -6 0 -21 11 -34 25 -19 18 -25
35 -25 70 0 34 -5 49 -22 63 -11 9 -30 25 -41 36 -17 16 -18 26 -13 78 4 36 3
73 -4 93 -6 19 -20 37 -31 40 -11 4 -27 17 -35 31 -13 18 -15 37 -9 79 4 34 2
69 -5 90 -6 19 -20 37 -31 40 -11 4 -27 17 -35 31 -13 18 -15 37 -9 79 4 34 2
69 -5 90 -6 19 -16 35 -21 35 -6 0 -21 11 -34 25 -19 18 -25 35 -25 70 0 34
-5 49 -22 63 -11 9 -30 25 -41 36 -17 16 -18 26 -13 78 4 36 3 73 -4 93 -6 19
-20 37 -31 40 -11 4 -27 17 -35 31 -13 18 -15 37 -9 79 4 34 2 69 -5 90 -6 19
-16 35 -21 35 -6 0 -21 11 -34 25 -19 18 -25 35 -25 70 0 34 -5 49 -22 63 -11
9 -30 25 -41 36 -17 16 -18 26 -13 78 4 36 3 73 -4 93 -6 19 -20 37 -31 40
-11 4 -27 17 -35 31 -13 18 -15 37 -9 79 4 34 2 69 -5 90 -6 19 -16 35 -21 35
-6 0 -21 11 -34 25 -19 18 -25 35 -25 70 0 34 -5 49 -22 63 -11 9 -30 25 -41
36 -17 16 -18 26 -13 78 4 36 3 73 -4 93 -6 19 -20 37 -31 40 -11 4 -27 17
-35 31 -13 18 -15 37 -9 79 4 34 2 69 -5 90 -6 19 -16 35 -21 35 -6 0 -21 11
-34 25 -19 18 -25 35 -25 70 0 34 -5 49 -22 63 -11 9 -30 25 -41 36 -17 16
-18 26 -13 78 4 36 3 73 -4 93 -6 19 -20 37 -31 40 -11 4 -27 17 -35 31 -13
18 -15 37 -9 79 4 34 2 69 -5 90 -6 19 -16 35 -21 35 -6 0 -21 11 -34 25 -19
18 -25 35 -25 70 0 34 -5 49 -22 63 -11 9 -30 25 -41 36 -17 16 -18 26 -13 78
5 36 3 73 -4 94 -6 19 -16 34 -21 34 -6 0 -21 11 -34 25 -19 18 -25 35 -25 70
0 34 -5 49 -22 63 -11 9 -30 25 -41 36 -17 16 -18 26 -13 78 4 36 3 73 -4 93
-6 19 -20 37 -31 40 -11 4 -27 17 -35 31 -13 18 -15 37 -9 79 4 34 2 69 -5 90
-6 19 -20 37 -31 40 -11 4 -27 17 -35 31 -13 18 -15 37 -9 79 4 34 2 69 -5 90
-6 19 -16 35 -21 35 -6 0 -21 11 -34 25 -19 18 -25 35 -25 70 0 34 -5 49 -22
63 -11 9 -30 25 -41 36 -17 16 -18 26 -13 78 5 36 3 73 -4 94 -6 19 -16 34
-21 34 -6 0 -21 11 -34 25 -19 18 -25 35 -25 69 0 27 -6 51 -16 60 -14 14
-285 16 -2834 16z m-80 -7631 c3 0 12 -4 20 -9 11 -7 14 -23 11 -62 -2 -29 -4
-70 -4 -92 -1 -30 5 -43 24 -57 13 -10 32 -25 42 -33 11 -11 17 -31 17 -61 0
-34 5 -49 22 -63 11 -9 30 -25 41 -36 17 -16 18 -26 13 -78 -4 -36 -3 -73 4
-93 6 -19 20 -37 31 -40 11 -4 27 -17 35 -31 13 -18 15 -37 9 -79 -4 -34 -2
-69 5 -90 6 -19 20 -37 31 -40 11 -4 27 -17 35 -31 13 -18 15 -37 9 -79 -4
-34 -2 -69 5 -90 6 -19 20 -37 31 -40 11 -4 27 -17 35 -31 13 -18 15 -37 9
-79 -4 -34 -2 -69 5 -90 6 -19 20 -37 31 -40 11 -4 27 -17 35 -31 13 -18 15
-37 9 -79 -4 -34 -2 -69 5 -90 6 -19 20 -37 31 -40 11 -4 27 -17 35 -31 13
-18 15 -37 9 -79 -4 -34 -2 -69 5 -90 6 -19 20 -37 31 -40 11 -4 27 -17 35
-31 13 -18 15 -37 9 -79 -4 -34 -2 -69 5 -90 6 -19 20 -37 31 -40 11 -4 27
-17 35 -31 13 -18 15 -37 9 -79 -4 -34 -2 -69 5 -90 6 -19 20 -37 31 -40 11
-4 27 -17 35 -31 13 -18 15 -37 9 -79 -4 -34 -2 -69 5 -90 6 -19 16 -35 21
-35 6 0 21 -11 34 -25 19 -18 25 -35 25 -70 0 -34 5 -49 22 -63 11 -9 30 -25
41 -36 17 -16 18 -26 13 -78 -4 -36 -3 -73 4 -93 6 -19 20 -37 31 -40 11 -4
27 -17 35 -31 13 -18 15 -37 9 -79 -4 -34 -2 -69 5 -90 6 -19 20 -37 31 -40
11 -4 27 -17 35 -31 13 -18 15 -37 9 -79 -4 -34 -2 -69 5 -90 6 -19 20 -37 31
-40 11 -4 27 -17 35 -31 13 -18 15 -37 9 -79 -4 -34 -2 -69 5 -90 6 -19 20
-37 31 -40 11 -4 27 -17 35 -31 13 -18 15 -37 9 -79 -4 -34 -2 -69 5 -90 6
-19 20 -37 31 -40 11 -4 27 -17 35 -31 13 -18 15 -37 9 -79 -4 -34 -2 -69 5
-90 6 -19 20 -37 31 -40 11 -4 27 -17 35 -31 13 -18 15 -37 9 -79 -4 -34 -2
-69 5 -90 6 -19 20 -37 31 -40 11 -4 27 -17 35 -31 13 -18 15 -37 9 -79 -4
-34 -2 -69 5 -90 6 -19 16 -35 21 -35 6 0 21 -11 34 -25 19 -18 25 -35 25 -70
0 -34 5 -49 22 -63 11 -9 30 -25 41 -36 17 -16 18 -26 13 -78 -4 -36 -3 -73 4
-93 6 -19 20 -37 31 -40 11 -4 27 -17 35 -31 13 -18 15 -37 9 -79 -4 -34 -2
-69 5 -90 7 -22 23 -41 41 -50 16 -9 32 -27 35 -42 4 -14 3 -38 -2 -52 -9 -25
-14 -26 -104 -32 -52 -4 -901 -7 -1887 -8 -1480 0 -1793 2 -1802 13 -6 7 -9
20 -6 27 3 8 19 22 35 31 24 14 30 24 30 52 0 19 4 46 10 60 5 15 21 31 35 38
14 6 29 25 35 44 7 20 9 56 5 89 -6 42 -4 61 9 79 8 14 24 27 35 31 11 3 25
21 31 40 7 21 9 56 5 90 -6 42 -4 61 9 79 8 14 24 27 35 31 11 3 25 21 31 40
7 21 9 56 5 90 -6 42 -4 61 9 79 8 14 24 27 35 31 11 3 25 21 31 40 7 21 9 56
5 90 -6 42 -4 61 9 79 8 14 24 27 35 31 11 3 25 21 31 40 7 21 9 56 5 90 -6
42 -4 61 9 79 8 14 24 27 35 31 11 3 25 21 31 40 7 20 8 57 4 93 -5 52 -4 62
13 78 11 11 30 27 41 36 17 14 22 29 22 63 0 35 6 52 25 70 13 14 28 25 34 25
5 0 15 15 21 34 7 22 9 71 5 135 -5 90 -4 102 13 118 10 10 29 26 40 35 17 14
22 29 22 63 0 35 6 52 25 70 13 14 28 25 34 25 5 0 15 15 21 34 7 21 9 58 4
94 -5 52 -4 62 13 78 11 11 30 27 41 36 17 14 22 29 22 63 0 35 6 52 25 70 13
14 28 25 34 25 5 0 15 16 21 35 7 21 9 56 5 90 -6 42 -4 61 9 79 8 14 24 27
35 31 11 3 25 21 31 40 7 21 9 56 5 90 -6 42 -4 61 9 79 8 14 24 27 35 31 11
3 25 21 31 40 7 21 9 56 5 90 -6 42 -4 61 9 79 8 14 24 27 35 31 11 3 25 21
31 40 7 21 9 56 5 90 -6 42 -4 61 9 79 8 14 24 27 35 31 11 3 25 21 31 40 7
21 9 56 5 90 -6 42 -4 61 9 79 8 14 24 27 35 31 11 3 25 21 31 40 7 21 9 56 5
90 -6 42 -4 61 9 79 8 14 24 27 35 31 11 3 25 21 31 40 7 21 9 56 5 90 -6 42
-4 61 9 79 8 14 24 27 35 31 11 3 25 21 31 40 7 20 8 57 4 93 -5 52 -4 62 13
78 11 11 30 27 41 36 17 14 22 29 22 63 0 35 6 52 25 70 13 14 28 25 34 25 5
0 15 16 21 35 7 21 9 56 5 90 -6 42 -4 61 9 79 8 14 24 27 35 31 11 3 25 21
31 40 7 20 8 57 4 94 -6 59 -6 59 35 100 37 36 41 45 41 90 0 30 5 51 13 54 6
3 14 6 17 6z"/>
<path d="M105360 39690 c-2779 0 -2779 0 -2804 -33 -14 -18 -37 -39 -50 -47
-14 -7 -27 -19 -31 -27 -3 -8 -5 -5023 -5 -11143 0 -6120 2 -11135 5 -11143 4
-8 17 -20 31 -27 13 -8 36 -29 50 -47 25 -33 25 -33 2764 -33 2476 0 2740 2
2754 16 9 8 16 21 16 27 0 7 0 2857 0 6335 0 3478 -2 6328 -6 6333 -3 5 -3 23
1 38 3 16 13 32 21 35 8 3 21 3 29 0 11 -4 15 -21 15 -56 0 -50 1 -51 80 -129
76 -76 80 -81 80 -124 0 -34 5 -49 22 -63 11 -9 47 -43 80 -74 54 -54 58 -61
58 -103 0 -34 5 -49 22 -63 11 -9 29 -25 40 -34 12 -12 18 -32 18 -63 0 -34 5
-49 22 -63 11 -9 47 -43 80 -74 54 -54 58 -61 58 -103 0 -34 5 -49 22 -63 11
-9 47 -43 80 -74 54 -54 58 -61 58 -103 0 -34 5 -49 22 -63 11 -9 29 -25 40
-34 12 -12 18 -32 18 -63 0 -34 5 -49 22 -63 11 -9 47 -43 80 -74 54 -54 58
-61 58 -103 0 -34 5 -49 22 -63 11 -9 29 -25 40 -34 12 -12 18 -32 18 -63 0
-34 5 -49 22 -63 11 -9 47 -43 80 -74 54 -54 58 -61 58 -103 0 -34 5 -49 22
-63 11 -9 47 -43 80 -74 54 -54 58 -61 58 -103 0 -34 5 -49 22 -63 11 -9 29
-25 40 -34 12 -12 18 -32 18 -63 0 -34 5 -49 22 -63 11 -9 47 -43 80 -74 54
-54 58 -61 58 -103 0 -34 5 -49 22 -63 11 -9 47 -43 80 -74 54 -54 58 -61 58
-103 0 -34 5 -49 22 -63 11 -9 29 -25 40 -34 12 -12 18 -32 18 -63 0 -34 5
-49 22 -63 11 -9 47 -43 80 -74 54 -54 58 -61 58 -103 0 -34 5 -49 22 -63 11
-9 47 -43 80 -74 54 -54 58 -61 58 -103 0 -34 5 -49 22 -63 11 -9 29 -25 40
-34 12 -12 18 -32 18 -63 0 -34 5 -49 22 -63 11 -9 47 -43 80 -74 54 -54 58
-61 58 -103 0 -34 5 -49 22 -63 11 -9 47 -43 80 -74 54 -54 58 -61 58 -103 0
-34 5 -49 22 -63 11 -9 29 -25 40 -34 12 -12 18 -32 18 -63 0 -34 5 -49 22
-63 11 -9 47 -43 80 -74 54 -54 58 -61 58 -103 0 -34 5 -49 22 -63 11 -9 29
-25 40 -34 12 -12 18 -32 18 -63 0 -34 5 -49 22 -63 11 -9 47 -43 80 -74 54
-54 58 -61 58 -103 0 -34 5 -49 22 -63 11 -9 47 -43 80 -74 54 -54 58 -61 58
-103 0 -34 5 -49 22 -63 11 -9 29 -25 40 -34 12 -12 18 -32 18 -63 0 -34 5
-49 22 -63 11 -9 47 -43 80 -74 54 -54 58 -61 58 -103 0 -34 5 -49 22 -63 11
-9 29 -25 40 -34 12 -12 18 -32 18 -63 0 -34 5 -49 22 -63 11 -9 47 -43 80
-74 54 -54 58 -61 58 -103 0 -34 5 -49 22 -63 11 -9 47 -43 80 -74 54 -54 58
-61 58 -103 0 -34 5 -49 22 -63 11 -9 47 -43 80 -74 54 -54 58 -61 58 -103 0
-34 5 -49 22 -63 11 -9 29 -25 40 -34 12 -12 18 -32 18 -63 0 -34 5 -49 22
-63 11 -9 47 -43 80 -74 54 -54 58 -61 58 -103 0 -34 5 -49 22 -63 11 -9 29
-25 40 -34 12 -12 18 -32 18 -63 0 -34 5 -49 22 -63 11 -9 47 -43 80 -74 54
-54 58 -61 58 -103 0 -34 5 -49 22 -63 11 -9 47 -43 80 -74 54 -54 58 -61 58
-103 0 -34 5 -49 22 -63 11 -9 29 -25 40 -34 12 -12 18 -32 18 -63 0 -34 5
-49 22 -63 11 -9 47 -43 80 -74 54 -54 58 -61 58 -103 0 -34 5 -49 22 -63 11
-9 47 -43 80 -74 54 -54 58 -61 58 -103 0 -34 5 -49 22 -63 11 -9 29 -25 40
-34 12 -12 18 -32 18 -63 0 -34 5 -49 22 -63 11 -9 47 -43 80 -74 54 -54 58
-61 58 -103 0 -34 5 -49 22 -63 11 -9 47 -43 80 -74 54 -54 58 -61 58 -103 0
-34 5 -49 22 -63 11 -9 29 -25 40 -34 12 -12 18 -32 18 -63 0 -34 5 -49 22
-63 11 -9 47 -43 80 -74 54 -54 58 -61 58 -103 0 -34 5 -49 22 -63 11 -9 29
-25 40 -34 12 -12 18 -32 18 -63 0 -34 5 -49 22 -63 11 -9 47 -43 80 -74 54
-54 58 -61 58 -103 0 -34 5 -49 22 -63 11 -9 47 -43 80 -74 54 -54 58 -61 58
-103 0 -34 5 -49 22 -63 11 -9 29 -25 40 -34 12 -12 18 -32 18 -63 0 -34 5
-49 22 -63 11 -9 47 -43 80 -74 54 -54 58 -61 58 -103 0 -34 5 -49 22 -63 11
-9 47 -43 80 -74 54 -54 58 -61 58 -103 0 -34 5 -49 22 -63 11 -9 29 -25 40
-34 12 -12 18 -32 18 -63 0 -34 5 -49 22 -63 11 -9 47 -43 80 -74 54 -54 58
-61 58 -103 0 -34 5 -49 22 -63 11 -9 29 -25 40 -34 12 -12 18 -32 18 -63 0
-34 5 -49 22 -63 11 -9 47 -43 80 -74 54 -54 58 -61 58 -103 0 -34 5 -49 22
-63 11 -9 47 -43 80 -74 54 -54 58 -61 58 -103 0 -34 5 -49 22 -63 11 -9 29
-25 40 -34 12 -12 18 -32 18 -63 0 -34 5 -49 22 -63 11 -9 47 -43 80 -74 54
-54 58 -61 58 -103 0 -34 5 -49 22 -63 11 -9 47 -43 80 -74 54 -54 58 -61 58
-103 0 -34 5 -49 22 -63 11 -9 29 -25 40 -34 12 -12 18 -32 18 -63 0 -34 5
-49 22 -63 11 -9 47 -43 80 -74 54 -54 58 -61 58 -103 0 -34 5 -49 22 -63 12
-9 56 -52 99 -94 77 -78 77 -78 2852 -78 2510 0 2777 2 2791 16 9 8 16 22 16
30 0 8 0 5050 0 11204 0 6155 0 11196 0 11204 0 8 -7 22 -16 30 -14 14 -281
16 -2794 16 -2513 0 -2780 -2 -2794 -16 -9 -8 -16 -21 -16 -27 0 -7 0 -2840 0
-6297 0 -6285 0 -6285 37 -6316 34 -28 36 -33 23 -49 -10 -12 -24 -16 -50 -12
-26 3 -50 18 -87 54 -45 44 -51 54 -55 103 -4 43 -11 58 -29 70 -13 8 -32 23
-41 33 -12 11 -18 32 -18 62 0 34 -5 49 -22 63 -11 9 -47 43 -80 75 -54 53
-58 60 -58 102 0 34 -5 49 -22 63 -11 9 -47 43 -80 75 -54 53 -58 60 -58 102
0 34 -5 49 -22 63 -11 9 -29 25 -40 35 -12 11 -18 31 -18 62 0 34 -5 49 -22
63 -11 9 -47 43 -80 75 -54 53 -58 60 -58 102 0 34 -5 49 -22 63 -11 9 -47 43
-80 75 -54 53 -58 60 -58 102 0 34 -5 49 -22 63 -11 9 -29 25 -40 35 -12 11
-18 31 -18 62 0 34 -5 49 -22 63 -11 9 -47 43 -80 75 -54 53 -58 60 -58 102 0
34 -5 49 -22 63 -11 9 -29 25 -40 35 -12 11 -18 31 -18 62 0 34 -5 49 -22 63
-11 9 -47 43 -80 75 -54 53 -58 60 -58 102 0 34 -5 49 -22 63 -11 9 -47 43
-80 75 -54 53 -58 60 -58 102 0 34 -5 49 -22 63 -11 9 -29 25 -40 35 -12 11
-18 31 -18 62 0 34 -5 49 -22 63 -11 9 -47 43 -80 75 -54 53 -58 60 -58 102 0
34 -5 49 -22 63 -11 9 -47 43 -80 75 -54 53 -58 60 -58 102 0 34 -5 49 -22 63
-11 9 -29 25 -40 35 -12 11 -18 31 -18 62 0 34 -5 49 -22 63 -11 9 -47 43 -80
75 -54 53 -58 60 -58 102 0 34 -5 49 -22 63 -11 9 -47 43 -80 75 -54 53 -58
60 -58 102 0 34 -5 49 -22 63 -11 9 -29 25 -40 35 -12 11 -18 31 -18 62 0 34
-5 49 -22 63 -11 9 -47 43 -80 75 -54 53 -58 60 -58 102 0 34 -5 49 -22 63
-11 9 -29 25 -40 35 -12 11 -18 31 -18 62 0 34 -5 49 -22 63 -11 9 -47 43 -80
75 -54 53 -58 60 -58 102 0 34 -5 49 -22 63 -11 9 -47 43 -80 75 -54 53 -58
60 -58 102 0 34 -5 49 -22 63 -11 9 -47 43 -80 75 -54 53 -58 60 -58 102 0 34
-5 49 -22 63 -11 9 -29 25 -40 35 -12 11 -18 31 -18 62 0 34 -5 49 -22 63 -11
9 -47 43 -80 75 -54 53 -58 60 -58 102 0 34 -5 49 -22 63 -11 9 -29 25 -40 35
-12 11 -18 31 -18 62 0 34 -5 49 -22 63 -11 9 -47 43 -80 75 -54 53 -58 60
-58 102 0 34 -5 49 -22 63 -11 9 -47 43 -80 75 -54 53 -58 60 -58 102 0 34 -5
49 -22 63 -11 9 -47 43 -80 75 -54 53 -58 60 -58 102 0 34 -5 49 -22 63 -11 9
-29 25 -40 35 -12 11 -18 31 -18 62 0 34 -5 49 -22 63 -11 9 -47 43 -80 75
-54 53 -58 60 -58 102 0 34 -5 49 -22 63 -11 9 -29 25 -40 35 -12 11 -18 31
-18 62 0 34 -5 49 -22 63 -11 9 -47 43 -80 75 -54 53 -58 60 -58 102 0 34 -5
49 -22 63 -11 9 -47 43 -80 75 -54 53 -58 60 -58 102 0 34 -5 49 -22 63 -11 9
-29 25 -40 35 -12 11 -18 31 -18 62 0 34 -5 49 -22 63 -11 9 -47 43 -80 75
-54 53 -58 60 -58 102 0 34 -5 49 -22 63 -11 9 -47 43 -80 75 -54 53 -58 60
-58 102 0 34 -5 49 -22 63 -11 9 -29 25 -40 35 -12 11 -18 31 -18 62 0 34 -5
49 -22 63 -11 9 -47 43 -80 75 -54 53 -58 60 -58 102 0 34 -5 49 -22 63 -11 9
-47 43 -80 75 -54 53 -58 60 -58 102 0 34 -5 49 -22 63 -11 9 -29 25 -40 35
-12 11 -18 31 -18 62 0 34 -5 49 -22 63 -11 9 -47 43 -80 75 -54 53 -58 60
-58 102 0 34 -5 49 -22 63 -11 9 -29 25 -40 35 -12 11 -18 31 -18 62 0 34 -5
49 -22 63 -11 9 -47 43 -80 75 -54 53 -58 60 -58 102 0 34 -5 49 -22 63 -11 9
-47 43 -80 75 -54 53 -58 60 -58 102 0 34 -5 49 -22 63 -11 9 -29 25 -40 35
-12 11 -18 31 -18 62 0 34 -5 49 -22 63 -11 9 -47 43 -80 75 -54 53 -58 60
-58 102 0 34 -5 49 -22 63 -11 9 -47 43 -80 75 -54 53 -58 60 -58 102 0 34 -5
49 -22 63 -11 9 -29 25 -40 35 -12 11 -18 31 -18 62 0 34 -5 49 -22 63 -11 9
-47 43 -80 75 -54 53 -58 60 -58 102 0 34 -5 49 -22 63 -11 9 -47 43 -80 75
-54 53 -58 60 -58 102 0 34 -5 49 -22 63 -11 9 -29 25 -40 35 -12 11 -18 31
-18 62 0 34 -5 49 -22 63 -11 9 -47 43 -80 75 -54 53 -58 60 -58 102 0 34 -5
49 -22 63 -11 9 -29 25 -40 35 -12 11 -18 31 -18 62 0 34 -5 49 -22 63 -11 9
-47 43 -80 75 -54 53 -58 60 -58 102 0 34 -5 49 -22 63 -11 9 -47 43 -80 75
-54 53 -58 60 -58 102 0 34 -5 49 -22 63 -11 9 -29 25 -40 35 -12 11 -18 31
-18 62 0 34 -5 49 -22 63 -11 9 -47 43 -80 75 -54 53 -58 60 -58 102 0 34 -5
49 -22 63 -11 9 -47 43 -80 75 -53 52 -58 61 -58 101 0 27 -6 51 -16 60 -14
14 -281 16 -2794 16z"/>
<path d="M131640 39690 c-8440 0 -9300 -1 -9314 -16 -9 -8 -16 -23 -16 -32 0
-9 0 -1131 0 -2493 0 -1362 2 -2484 6 -2493 3 -9 10 -16 15 -16 5 0 29 -20 52
-45 43 -45 43 -45 3171 -47 3080 -3 3128 -3 3142 -22 12 -17 14 -1222 14
-8645 0 -4744 0 -8634 0 -8643 0 -9 7 -24 16 -32 14 -14 292 -16 2914 -16
2899 0 2899 0 2924 33 14 18 37 39 50 47 14 7 27 19 31 27 3 8 5 3884 5 8612
0 7399 2 8600 14 8617 14 19 61 19 3102 22 3088 2 3088 2 3131 47 23 25 47 45
52 45 5 0 12 7 15 16 4 9 6 1131 6 2493 0 1362 0 2484 0 2493 0 9 -7 24 -16
32 -14 15 -874 16 -9314 16z"/>
<path d="M141600 23450 c-538 0 -538 0 -567 -35 -28 -36 -28 -36 -158 -41
-130 -5 -130 -5 -162 -42 -32 -37 -32 -37 -119 -37 -87 -1 -87 -1 -118 -37
-26 -31 -39 -38 -84 -44 -44 -6 -57 -12 -78 -40 -22 -28 -34 -34 -80 -40 -46
-5 -59 -12 -80 -40 -22 -28 -34 -34 -80 -40 -46 -5 -59 -12 -80 -39 -21 -28
-34 -35 -77 -40 -48 -7 -57 -13 -123 -81 -65 -67 -76 -75 -120 -81 -47 -6 -53
-12 -324 -282 -152 -152 -287 -284 -298 -293 -17 -14 -22 -29 -22 -63 0 -42
-4 -49 -58 -102 -33 -32 -69 -66 -80 -75 -17 -14 -22 -29 -22 -63 0 -31 -6
-51 -18 -62 -11 -10 -29 -26 -40 -35 -17 -14 -22 -29 -22 -63 0 -31 -6 -51
-18 -62 -11 -10 -29 -26 -40 -35 -17 -14 -22 -29 -22 -63 0 -35 -6 -52 -25
-70 -13 -14 -28 -25 -34 -25 -5 0 -15 -16 -21 -35 -7 -21 -9 -56 -5 -90 6 -42
4 -61 -9 -79 -8 -14 -24 -27 -35 -31 -11 -3 -25 -21 -31 -40 -7 -21 -9 -56 -5
-90 6 -42 4 -61 -9 -79 -8 -14 -24 -27 -35 -31 -11 -3 -24 -18 -29 -34 -5 -15
-8 -92 -6 -172 2 -112 0 -149 -11 -166 -8 -12 -23 -24 -34 -28 -11 -3 -23 -15
-26 -26 -4 -12 -7 -200 -7 -419 0 -219 3 -407 7 -419 3 -11 15 -23 26 -26 11
-4 26 -17 35 -30 12 -18 14 -42 9 -120 -4 -60 -2 -109 5 -130 6 -19 20 -37 31
-40 11 -4 26 -17 35 -30 12 -18 14 -42 9 -120 -4 -61 -2 -109 5 -131 6 -19 16
-34 21 -34 6 0 21 -11 34 -25 19 -18 25 -35 25 -70 0 -34 5 -49 22 -63 11 -9
29 -25 40 -34 12 -12 18 -32 18 -63 0 -34 5 -49 22 -63 11 -9 29 -25 40 -34
12 -12 18 -32 18 -63 0 -34 5 -49 22 -63 11 -9 29 -25 40 -34 12 -12 18 -32
18 -63 0 -34 5 -49 22 -63 11 -9 47 -43 80 -74 54 -54 58 -61 58 -103 0 -34 5
-49 22 -63 11 -9 164 -159 338 -333 311 -311 317 -316 364 -322 44 -6 56 -14
120 -81 66 -68 75 -74 123 -81 43 -5 56 -12 77 -40 21 -27 34 -34 80 -39 46
-6 58 -12 80 -40 21 -28 34 -34 78 -40 43 -6 58 -13 83 -41 30 -34 30 -34 160
-39 129 -5 129 -5 161 -43 31 -37 31 -37 119 -38 87 0 87 0 117 -38 30 -37 30
-37 648 -37 618 0 618 0 647 35 28 36 28 36 158 41 130 5 130 5 162 42 32 37
32 37 119 37 87 1 87 1 120 40 33 40 33 40 118 40 85 1 85 1 160 78 70 73 77
78 126 84 43 5 55 11 76 39 21 26 34 34 77 39 50 7 56 12 164 121 105 107 114
115 160 121 45 6 55 13 204 162 85 86 165 164 177 173 17 14 22 29 22 63 0 44
3 48 98 143 55 53 109 105 120 114 17 14 22 29 22 63 0 43 4 49 66 110 36 36
69 65 74 65 5 0 14 15 20 34 7 21 9 58 4 94 -5 52 -4 62 13 78 11 11 30 27 41
36 17 14 22 29 22 63 0 35 6 52 25 70 13 14 28 25 34 25 5 0 15 16 21 35 7 21
9 56 5 90 -6 42 -4 61 9 79 8 14 24 27 35 31 11 3 25 21 31 40 7 21 9 56 5 90
-6 42 -4 61 9 79 8 14 24 27 35 31 10 3 22 13 26 23 3 9 6 325 6 702 0 377 -3
693 -6 702 -4 10 -16 20 -26 23 -11 4 -27 17 -35 31 -13 18 -15 37 -9 79 4 34
2 69 -5 90 -6 19 -20 37 -31 40 -11 4 -27 17 -35 31 -13 18 -15 37 -9 79 4 34
2 69 -5 90 -6 19 -16 35 -21 35 -6 0 -21 11 -34 25 -19 18 -25 35 -25 70 0 34
-5 49 -22 63 -11 9 -29 25 -40 35 -12 11 -18 31 -18 62 0 34 -5 49 -22 63 -11
9 -29 25 -40 35 -12 11 -18 31 -18 62 0 34 -5 49 -22 63 -11 9 -47 43 -80 75
-54 53 -58 60 -58 102 0 34 -5 49 -22 63 -11 9 -182 177 -378 373 -352 351
-357 356 -404 362 -44 6 -56 14 -120 81 -66 68 -75 74 -123 81 -43 5 -56 13
-77 40 -21 27 -34 33 -78 39 -45 6 -58 13 -84 44 -31 36 -31 36 -118 37 -87 0
-87 0 -120 40 -33 39 -33 39 -120 40 -87 0 -87 0 -119 37 -32 37 -32 37 -162
42 -130 5 -130 5 -158 41 -29 35 -29 35 -567 35z"/>
<path d="M49720 8090 c-738 0 -738 0 -767 -35 -28 -36 -28 -36 -158 -41 -130
-5 -130 -5 -160 -39 -30 -35 -30 -35 -200 -41 -170 -5 -170 -5 -200 -39 -24
-26 -41 -35 -80 -41 -46 -6 -56 -13 -122 -81 -66 -69 -75 -74 -123 -80 -43 -5
-55 -11 -76 -39 -21 -28 -34 -34 -80 -40 -46 -5 -59 -12 -80 -40 -22 -28 -34
-34 -80 -40 -46 -5 -59 -12 -80 -39 -20 -27 -34 -35 -76 -40 -51 -7 -51 -7
-448 -404 -218 -218 -407 -404 -418 -413 -17 -14 -22 -29 -22 -63 0 -31 -6
-51 -18 -62 -11 -10 -29 -26 -40 -35 -17 -14 -22 -29 -22 -63 0 -31 -6 -51
-18 -62 -11 -10 -29 -26 -40 -35 -17 -14 -22 -29 -22 -63 0 -31 -6 -51 -18
-62 -11 -10 -29 -26 -40 -35 -17 -14 -22 -29 -22 -63 0 -42 -4 -49 -58 -102
-33 -32 -69 -66 -80 -75 -17 -14 -22 -29 -22 -63 0 -41 -5 -50 -46 -91 -45
-43 -46 -46 -41 -91 3 -31 12 -53 25 -63 11 -8 28 -20 37 -25 12 -7 16 -17 11
-31 -3 -12 -18 -26 -31 -32 -14 -7 -30 -24 -36 -39 -6 -16 -8 -52 -4 -86 5
-44 3 -63 -9 -81 -8 -14 -24 -27 -35 -31 -11 -3 -24 -18 -29 -34 -5 -15 -8
-92 -6 -172 2 -112 0 -149 -11 -166 -8 -12 -23 -24 -34 -28 -11 -3 -23 -15
-27 -27 -3 -11 -6 -181 -6 -378 0 -197 3 -367 6 -378 4 -12 16 -24 27 -27 11
-4 26 -16 34 -28 11 -17 13 -61 11 -207 -1 -102 2 -197 7 -212 5 -15 17 -30
28 -33 11 -4 27 -17 35 -31 12 -18 14 -37 9 -81 -4 -33 -2 -70 4 -85 6 -15 24
-34 41 -43 16 -8 30 -22 30 -30 0 -8 -12 -22 -27 -32 -16 -10 -31 -22 -35 -28
-4 -5 -8 -20 -8 -32 0 -12 12 -31 28 -42 15 -12 33 -26 41 -32 10 -9 12 -27 7
-71 -5 -36 -3 -73 4 -94 6 -19 15 -34 20 -34 5 0 38 -29 74 -65 62 -61 66 -67
66 -110 0 -34 5 -49 22 -63 11 -9 29 -25 40 -34 12 -12 18 -32 18 -63 0 -34 5
-49 22 -63 11 -9 29 -25 40 -34 12 -12 18 -32 18 -63 0 -34 5 -49 22 -63 11
-9 47 -43 80 -74 54 -54 58 -61 58 -103 0 -34 5 -49 22 -63 11 -9 164 -159
338 -333 311 -311 317 -316 364 -322 44 -6 56 -14 120 -81 66 -68 75 -74 123
-81 43 -5 56 -12 77 -40 21 -27 34 -34 80 -39 46 -6 59 -12 80 -40 21 -28 33
-34 76 -39 49 -6 56 -11 126 -84 75 -77 75 -77 160 -78 85 0 85 0 117 -37 32
-37 32 -37 162 -42 129 -5 129 -5 160 -40 30 -35 30 -35 240 -40 210 -5 210
-5 238 -40 29 -36 29 -36 607 -36 578 0 578 0 607 36 28 35 28 35 238 40 210
5 210 5 240 40 31 35 31 35 160 40 130 5 130 5 162 42 32 37 32 37 117 37 85
1 85 1 160 78 70 73 77 78 126 84 43 5 55 11 76 39 21 28 34 34 80 40 46 5 59
12 80 39 21 28 34 35 77 40 48 7 57 13 123 81 65 67 76 75 120 81 47 6 53 12
324 282 152 152 287 284 298 293 17 14 22 29 22 63 0 44 2 48 105 150 58 58
110 105 115 105 4 0 14 15 20 34 7 21 9 58 4 94 -6 60 -6 60 53 118 33 33 70
67 81 76 17 14 22 29 22 63 0 31 6 51 18 63 11 9 29 25 40 34 17 14 22 29 22
63 0 31 6 51 18 63 11 9 29 25 40 34 17 14 22 29 22 63 0 35 6 52 25 70 13 14
28 25 34 25 5 0 13 12 18 28 5 15 8 110 7 212 -2 146 0 190 11 207 8 12 23 24
34 28 11 3 23 16 27 28 4 12 7 144 6 292 -1 217 2 274 13 292 8 12 23 24 34
28 11 3 24 20 30 37 6 17 11 57 11 88 0 31 -5 71 -11 88 -6 17 -19 34 -30 37
-11 4 -26 16 -34 28 -11 18 -14 75 -13 292 1 149 -2 280 -6 292 -4 12 -16 25
-27 28 -11 4 -26 16 -34 28 -11 17 -13 61 -11 207 1 102 -2 197 -7 212 -5 15
-17 30 -28 33 -11 4 -27 17 -35 31 -13 18 -15 37 -9 79 4 34 2 69 -5 90 -6 19
-15 35 -20 35 -5 0 -38 29 -74 65 -62 61 -66 67 -66 110 0 34 -5 49 -22 63
-11 9 -29 25 -40 35 -12 11 -18 31 -18 62 0 34 -5 49 -22 63 -11 9 -29 25 -40
35 -12 11 -18 31 -18 62 0 34 -5 49 -22 63 -11 9 -47 43 -80 75 -54 53 -58 60
-58 102 0 34 -5 49 -22 63 -11 9 -182 177 -378 373 -357 357 -357 357 -408
364 -42 5 -56 13 -76 40 -21 27 -34 34 -80 39 -46 6 -58 12 -80 40 -21 28 -34
35 -80 40 -46 6 -59 12 -80 40 -21 28 -33 34 -76 39 -48 6 -57 11 -123 80 -66
68 -76 75 -122 81 -39 6 -56 15 -80 41 -30 34 -30 34 -200 39 -170 6 -170 6
-200 41 -30 34 -30 34 -160 39 -130 5 -130 5 -158 41 -29 35 -29 35 -767 35z
m23 -665 c219 -1 219 -1 250 -37 32 -37 32 -37 241 -42 210 -5 210 -5 242 -42
31 -38 31 -38 118 -39 87 0 87 0 119 -37 26 -30 41 -38 82 -43 40 -5 56 -13
80 -41 30 -34 30 -34 158 -38 128 -4 128 -4 200 -79 65 -67 77 -75 119 -80 47
-7 53 -11 463 -422 415 -415 415 -415 415 -460 0 -34 5 -49 22 -63 11 -9 29
-25 40 -34 12 -12 18 -32 18 -63 0 -34 5 -49 22 -63 11 -9 29 -25 40 -34 12
-12 18 -32 18 -63 0 -34 5 -49 22 -63 11 -9 29 -25 40 -34 12 -12 18 -32 18
-63 0 -34 5 -49 22 -63 11 -9 29 -25 39 -34 16 -15 18 -33 15 -164 -2 -81 1
-160 6 -175 5 -16 18 -31 29 -34 11 -4 26 -16 34 -28 12 -18 14 -124 14 -647
0 -523 -2 -629 -14 -647 -8 -12 -23 -24 -34 -28 -11 -3 -24 -18 -29 -34 -5
-15 -8 -94 -6 -175 3 -131 1 -149 -15 -164 -10 -9 -28 -25 -39 -34 -17 -14
-22 -29 -22 -63 0 -31 -6 -51 -18 -62 -11 -10 -29 -26 -40 -35 -17 -14 -22
-29 -22 -63 0 -31 -6 -51 -18 -62 -11 -10 -29 -26 -40 -35 -17 -14 -22 -29
-22 -63 0 -31 -6 -51 -18 -62 -11 -10 -29 -26 -40 -35 -17 -14 -22 -29 -22
-63 0 -45 0 -45 -415 -460 -416 -416 -416 -416 -466 -422 -41 -5 -55 -12 -75
-39 -21 -27 -34 -33 -77 -39 -43 -5 -57 -13 -82 -41 -31 -35 -31 -35 -160 -40
-130 -5 -130 -5 -160 -39 -24 -27 -40 -35 -80 -40 -40 -5 -56 -13 -80 -41 -31
-35 -31 -35 -160 -40 -130 -5 -130 -5 -162 -42 -32 -37 -32 -37 -593 -37 -561
0 -561 0 -593 37 -32 37 -32 37 -162 42 -129 5 -129 5 -160 40 -24 28 -40 36
-80 41 -40 5 -56 13 -80 40 -30 34 -30 34 -160 39 -129 5 -129 5 -160 40 -25
28 -39 36 -82 41 -43 6 -56 12 -77 39 -20 27 -34 34 -75 39 -50 6 -50 6 -466
422 -415 415 -415 415 -415 460 0 34 -5 49 -22 63 -11 9 -47 43 -80 75 -54 53
-58 60 -58 102 0 34 -5 49 -22 63 -11 9 -29 25 -40 35 -12 11 -18 31 -18 62 0
34 -5 49 -22 63 -11 9 -29 25 -39 34 -16 15 -18 33 -15 164 2 81 -1 160 -6
175 -5 16 -18 31 -29 34 -11 4 -26 17 -35 30 -12 18 -14 42 -9 120 4 60 2 109
-5 130 -6 19 -20 37 -31 40 -11 4 -26 16 -34 28 -11 18 -14 94 -14 407 0 313
3 389 14 407 8 12 23 24 34 28 11 3 24 18 29 34 5 15 8 92 6 172 -2 112 0 149
11 166 8 12 23 24 34 28 11 3 25 21 31 40 7 21 9 71 5 134 -5 90 -4 102 13
118 10 10 29 26 40 35 17 14 22 29 22 63 0 31 6 51 18 63 11 9 29 25 40 34 17
14 22 29 22 63 0 31 6 51 18 63 11 9 29 25 40 34 17 14 22 29 22 63 0 45 0 45
178 223 99 97 189 185 200 194 17 14 22 29 22 62 0 41 5 50 54 101 47 47 61
56 103 62 46 6 54 13 200 160 146 147 154 154 200 160 43 5 55 13 120 80 72
75 72 75 200 79 128 4 128 4 158 38 24 28 40 36 80 41 41 5 56 13 82 43 32 37
32 37 119 37 87 1 87 1 118 39 32 37 32 37 242 42 209 5 209 5 239 39 17 18
41 35 55 37 14 2 123 3 243 3z"/>
<path d="M56640 8090 c-1276 0 -1420 -2 -1434 -16 -9 -8 -16 -22 -16 -30 0 -8
0 -1611 0 -3564 0 -1952 0 -3556 0 -3564 0 -8 7 -22 16 -30 13 -14 63 -16 394
-16 331 0 381 2 394 16 9 8 16 23 16 32 0 9 0 497 0 1083 0 896 3 1069 14
1085 14 19 45 19 1216 19 1178 0 1202 0 1216 -19 8 -11 14 -39 14 -63 0 -32 6
-48 22 -61 11 -9 65 -61 120 -114 95 -95 98 -99 98 -143 0 -34 5 -49 22 -63
11 -9 83 -79 160 -154 137 -137 138 -138 138 -183 0 -34 5 -49 22 -63 11 -9
29 -25 40 -34 12 -12 18 -32 18 -63 0 -34 5 -49 22 -63 11 -9 47 -43 80 -74
54 -54 58 -61 58 -103 0 -34 5 -49 22 -63 11 -9 47 -43 80 -74 54 -54 58 -61
58 -103 0 -34 5 -49 22 -63 11 -9 47 -43 80 -74 54 -54 58 -61 58 -103 0 -34
5 -49 22 -63 11 -9 83 -79 160 -154 137 -137 138 -138 138 -183 0 -35 5 -49
22 -63 12 -9 38 -34 58 -54 35 -37 35 -37 452 -39 327 -2 420 1 433 11 8 7 15
25 15 41 0 19 -8 34 -26 46 -14 10 -68 60 -120 110 -91 90 -94 94 -94 138 0
34 -5 49 -22 63 -11 9 -29 25 -40 35 -12 11 -18 31 -18 62 0 34 -5 49 -22 63
-11 9 -47 43 -80 75 -54 53 -58 60 -58 102 0 34 -5 49 -22 63 -11 9 -65 61
-120 115 -95 94 -98 98 -98 142 0 34 -5 49 -22 63 -11 9 -83 79 -160 155 -137
136 -138 137 -138 182 0 34 -5 49 -22 63 -11 9 -29 25 -40 35 -12 11 -18 31
-18 62 0 34 -5 49 -22 63 -11 9 -65 61 -120 115 -95 94 -98 98 -98 142 0 34
-5 49 -22 63 -11 9 -29 25 -40 35 -12 11 -18 31 -18 62 0 34 -5 49 -22 63 -11
9 -56 51 -99 92 -43 41 -85 81 -93 88 -9 7 -16 17 -16 22 0 5 7 15 16 22 9 7
49 46 90 86 67 67 77 73 124 79 43 5 55 12 76 39 21 28 34 34 80 40 46 5 59
12 80 40 22 28 34 34 80 40 46 5 59 12 80 39 21 27 34 35 76 40 50 7 55 11
208 164 86 86 166 164 178 173 17 14 22 29 22 63 0 42 4 49 58 103 33 31 69
65 80 74 17 14 22 29 22 63 0 35 6 52 25 70 13 14 28 25 34 25 5 0 15 15 21
34 7 21 9 58 4 94 -5 52 -4 62 13 78 11 11 30 27 41 36 17 14 22 29 22 63 0
35 6 52 25 70 13 14 28 25 34 25 5 0 13 13 19 28 5 16 8 93 6 173 -2 112 0
149 11 166 8 12 23 24 34 28 11 3 23 15 27 27 3 11 6 181 6 378 0 197 -3 367
-6 378 -4 12 -16 24 -27 27 -11 4 -26 17 -35 30 -12 18 -14 42 -9 120 4 60 2
109 -5 130 -6 19 -20 37 -31 40 -11 4 -27 17 -35 31 -13 18 -15 37 -9 79 4 34
2 69 -5 90 -6 19 -20 37 -31 40 -11 4 -27 17 -35 31 -13 18 -15 37 -9 79 4 34
2 69 -5 90 -6 19 -15 35 -20 35 -5 0 -38 29 -74 65 -62 61 -66 67 -66 110 0
34 -5 49 -22 63 -11 9 -128 123 -258 253 -235 235 -237 237 -288 244 -42 5
-55 13 -76 40 -21 27 -34 34 -80 39 -46 6 -59 12 -80 40 -21 28 -33 34 -76 39
-48 6 -57 11 -123 80 -66 68 -76 75 -122 81 -39 6 -56 15 -80 41 -30 34 -30
34 -239 39 -210 5 -210 5 -240 40 -31 35 -31 35 -320 39 -290 4 -290 4 -319
41 -29 36 -29 36 -1447 36z m583 -744 c1138 -1 1138 -1 1170 -38 32 -37 32
-37 162 -42 129 -5 129 -5 161 -43 31 -37 31 -37 118 -38 87 0 87 0 120 -40
33 -39 33 -39 120 -40 87 0 87 0 119 -37 26 -29 41 -37 80 -42 46 -5 53 -11
262 -221 215 -215 215 -215 215 -260 0 -34 5 -49 22 -63 11 -9 30 -25 41 -36
17 -16 18 -26 13 -78 -4 -36 -3 -73 4 -93 6 -19 20 -37 31 -40 11 -4 26 -17
35 -30 12 -18 14 -42 9 -120 -4 -60 -2 -109 5 -130 6 -19 20 -37 31 -40 11 -4
26 -16 33 -28 12 -18 14 -84 14 -327 0 -243 -2 -309 -14 -327 -7 -12 -22 -24
-33 -28 -11 -3 -25 -21 -31 -40 -7 -21 -9 -56 -5 -90 6 -42 4 -61 -9 -79 -8
-14 -24 -27 -35 -31 -11 -3 -25 -21 -31 -40 -7 -20 -8 -57 -4 -93 5 -52 4 -62
-13 -78 -11 -11 -30 -27 -41 -36 -17 -14 -22 -29 -22 -63 0 -45 0 -45 -257
-302 -257 -258 -257 -258 -342 -258 -84 -1 -84 -1 -117 -40 -33 -40 -33 -40
-120 -40 -87 -1 -87 -1 -118 -37 -25 -30 -40 -38 -81 -43 -40 -5 -56 -13 -81
-42 -31 -35 -31 -35 -280 -40 -249 -4 -249 -4 -281 -41 -32 -37 -32 -37 -1033
-37 -975 0 -1002 1 -1016 19 -11 16 -14 285 -14 1766 0 1367 3 1750 13 1763 6
8 23 18 37 20 14 2 537 4 1163 3z"/>
<path d="M62920 8090 c-339 0 -339 0 -364 -33 -14 -18 -37 -39 -50 -47 -14 -7
-27 -19 -31 -28 -3 -8 -5 -1597 -5 -3531 0 -1934 0 -3524 0 -3533 0 -9 7 -24
16 -32 14 -14 249 -16 2434 -16 2420 0 2420 0 2436 25 14 21 17 64 18 298 2
149 -2 284 -7 300 -5 15 -18 29 -30 32 -12 3 -921 6 -2020 8 -1961 2 -1999 2
-2013 21 -12 17 -14 485 -14 3245 0 1774 0 3234 0 3243 0 9 -7 24 -16 32 -13
14 -60 16 -354 16z"/>
<path d="M71079 8090 c-335 0 -335 0 -370 -37 -19 -21 -45 -46 -57 -55 -17
-14 -22 -28 -22 -63 0 -31 -6 -51 -18 -62 -11 -10 -29 -26 -40 -35 -17 -14
-22 -29 -22 -63 0 -35 -6 -52 -25 -70 -13 -14 -28 -25 -34 -25 -5 0 -15 -15
-21 -34 -7 -21 -9 -58 -4 -94 5 -52 4 -62 -13 -78 -11 -11 -30 -27 -41 -36
-17 -14 -22 -29 -22 -63 0 -31 -6 -51 -18 -62 -11 -10 -29 -26 -40 -35 -17
-14 -22 -29 -22 -63 0 -31 -6 -51 -18 -62 -11 -10 -29 -26 -40 -35 -17 -14
-22 -29 -22 -63 0 -31 -6 -51 -18 -62 -11 -10 -29 -26 -40 -35 -17 -14 -22
-29 -22 -63 0 -35 -6 -52 -25 -70 -13 -14 -28 -25 -34 -25 -5 0 -15 -15 -21
-34 -7 -21 -9 -58 -4 -94 5 -52 4 -62 -13 -78 -11 -11 -30 -27 -41 -36 -17
-14 -22 -29 -22 -63 0 -31 -6 -51 -18 -62 -11 -10 -29 -26 -40 -35 -17 -14
-22 -29 -22 -63 0 -31 -6 -51 -18 -62 -11 -10 -29 -26 -40 -35 -17 -14 -22
-29 -22 -63 0 -31 -6 -51 -18 -62 -11 -10 -29 -26 -40 -35 -17 -14 -22 -29
-22 -63 0 -35 -6 -52 -25 -70 -13 -14 -28 -25 -34 -25 -5 0 -15 -15 -21 -34
-7 -21 -9 -58 -4 -94 6 -60 6 -60 -60 -126 -37 -36 -71 -66 -76 -66 -5 0 -14
-15 -20 -34 -7 -21 -9 -58 -4 -94 5 -52 4 -62 -13 -78 -11 -11 -30 -27 -41
-36 -17 -14 -22 -29 -22 -63 0 -31 -6 -51 -18 -62 -11 -10 -29 -26 -40 -35
-17 -14 -22 -29 -22 -63 0 -31 -6 -51 -18 -62 -11 -10 -29 -26 -40 -35 -17
-14 -22 -29 -22 -63 0 -35 -6 -52 -25 -70 -13 -14 -28 -25 -34 -25 -5 0 -15
-15 -21 -34 -7 -21 -9 -58 -4 -94 5 -52 4 -62 -13 -78 -11 -11 -30 -27 -41
-36 -17 -14 -22 -29 -22 -63 0 -31 -6 -51 -18 -62 -11 -10 -29 -26 -40 -35
-17 -14 -22 -29 -22 -63 0 -31 -6 -51 -18 -62 -11 -10 -29 -26 -40 -35 -17
-14 -22 -29 -22 -63 0 -35 -6 -52 -25 -70 -13 -14 -28 -25 -34 -25 -5 0 -15
-15 -21 -34 -7 -21 -9 -58 -4 -94 5 -52 4 -62 -13 -78 -11 -11 -30 -27 -41
-36 -17 -14 -22 -29 -22 -63 0 -31 -6 -51 -18 -62 -11 -10 -29 -26 -40 -35
-17 -14 -22 -29 -22 -63 0 -31 -6 -51 -18 -62 -11 -10 -29 -26 -40 -35 -17
-14 -22 -29 -22 -63 0 -31 -6 -51 -18 -62 -11 -10 -29 -26 -40 -35 -17 -14
-22 -29 -22 -63 0 -35 -6 -52 -25 -70 -13 -14 -28 -25 -34 -25 -5 0 -15 -15
-21 -34 -7 -21 -9 -58 -4 -94 5 -52 4 -62 -13 -78 -11 -11 -30 -27 -41 -36
-17 -14 -22 -29 -22 -63 0 -42 -4 -49 -58 -102 -33 -32 -69 -66 -80 -75 -17
-14 -22 -29 -22 -63 0 -35 -6 -52 -25 -70 -13 -14 -28 -25 -34 -25 -5 0 -15
-15 -21 -34 -7 -22 -9 -71 -5 -135 5 -90 4 -102 -13 -118 -10 -10 -29 -26 -40
-35 -17 -14 -22 -29 -22 -63 0 -42 -4 -49 -58 -102 -33 -32 -69 -66 -80 -75
-17 -14 -22 -29 -22 -63 0 -31 -6 -51 -18 -62 -11 -10 -29 -26 -40 -35 -17
-14 -22 -29 -22 -63 0 -24 -6 -49 -12 -55 -7 -5 -25 -19 -40 -31 -16 -11 -28
-30 -28 -42 0 -12 4 -27 8 -32 4 -6 19 -18 35 -28 15 -10 27 -24 27 -31 0 -8
-16 -23 -35 -35 -32 -18 -35 -24 -35 -66 0 -42 -4 -49 -58 -103 -33 -31 -69
-65 -80 -74 -17 -14 -22 -29 -22 -63 0 -30 -6 -51 -18 -62 -9 -10 -28 -25 -41
-33 -19 -13 -25 -27 -29 -70 -4 -46 -10 -60 -38 -86 -30 -28 -34 -38 -34 -83
0 -38 5 -56 20 -71 19 -19 33 -20 392 -20 373 0 373 0 408 38 20 20 46 45 58
54 17 14 22 28 22 63 0 31 6 51 18 63 11 9 29 25 40 34 17 14 22 29 22 63 0
31 6 51 18 63 11 9 29 25 40 34 17 14 22 29 22 63 0 35 6 52 25 70 13 14 28
25 34 25 5 0 15 15 21 34 7 21 9 58 4 94 -5 52 -4 62 13 78 11 11 30 27 41 36
17 14 22 29 22 63 0 31 6 51 18 63 11 9 29 25 40 34 17 14 22 29 22 63 0 31 6
51 18 63 11 9 29 25 40 34 17 14 22 29 22 63 0 31 6 51 18 63 11 9 29 25 40
34 17 14 22 29 22 63 0 35 6 52 25 70 13 14 28 25 34 25 5 0 15 15 21 34 7 21
9 58 4 94 -5 52 -4 62 13 78 11 11 30 27 41 36 17 14 22 29 22 62 0 41 5 50
57 103 56 58 56 58 2015 58 1948 0 1960 0 1975 -20 11 -15 13 -34 8 -78 -4
-34 -2 -72 5 -92 6 -19 20 -37 31 -40 11 -4 27 -17 35 -31 13 -18 15 -37 9
-79 -4 -34 -2 -69 5 -90 6 -19 16 -35 21 -35 6 0 21 -11 34 -25 19 -18 25 -35
25 -70 0 -34 5 -49 22 -63 11 -9 47 -43 80 -74 54 -54 58 -61 58 -103 0 -34 5
-49 22 -63 11 -9 30 -25 40 -35 17 -16 18 -28 13 -118 -4 -64 -2 -113 5 -135
6 -19 16 -34 21 -34 6 0 21 -11 34 -25 19 -18 25 -35 25 -70 0 -34 5 -49 22
-63 11 -9 48 -43 81 -76 59 -58 59 -58 53 -118 -5 -36 -3 -73 4 -94 6 -19 16
-34 21 -34 6 0 21 -11 34 -25 19 -18 25 -35 25 -70 0 -35 5 -49 22 -63 12 -9
38 -34 58 -54 35 -37 35 -37 411 -39 303 -3 380 -1 393 10 9 7 16 26 16 41 0
19 -9 35 -27 49 -16 12 -34 26 -41 32 -10 8 -11 35 -7 111 4 63 2 112 -5 134
-6 19 -15 34 -20 34 -5 0 -38 29 -74 65 -62 61 -66 67 -66 110 0 34 -5 49 -22
63 -11 9 -29 25 -40 35 -12 11 -18 31 -18 62 0 34 -5 49 -22 63 -11 9 -30 25
-41 36 -17 16 -18 26 -13 78 5 36 3 73 -4 94 -6 19 -16 34 -21 34 -6 0 -21 11
-34 25 -19 18 -25 35 -25 70 0 34 -5 49 -22 63 -11 9 -29 25 -40 35 -12 11
-18 31 -18 62 0 34 -5 49 -22 63 -11 9 -29 25 -40 35 -12 11 -18 31 -18 62 0
34 -5 49 -22 63 -11 9 -30 25 -41 36 -17 16 -18 26 -13 78 5 36 3 73 -4 94 -6
19 -16 34 -21 34 -6 0 -21 11 -34 25 -19 18 -25 35 -25 70 0 34 -5 49 -22 63
-11 9 -29 25 -40 35 -12 11 -18 31 -18 62 0 34 -5 49 -22 63 -11 9 -29 25 -40
35 -12 11 -18 31 -18 62 0 34 -5 49 -22 63 -11 9 -29 25 -40 35 -12 11 -18 31
-18 62 0 34 -5 49 -22 63 -11 9 -29 25 -40 35 -12 11 -18 31 -18 62 0 34 -5
49 -22 63 -11 9 -30 25 -41 36 -17 16 -18 26 -13 78 5 36 3 73 -4 94 -6 19
-16 34 -21 34 -6 0 -21 11 -34 25 -19 18 -25 35 -25 70 0 34 -5 49 -22 63 -11
9 -29 25 -40 35 -12 11 -18 31 -18 62 0 34 -5 49 -22 63 -11 9 -29 25 -40 35
-12 11 -18 31 -18 62 0 34 -5 49 -22 63 -11 9 -29 25 -40 35 -12 11 -18 31
-18 62 0 34 -5 49 -22 63 -11 9 -30 25 -41 36 -17 16 -18 26 -13 78 5 36 3 73
-4 94 -6 19 -16 34 -21 34 -6 0 -21 11 -34 25 -19 18 -25 35 -25 70 0 34 -5
49 -22 63 -11 9 -29 25 -40 35 -12 11 -18 31 -18 62 0 34 -5 49 -22 63 -11 9
-29 25 -40 35 -12 11 -18 31 -18 62 0 34 -5 49 -22 63 -11 9 -29 25 -40 35
-12 11 -18 31 -18 62 0 34 -5 49 -22 63 -11 9 -30 25 -41 36 -17 16 -18 26
-13 78 5 36 3 73 -4 94 -6 19 -16 34 -21 34 -6 0 -21 11 -34 25 -19 18 -25 35
-25 70 0 34 -5 49 -22 63 -11 9 -29 25 -40 35 -12 11 -18 31 -18 62 0 34 -5
49 -22 63 -11 9 -29 25 -40 35 -12 11 -18 31 -18 62 0 34 -5 49 -22 63 -11 9
-29 25 -40 35 -12 11 -18 31 -18 62 0 34 -5 49 -22 63 -11 9 -29 25 -40 35
-12 11 -18 31 -18 62 0 34 -5 49 -22 63 -11 9 -30 25 -41 36 -17 16 -18 26
-13 78 5 36 3 73 -4 94 -6 19 -16 34 -21 34 -6 0 -21 11 -34 25 -19 18 -25 35
-25 70 0 34 -5 49 -22 63 -11 9 -29 25 -40 35 -12 11 -18 31 -18 62 0 34 -5
49 -22 63 -11 9 -29 25 -40 35 -12 11 -18 31 -18 62 0 34 -5 49 -22 63 -11 9
-30 25 -41 36 -17 16 -18 26 -13 78 5 36 3 73 -4 94 -6 19 -16 34 -21 34 -6 0
-21 11 -34 25 -19 18 -25 35 -25 70 0 34 -5 49 -22 63 -11 9 -29 25 -40 35
-12 11 -18 31 -18 62 0 34 -5 49 -22 63 -11 9 -29 25 -40 35 -12 11 -18 31
-18 62 0 34 -5 49 -22 63 -11 9 -29 25 -40 35 -12 11 -18 31 -18 62 0 34 -5
49 -22 63 -11 9 -29 25 -40 35 -12 11 -18 31 -18 62 0 35 -5 49 -22 63 -12 9
-38 34 -58 55 -35 37 -35 37 -371 37z m1 -990 c6 0 18 -10 28 -21 9 -12 32
-37 51 -56 33 -34 33 -36 27 -94 -5 -37 -3 -74 4 -95 6 -19 16 -34 21 -34 6 0
21 -11 34 -25 19 -18 25 -35 25 -70 0 -34 5 -49 22 -63 11 -9 29 -25 40 -34
12 -12 18 -32 18 -63 0 -34 5 -49 22 -63 11 -9 29 -25 40 -34 12 -12 18 -32
18 -63 0 -34 5 -49 22 -63 11 -9 29 -25 40 -34 12 -12 18 -32 18 -63 0 -34 5
-49 22 -63 11 -9 30 -25 41 -36 17 -16 18 -26 13 -78 -5 -36 -3 -73 4 -94 6
-19 16 -34 21 -34 6 0 21 -11 34 -25 19 -18 25 -35 25 -70 0 -34 5 -49 22 -63
11 -9 29 -25 40 -34 12 -12 18 -32 18 -63 0 -34 5 -49 22 -63 11 -9 29 -25 40
-34 12 -12 18 -32 18 -63 0 -34 5 -49 22 -63 11 -9 29 -25 40 -34 12 -12 18
-32 18 -63 0 -34 5 -49 22 -63 11 -9 30 -25 40 -35 17 -16 18 -28 13 -118 -4
-64 -2 -113 5 -135 6 -19 15 -34 20 -34 5 0 38 -29 74 -65 62 -61 66 -67 66
-110 0 -34 5 -49 22 -63 11 -9 29 -25 40 -34 12 -12 18 -32 18 -63 0 -34 5
-49 22 -63 11 -9 30 -25 41 -36 17 -16 18 -26 13 -78 -5 -36 -3 -73 4 -94 6
-19 16 -34 21 -34 6 0 21 -11 34 -25 19 -18 25 -35 25 -70 0 -34 5 -49 22 -63
11 -9 29 -25 40 -34 12 -12 18 -32 18 -63 0 -34 5 -49 22 -63 11 -9 29 -25 40
-34 12 -12 18 -32 18 -63 0 -34 5 -49 22 -63 11 -9 30 -25 41 -36 17 -16 18
-26 13 -78 -5 -36 -3 -73 4 -94 7 -21 23 -40 41 -49 16 -9 32 -27 35 -42 4
-14 3 -38 -2 -52 -9 -25 -13 -26 -104 -32 -52 -4 -736 -7 -1520 -7 -784 0
-1468 3 -1520 7 -91 6 -95 7 -104 32 -5 14 -6 38 -3 52 4 14 22 34 42 46 33
19 35 24 35 71 0 36 5 55 18 68 11 9 29 25 40 34 17 14 22 29 22 63 0 31 6 51
18 63 11 9 29 25 40 34 17 14 22 29 22 63 0 24 6 49 13 55 6 5 24 19 40 31 15
11 27 30 27 42 0 12 -4 27 -8 32 -4 6 -19 18 -34 28 -16 10 -28 24 -28 31 0 8
11 21 23 29 13 9 37 28 54 44 16 15 39 36 51 45 17 14 22 28 22 63 0 31 6 51
18 63 11 9 29 25 40 34 17 14 22 29 22 63 0 35 6 52 25 70 13 14 28 25 34 25
5 0 15 15 21 34 7 21 9 58 4 94 -5 52 -4 62 13 78 11 11 30 27 41 36 17 14 22
29 22 63 0 31 6 51 18 63 11 9 29 25 40 34 17 14 22 29 22 63 0 35 6 52 25 70
13 14 28 25 34 25 5 0 15 15 21 34 7 21 9 58 4 94 -5 52 -4 62 13 78 11 11 30
27 41 36 17 14 22 29 22 63 0 31 6 51 18 63 11 9 29 25 40 34 17 14 22 29 22
63 0 35 6 52 25 70 13 14 28 25 34 25 5 0 15 15 21 34 7 21 9 58 4 94 -5 52
-4 62 13 78 11 11 30 27 41 36 17 14 22 29 22 63 0 31 6 51 18 63 11 9 29 25
40 34 17 14 22 29 22 63 0 31 6 51 18 63 11 9 29 25 40 34 17 14 22 29 22 63
0 42 4 49 54 98 30 28 66 60 80 70 15 10 26 28 26 40 0 12 -4 27 -8 32 -4 6
-19 18 -34 28 -16 10 -28 24 -28 31 0 8 16 23 35 35 32 18 35 24 35 66 0 31 6
50 18 63 11 9 29 25 40 34 17 14 22 29 22 63 0 38 5 51 33 79 17 18 40 43 49
55 10 11 22 21 28 21z"/>
<path d="M76237 8090 c-255 0 -298 -2 -311 -16 -9 -8 -16 -22 -16 -30 0 -8 0
-1611 0 -3564 0 -1952 0 -3556 0 -3564 0 -8 7 -22 16 -30 13 -14 63 -16 394
-16 331 0 381 2 394 16 9 8 16 21 16 27 0 7 1 1274 3 2817 2 2634 3 2805 19
2808 9 2 25 -7 35 -19 10 -12 30 -34 44 -48 20 -20 28 -39 32 -81 3 -43 9 -57
28 -70 13 -8 68 -59 121 -112 95 -95 98 -99 98 -143 0 -34 5 -49 22 -63 11 -9
65 -61 120 -114 95 -95 98 -99 98 -143 0 -34 5 -49 22 -63 11 -9 137 -133 280
-274 258 -258 258 -258 258 -303 0 -34 5 -49 22 -63 11 -9 47 -43 80 -74 54
-54 58 -61 58 -103 0 -34 5 -49 22 -63 11 -9 83 -79 160 -154 137 -137 138
-138 138 -183 0 -34 5 -49 22 -63 11 -9 65 -61 120 -114 95 -95 98 -99 98
-143 0 -34 5 -49 22 -63 11 -9 65 -61 120 -114 95 -95 98 -99 98 -143 0 -34 5
-49 22 -63 12 -9 56 -51 97 -93 70 -71 80 -77 129 -84 35 -5 55 -13 62 -25 6
-10 10 -37 10 -59 0 -30 6 -46 22 -59 11 -9 47 -43 80 -74 54 -54 58 -61 58
-103 0 -34 5 -49 22 -63 11 -9 65 -61 120 -114 95 -95 98 -99 98 -143 0 -34 5
-49 22 -63 11 -9 83 -79 160 -154 137 -137 138 -138 138 -183 0 -34 5 -49 22
-63 11 -9 65 -61 120 -114 95 -95 98 -99 98 -143 0 -34 5 -49 22 -63 11 -9 65
-61 120 -114 97 -97 98 -98 98 -147 0 -27 6 -53 13 -58 6 -6 36 -13 65 -16 50
-6 56 -10 147 -102 92 -92 95 -97 95 -140 0 -34 5 -49 22 -63 11 -9 47 -43 80
-75 54 -53 58 -60 58 -102 0 -34 5 -49 22 -63 11 -9 65 -61 120 -114 95 -95
98 -99 98 -143 0 -35 5 -49 22 -63 12 -9 38 -34 58 -54 35 -38 35 -38 372 -38
293 0 339 2 352 16 9 8 16 22 16 30 0 8 0 1612 0 3564 0 1953 0 3556 0 3564 0
8 -7 22 -16 30 -13 14 -63 16 -394 16 -331 0 -381 -2 -394 -16 -9 -8 -16 -21
-16 -27 0 -7 0 -1269 0 -2805 -1 -1729 3 -2799 9 -2810 5 -9 21 -27 35 -39 14
-13 26 -27 26 -32 0 -5 -7 -14 -15 -21 -10 -8 -29 -10 -53 -7 -20 4 -43 14
-49 24 -7 9 -13 34 -13 56 0 37 -8 47 -200 237 -200 199 -200 199 -200 245 0
34 -5 49 -22 63 -11 9 -65 61 -120 115 -95 94 -98 98 -98 142 0 34 -5 49 -22
63 -11 9 -83 79 -160 155 -137 136 -138 137 -138 182 0 34 -5 49 -22 63 -11 9
-47 43 -80 75 -54 53 -58 60 -58 102 0 34 -5 49 -22 63 -11 9 -83 79 -160 155
-137 136 -138 137 -138 182 0 34 -5 49 -22 63 -11 9 -119 115 -240 235 -218
217 -218 217 -218 262 0 34 -5 49 -22 63 -11 9 -65 61 -120 115 -95 94 -98 98
-98 142 0 34 -5 49 -22 63 -11 9 -83 79 -160 155 -137 136 -138 137 -138 182
0 34 -5 49 -22 63 -11 9 -65 61 -120 115 -95 94 -98 98 -98 142 0 34 -5 49
-22 63 -11 9 -65 61 -120 115 -95 94 -98 98 -98 142 0 34 -5 49 -22 63 -11 9
-119 115 -240 235 -218 217 -218 217 -218 262 0 34 -5 49 -22 63 -11 9 -65 61
-120 115 -95 94 -98 98 -98 142 0 34 -5 49 -22 63 -11 9 -83 79 -160 155 -137
136 -138 137 -138 182 0 34 -5 49 -22 63 -11 9 -65 61 -120 115 -95 94 -98 98
-98 142 0 34 -5 49 -22 63 -12 9 -74 70 -139 135 -117 117 -117 117 -412 117z"/>
<path d="M85800 8090 c-1539 0 -1539 0 -1564 -33 -14 -18 -37 -39 -50 -47 -14
-7 -27 -19 -31 -28 -3 -8 -5 -1597 -5 -3531 0 -1934 0 -3524 0 -3533 0 -9 7
-24 16 -32 14 -14 198 -16 1874 -16 1858 0 1858 0 1887 36 29 36 29 36 278 41
250 4 250 4 280 38 24 27 40 35 80 40 41 5 56 13 82 43 32 37 32 37 119 37 87
1 87 1 118 37 26 31 39 38 84 44 44 6 57 12 78 40 22 28 34 34 80 40 46 5 59
12 80 39 21 27 34 35 77 40 50 7 56 12 164 121 104 107 115 115 159 121 47 6
54 12 364 322 174 174 327 324 338 333 17 14 22 29 22 63 0 45 1 46 145 190
80 80 150 145 155 145 4 0 14 16 20 35 7 21 9 56 5 90 -6 42 -4 61 9 79 8 14
24 27 35 31 11 3 25 21 31 40 7 20 8 57 4 93 -5 52 -4 62 13 78 11 11 30 27
41 36 17 14 22 29 22 63 0 35 6 52 25 70 13 14 28 25 34 25 5 0 15 16 21 35 7
21 9 56 5 90 -6 42 -4 61 9 79 8 14 24 27 35 31 11 3 24 18 29 34 5 15 8 92 6
172 -2 112 0 149 11 166 8 12 23 24 34 28 11 3 23 15 26 26 4 11 7 235 7 499
0 264 -3 488 -7 499 -3 11 -15 23 -26 26 -11 4 -26 16 -34 28 -11 17 -13 54
-11 166 2 80 -1 157 -6 172 -5 16 -18 31 -29 34 -11 4 -27 17 -35 31 -13 18
-15 37 -9 79 4 34 2 69 -5 90 -6 19 -16 35 -21 35 -6 0 -21 11 -34 25 -19 18
-25 35 -25 70 0 34 -5 49 -22 63 -11 9 -30 25 -41 36 -17 16 -18 26 -13 78 4
36 3 73 -4 93 -6 19 -20 37 -31 40 -11 4 -27 17 -35 31 -13 18 -15 37 -9 79 4
34 2 69 -5 90 -6 19 -16 35 -20 35 -5 0 -57 47 -115 105 -103 102 -105 106
-105 150 0 34 -5 49 -22 63 -11 9 -47 43 -80 75 -54 53 -58 60 -58 102 0 34
-5 49 -22 63 -12 9 -92 87 -177 173 -149 149 -159 156 -204 162 -46 6 -55 14
-160 120 -106 107 -115 114 -161 120 -44 6 -55 14 -120 81 -66 68 -75 74 -123
81 -43 5 -56 12 -77 40 -21 27 -34 34 -80 39 -46 6 -58 12 -80 40 -21 28 -34
35 -80 40 -46 6 -58 12 -80 40 -21 28 -34 35 -80 40 -46 6 -58 12 -80 40 -21
28 -34 34 -78 40 -43 6 -59 13 -83 41 -30 34 -30 34 -239 39 -210 5 -210 5
-240 40 -31 35 -31 35 -360 39 -329 4 -329 4 -358 40 -30 37 -30 37 -1568 37z
m543 -744 c1298 -1 1298 -1 1330 -38 32 -37 32 -37 202 -42 170 -6 170 -6 201
-43 31 -37 31 -37 118 -38 87 0 87 0 119 -38 32 -37 32 -37 160 -41 128 -4
128 -4 200 -79 65 -67 76 -75 121 -81 44 -5 55 -13 120 -80 64 -66 76 -74 120
-80 44 -5 55 -13 120 -80 64 -66 76 -74 119 -79 44 -6 55 -14 142 -102 92 -92
95 -97 95 -140 0 -34 5 -49 22 -63 11 -9 65 -61 120 -114 95 -95 98 -99 98
-143 0 -34 5 -49 22 -63 11 -9 48 -43 81 -76 59 -58 59 -58 53 -118 -5 -36 -3
-73 4 -94 6 -19 16 -34 21 -34 6 0 21 -11 34 -25 19 -18 25 -35 25 -70 0 -34
5 -49 22 -63 11 -9 30 -25 41 -36 17 -16 18 -26 13 -78 -4 -36 -3 -73 4 -93 6
-19 20 -37 31 -40 11 -4 26 -17 35 -30 12 -18 14 -42 9 -120 -4 -60 -2 -109 5
-130 6 -19 20 -37 31 -40 11 -4 26 -16 34 -28 11 -18 14 -104 14 -487 0 -383
-3 -469 -14 -487 -8 -12 -23 -24 -34 -28 -11 -3 -25 -21 -31 -40 -7 -21 -9
-70 -5 -130 5 -78 3 -102 -9 -120 -9 -13 -24 -26 -35 -30 -11 -3 -25 -21 -31
-40 -7 -20 -8 -57 -4 -93 5 -52 4 -62 -13 -78 -11 -11 -30 -27 -41 -36 -17
-14 -22 -29 -22 -63 0 -31 -6 -51 -18 -62 -11 -10 -29 -26 -40 -35 -17 -14
-22 -29 -22 -63 0 -31 -6 -51 -18 -62 -11 -10 -29 -26 -40 -35 -17 -14 -22
-29 -22 -63 0 -31 -6 -51 -18 -62 -11 -10 -29 -26 -40 -35 -17 -14 -22 -29
-22 -63 0 -45 0 -45 -295 -340 -289 -290 -296 -296 -343 -302 -42 -5 -54 -13
-118 -79 -65 -67 -76 -75 -120 -80 -44 -6 -56 -14 -120 -80 -65 -68 -76 -75
-120 -80 -39 -5 -55 -13 -79 -40 -31 -35 -31 -35 -160 -40 -130 -5 -130 -5
-162 -42 -32 -37 -32 -37 -119 -37 -87 -1 -87 -1 -118 -39 -32 -37 -32 -37
-242 -42 -209 -5 -209 -5 -241 -42 -32 -37 -32 -37 -1273 -37 -1214 0 -1242 0
-1256 19 -12 17 -14 438 -14 2886 0 2263 3 2870 13 2883 6 8 23 18 37 20 14 2
609 4 1323 3z"/>
<path d="M95800 8090 c-738 0 -738 0 -767 -35 -28 -36 -28 -36 -158 -41 -130
-5 -130 -5 -160 -39 -30 -35 -30 -35 -200 -41 -170 -5 -170 -5 -200 -39 -24
-26 -41 -35 -80 -41 -46 -6 -56 -13 -122 -81 -66 -69 -75 -74 -123 -80 -43 -5
-55 -11 -76 -39 -21 -28 -34 -34 -80 -40 -46 -5 -59 -12 -80 -39 -21 -28 -34
-35 -77 -40 -48 -7 -57 -13 -123 -81 -64 -67 -76 -75 -120 -81 -47 -6 -53 -11
-364 -322 -174 -174 -327 -324 -338 -333 -17 -14 -22 -29 -22 -63 0 -42 -4
-49 -58 -102 -33 -32 -69 -66 -80 -75 -17 -14 -22 -29 -22 -63 0 -31 -6 -51
-18 -62 -11 -10 -29 -26 -40 -35 -17 -14 -22 -29 -22 -63 0 -31 -6 -51 -18
-62 -11 -10 -29 -26 -40 -35 -17 -14 -22 -29 -22 -63 0 -43 -4 -49 -66 -110
-36 -36 -69 -65 -74 -65 -5 0 -14 -16 -20 -35 -7 -21 -9 -56 -5 -90 6 -42 4
-61 -9 -79 -8 -14 -24 -27 -35 -31 -11 -3 -23 -18 -28 -33 -5 -15 -8 -110 -7
-212 2 -146 0 -190 -11 -207 -8 -12 -23 -24 -34 -28 -10 -3 -22 -13 -26 -23
-3 -9 -6 -343 -6 -742 0 -399 3 -733 6 -742 4 -10 16 -20 26 -23 11 -4 26 -16
34 -28 11 -17 13 -61 11 -207 -1 -102 2 -197 7 -212 5 -16 13 -28 18 -28 6 0
21 -11 34 -25 19 -18 25 -35 25 -70 0 -34 5 -49 22 -63 11 -9 29 -25 40 -34
12 -12 18 -32 18 -63 0 -34 5 -49 22 -63 11 -9 29 -25 40 -34 12 -12 18 -32
18 -63 0 -34 5 -49 22 -63 11 -9 48 -43 81 -76 59 -58 59 -58 53 -118 -5 -36
-3 -73 4 -94 6 -19 16 -34 20 -34 5 0 57 -47 115 -105 103 -102 105 -106 105
-150 0 -34 5 -49 22 -63 11 -9 128 -123 258 -253 229 -229 237 -236 284 -242
45 -6 55 -14 163 -124 115 -117 115 -117 198 -118 83 0 83 0 157 -77 68 -70
77 -76 125 -83 43 -5 56 -12 77 -40 21 -27 34 -34 80 -39 46 -6 58 -12 80 -40
21 -28 34 -34 78 -40 43 -6 59 -13 83 -41 30 -34 30 -34 200 -39 170 -6 170
-6 200 -40 30 -35 30 -35 200 -40 170 -6 170 -6 198 -41 29 -35 29 -35 647
-35 618 0 618 0 647 35 28 35 28 35 198 41 170 5 170 5 200 40 31 35 31 35
160 40 130 5 130 5 162 42 32 37 32 37 117 37 85 1 85 1 160 78 70 73 77 78
126 84 43 5 55 11 76 39 21 28 34 34 80 40 46 5 59 12 80 39 21 28 34 35 77
40 48 7 57 13 123 81 64 67 76 75 120 81 47 6 53 11 364 322 174 174 327 324
338 333 17 14 22 29 22 63 0 42 4 49 58 103 33 31 69 65 80 74 17 14 22 29 22
63 0 31 6 51 18 63 11 9 29 25 40 34 17 14 22 29 22 63 0 31 6 51 18 63 11 9
29 25 40 34 17 14 22 29 22 63 0 43 4 49 66 110 36 36 69 65 74 65 5 0 14 15
20 34 7 21 9 58 4 94 -5 44 -3 62 7 71 8 6 26 20 42 32 15 11 27 30 27 42 0
12 -4 27 -8 32 -4 6 -19 18 -34 28 -16 10 -28 24 -28 32 0 8 14 22 30 30 17 9
35 28 41 43 6 15 8 52 4 85 -5 44 -3 63 9 81 8 14 24 27 35 31 11 3 24 18 29
34 5 15 8 92 6 172 -2 112 0 149 11 166 8 12 23 24 34 28 11 3 23 15 26 26 4
12 7 200 7 419 0 219 -3 407 -7 419 -3 11 -15 23 -26 26 -11 4 -26 16 -34 28
-11 17 -13 54 -11 166 2 80 -1 157 -6 172 -5 16 -18 31 -29 34 -11 4 -26 17
-35 30 -12 18 -13 43 -9 122 4 58 2 110 -4 125 -6 15 -24 34 -41 43 -16 8 -30
22 -30 30 0 8 12 22 28 32 15 10 30 22 34 28 4 5 8 20 8 32 0 12 -12 31 -27
42 -16 12 -34 26 -40 31 -7 6 -13 31 -13 55 0 34 -5 49 -22 63 -11 9 -47 43
-80 75 -54 53 -58 60 -58 102 0 34 -5 49 -22 63 -11 9 -29 25 -40 35 -12 11
-18 31 -18 62 0 34 -5 49 -22 63 -11 9 -29 25 -40 35 -12 11 -18 31 -18 62 0
34 -5 49 -22 63 -11 9 -29 25 -40 35 -12 11 -18 31 -18 62 0 34 -5 49 -22 63
-11 9 -200 195 -418 413 -397 397 -397 397 -448 404 -42 5 -56 13 -76 39 -21
28 -33 34 -76 39 -48 6 -57 11 -123 80 -67 69 -76 75 -124 82 -43 5 -56 12
-77 40 -21 27 -34 34 -80 39 -46 6 -58 12 -80 40 -21 28 -34 34 -78 40 -43 6
-59 13 -83 41 -30 34 -30 34 -200 39 -170 6 -170 6 -200 41 -30 34 -30 34
-160 39 -130 5 -130 5 -158 41 -29 35 -29 35 -767 35z m23 -665 c219 -1 219
-1 250 -37 32 -37 32 -37 241 -42 210 -5 210 -5 242 -42 31 -38 31 -38 118
-39 87 0 87 0 119 -37 26 -30 41 -38 82 -43 40 -5 56 -13 80 -40 30 -34 30
-34 160 -39 129 -5 129 -5 160 -40 24 -27 40 -35 78 -40 46 -6 53 -11 240
-199 186 -187 194 -194 240 -200 44 -6 55 -14 142 -102 92 -92 95 -97 95 -140
0 -34 5 -49 22 -63 11 -9 83 -79 160 -154 137 -137 138 -138 138 -183 0 -34 5
-49 22 -63 11 -9 29 -25 40 -34 12 -12 18 -32 18 -63 0 -34 5 -49 22 -63 11
-9 29 -25 40 -34 12 -12 18 -32 18 -63 0 -34 5 -49 22 -63 11 -9 29 -25 39
-34 16 -15 18 -33 15 -164 -2 -81 1 -160 6 -175 5 -16 18 -31 29 -34 11 -4 26
-16 34 -28 11 -17 13 -54 11 -166 -2 -80 1 -157 6 -172 5 -16 18 -31 29 -34
11 -4 26 -16 33 -28 12 -18 14 -84 14 -327 0 -243 -2 -309 -14 -327 -7 -12
-22 -24 -33 -28 -11 -3 -24 -18 -29 -34 -5 -15 -8 -92 -6 -172 2 -112 0 -149
-11 -166 -8 -12 -23 -24 -34 -28 -11 -3 -25 -21 -31 -40 -7 -21 -9 -70 -5
-130 5 -78 3 -102 -9 -120 -9 -13 -24 -26 -35 -30 -11 -3 -25 -21 -31 -40 -7
-20 -8 -57 -4 -93 5 -52 4 -62 -13 -78 -11 -11 -30 -27 -41 -36 -17 -14 -22
-29 -22 -63 0 -42 -4 -49 -58 -102 -33 -32 -69 -66 -80 -75 -17 -14 -22 -29
-22 -63 0 -45 0 -45 -415 -460 -416 -416 -416 -416 -466 -422 -41 -5 -55 -12
-75 -39 -21 -27 -34 -33 -77 -39 -43 -5 -57 -12 -84 -43 -32 -37 -32 -37 -119
-37 -87 -1 -87 -1 -118 -37 -25 -30 -40 -38 -81 -43 -40 -5 -56 -13 -80 -41
-31 -35 -31 -35 -160 -40 -130 -5 -130 -5 -162 -42 -32 -37 -32 -37 -633 -37
-601 0 -601 0 -633 37 -32 37 -32 37 -162 42 -129 5 -129 5 -160 40 -24 28
-40 36 -80 41 -40 5 -56 13 -80 40 -30 34 -30 34 -160 39 -129 5 -129 5 -160
40 -24 27 -40 35 -79 40 -44 5 -55 12 -120 80 -64 66 -76 74 -118 79 -47 7
-53 12 -423 382 -375 375 -375 375 -375 420 0 34 -5 49 -22 63 -11 9 -29 25
-40 35 -12 11 -18 31 -18 62 0 34 -5 49 -22 63 -11 9 -29 25 -40 35 -12 11
-18 31 -18 62 0 34 -5 49 -22 63 -11 9 -29 25 -40 35 -12 11 -18 31 -18 62 0
34 -5 49 -22 63 -11 9 -29 25 -39 34 -16 15 -18 33 -15 164 2 81 -1 160 -6
175 -5 16 -18 31 -29 34 -11 4 -26 16 -34 28 -11 17 -13 61 -11 207 1 102 -2
197 -7 212 -5 15 -17 30 -27 33 -10 3 -24 13 -31 22 -10 11 -14 58 -15 167 -1
109 3 157 12 173 8 12 22 24 33 28 11 3 23 18 28 33 5 15 8 128 6 252 -1 179
1 229 12 247 8 12 23 24 34 28 11 3 25 21 31 40 7 21 9 70 5 130 -5 78 -3 102
9 120 9 13 24 26 35 30 11 3 25 21 31 40 7 20 8 57 4 93 -5 52 -4 62 13 78 11
11 30 27 41 36 17 14 22 29 22 63 0 42 4 49 58 103 33 31 69 65 80 74 17 14
22 29 22 63 0 45 0 45 415 460 416 416 416 416 466 422 41 5 55 12 75 39 21
27 34 33 77 39 43 5 57 12 84 43 32 37 32 37 119 37 87 1 87 1 118 37 25 30
40 38 81 43 40 5 56 13 80 41 31 35 31 35 160 40 130 5 130 5 160 39 30 35 30
35 200 41 170 5 170 5 200 39 17 18 41 35 55 37 14 2 123 3 243 3z"/>
</g>
</svg>
