<?xml version="1.0" standalone="no"?>
<!DOCTYPE svg PUBLIC "-//W3C//DTD SVG 20010904//EN"
 "http://www.w3.org/TR/2001/REC-SVG-20010904/DTD/svg10.dtd">
<svg version="1.1" xmlns="http://www.w3.org/2000/svg"
 width="648.000000pt" height="596.160000pt" viewBox="0 0 648.000000 596.160000"
 preserveAspectRatio="xMidYMid meet">
<metadata>
Created by potrace 1.16, written by Peter Selinger 2001-2019
</metadata>
<g transform="translate(0.000000,596.160000) scale(0.024000,-0.024000)"
fill="#FFFFFF" stroke="none">
<path d="M10160 24205 c-344 1 -650 -1 -680 -5 -30 -5 -96 -8 -146 -9 -50 -1
-158 -7 -240 -15 -82 -8 -232 -20 -334 -26 -102 -6 -234 -18 -295 -26 -60 -9
-150 -24 -200 -34 -49 -10 -155 -32 -235 -48 -80 -17 -200 -38 -268 -46 -67
-9 -157 -28 -199 -41 -43 -14 -133 -35 -201 -46 -68 -10 -172 -31 -230 -45
-59 -15 -134 -37 -168 -50 -34 -12 -101 -30 -149 -39 -48 -9 -129 -32 -179
-52 -50 -19 -136 -48 -191 -64 -55 -16 -136 -47 -180 -68 -44 -22 -107 -47
-140 -57 -33 -9 -105 -36 -160 -59 -55 -23 -131 -52 -170 -65 -38 -12 -119
-45 -180 -72 -60 -27 -177 -83 -260 -125 -82 -42 -163 -85 -179 -96 -15 -11
-112 -62 -215 -114 -102 -53 -217 -114 -254 -137 -37 -22 -89 -55 -115 -73
-26 -17 -66 -44 -90 -60 -23 -15 -70 -47 -105 -71 -34 -23 -81 -54 -105 -70
-24 -15 -94 -63 -156 -107 -63 -44 -149 -107 -192 -140 -44 -32 -104 -81 -134
-107 -30 -26 -116 -100 -190 -164 -74 -65 -267 -250 -428 -413 -161 -163 -307
-316 -324 -341 -17 -25 -45 -61 -63 -80 -18 -19 -62 -75 -99 -123 -36 -49 -71
-98 -77 -110 -7 -12 -33 -47 -59 -77 -26 -30 -63 -80 -83 -111 -19 -31 -40
-60 -46 -63 -6 -4 -41 -53 -78 -109 -37 -56 -87 -138 -112 -182 -24 -44 -68
-124 -97 -178 -29 -55 -60 -107 -69 -117 -9 -10 -38 -60 -64 -111 -27 -52 -62
-121 -79 -154 -17 -33 -52 -107 -78 -165 -25 -58 -59 -145 -74 -195 -15 -49
-44 -132 -64 -183 -19 -51 -45 -132 -56 -180 -11 -48 -36 -126 -56 -174 -22
-56 -49 -159 -74 -280 -22 -106 -50 -240 -64 -298 -13 -58 -29 -136 -35 -175
-6 -38 -15 -122 -20 -185 -6 -63 -15 -178 -21 -255 -6 -77 -17 -210 -25 -295
-9 -87 -15 -254 -15 -383 0 -154 5 -260 16 -330 8 -56 12 -117 9 -134 -3 -18
3 -113 14 -210 11 -98 23 -221 26 -273 4 -52 18 -147 31 -210 14 -63 42 -196
64 -295 21 -99 44 -202 51 -230 6 -27 27 -87 45 -132 19 -45 43 -121 54 -169
11 -47 33 -116 49 -153 16 -36 45 -115 65 -174 20 -59 49 -134 65 -165 16 -31
41 -85 55 -120 14 -34 41 -86 60 -115 18 -28 47 -79 64 -113 17 -34 42 -74 55
-90 14 -16 45 -65 69 -109 25 -44 61 -106 79 -139 19 -32 67 -108 108 -170 41
-61 89 -129 107 -151 18 -22 60 -71 92 -110 32 -38 69 -86 82 -105 13 -19 65
-84 116 -145 50 -60 121 -138 159 -173 37 -35 83 -84 103 -110 20 -26 47 -56
61 -66 14 -11 71 -63 126 -116 55 -52 127 -118 160 -146 33 -27 80 -65 105
-84 25 -18 68 -54 95 -80 28 -26 79 -69 115 -96 36 -28 112 -82 170 -120 58
-39 155 -103 215 -142 61 -40 133 -89 160 -111 28 -21 75 -53 105 -71 30 -18
73 -45 95 -60 22 -15 71 -41 108 -58 38 -17 94 -47 125 -66 31 -19 85 -45 119
-59 34 -14 82 -39 106 -56 25 -17 69 -40 99 -51 29 -11 84 -39 120 -63 37 -24
93 -54 125 -67 32 -13 92 -40 133 -60 41 -21 107 -47 145 -60 39 -12 111 -40
160 -61 50 -20 119 -45 155 -54 36 -9 97 -34 135 -55 39 -21 104 -48 145 -60
41 -13 104 -36 140 -52 36 -16 88 -38 115 -48 28 -10 79 -26 115 -35 36 -9 96
-30 133 -46 37 -17 138 -48 225 -69 86 -22 185 -51 220 -65 35 -14 105 -34
155 -45 51 -10 126 -34 167 -54 42 -19 141 -51 220 -71 80 -20 188 -51 241
-70 52 -18 138 -41 190 -50 52 -10 171 -39 264 -66 94 -26 209 -55 257 -64 48
-9 127 -29 175 -46 47 -16 135 -38 194 -49 60 -11 164 -40 232 -64 67 -24 177
-56 242 -71 66 -15 165 -42 220 -60 55 -18 136 -40 181 -49 45 -8 164 -36 265
-62 101 -26 240 -57 309 -69 69 -12 208 -43 310 -68 102 -25 226 -53 275 -63
50 -9 131 -34 180 -54 50 -21 128 -46 174 -55 46 -9 113 -28 150 -42 36 -14
107 -36 156 -50 50 -14 124 -33 165 -44 41 -11 100 -28 130 -38 30 -11 127
-40 215 -66 88 -26 180 -57 205 -70 25 -12 79 -33 120 -45 41 -12 101 -37 133
-56 31 -20 96 -48 143 -64 46 -16 108 -42 137 -59 29 -16 86 -43 127 -59 41
-17 121 -53 176 -81 56 -28 105 -51 108 -51 3 0 50 -29 103 -65 54 -35 120
-81 147 -102 27 -21 75 -56 106 -78 32 -22 94 -68 139 -103 45 -35 115 -98
157 -140 42 -42 94 -104 117 -137 22 -33 59 -85 82 -115 23 -30 63 -103 89
-163 30 -68 55 -146 69 -215 19 -95 22 -138 21 -377 0 -215 -4 -291 -18 -370
-11 -63 -38 -151 -73 -240 -32 -81 -70 -161 -92 -190 -21 -27 -53 -75 -73
-105 -19 -30 -84 -106 -143 -169 -60 -63 -139 -142 -177 -175 -38 -34 -86 -73
-106 -89 -20 -15 -64 -48 -97 -73 -33 -25 -104 -70 -157 -100 -54 -30 -126
-65 -161 -79 -35 -13 -93 -39 -128 -58 -35 -19 -95 -45 -134 -57 -38 -12 -113
-42 -165 -66 -53 -24 -127 -51 -165 -60 -39 -9 -97 -24 -130 -34 -33 -11 -92
-30 -131 -44 -40 -14 -125 -32 -195 -41 -68 -8 -173 -22 -234 -30 -60 -8 -209
-25 -330 -39 -121 -14 -285 -30 -365 -36 -80 -5 -327 -10 -550 -10 -270 0
-463 5 -580 15 -96 8 -281 30 -410 49 -129 19 -289 42 -355 51 -76 11 -162 31
-235 55 -63 22 -156 48 -206 59 -51 11 -118 33 -150 49 -33 16 -116 48 -186
71 -70 23 -162 57 -205 77 -43 20 -99 45 -125 55 -26 10 -102 46 -170 80 -68
34 -148 78 -178 99 -30 20 -75 49 -100 64 -25 15 -68 46 -96 69 -28 23 -100
80 -159 127 -60 47 -133 107 -163 135 -30 27 -87 88 -126 134 -39 46 -94 114
-123 150 -29 36 -69 91 -90 121 -20 30 -55 75 -76 98 -22 24 -52 72 -67 105
-16 34 -47 93 -69 132 -23 38 -46 85 -52 105 -6 19 -26 69 -44 110 -19 41 -52
140 -73 220 -22 80 -56 213 -76 295 -19 83 -40 202 -46 265 -6 63 -15 192 -20
285 -6 94 -14 193 -19 220 -6 28 -10 169 -10 315 -1 224 -3 269 -17 288 -8 12
-30 30 -47 40 -30 16 -190 17 -2815 20 -2390 2 -2787 0 -2816 -12 -19 -8 -42
-27 -52 -42 -12 -17 -21 -60 -27 -118 -5 -50 -11 -264 -13 -476 -4 -314 -2
-400 10 -465 8 -46 17 -175 20 -300 4 -121 11 -263 16 -315 6 -52 17 -165 25
-250 8 -85 28 -220 44 -300 16 -80 39 -204 51 -276 11 -73 33 -183 49 -245 16
-63 47 -179 69 -259 23 -80 54 -174 70 -210 16 -36 40 -101 52 -145 12 -44 42
-119 66 -167 24 -48 53 -122 65 -165 12 -43 37 -109 57 -148 19 -38 45 -98 58
-132 13 -34 51 -117 85 -185 34 -68 74 -141 89 -163 15 -22 40 -65 55 -95 15
-30 45 -76 67 -102 21 -26 51 -74 65 -105 14 -32 46 -91 72 -131 25 -41 78
-124 118 -185 39 -62 95 -145 125 -185 29 -41 69 -93 89 -115 20 -23 58 -71
86 -107 27 -36 71 -94 98 -130 27 -36 77 -100 112 -143 34 -43 133 -153 220
-244 87 -92 194 -203 238 -247 44 -45 120 -115 169 -156 49 -41 137 -118 195
-172 58 -53 140 -122 181 -154 41 -32 131 -98 200 -146 69 -49 154 -111 190
-138 36 -27 101 -76 145 -108 44 -33 96 -67 115 -77 19 -10 55 -32 80 -49 25
-17 81 -50 125 -75 44 -24 129 -70 189 -102 59 -32 118 -67 130 -78 13 -12 63
-43 112 -70 49 -27 112 -60 139 -74 28 -15 93 -47 145 -73 52 -25 134 -61 181
-79 48 -18 110 -45 138 -60 29 -14 89 -40 134 -56 45 -17 110 -46 144 -65 34
-19 108 -50 164 -70 57 -20 123 -46 148 -59 26 -12 104 -39 175 -59 71 -21
156 -48 189 -61 32 -13 100 -33 150 -44 51 -11 147 -38 215 -61 67 -22 180
-52 250 -66 70 -14 165 -41 212 -60 47 -19 124 -41 170 -49 47 -8 153 -30 235
-50 83 -19 209 -46 280 -59 72 -14 193 -33 269 -41 77 -9 191 -27 255 -40 64
-13 172 -29 241 -35 69 -6 186 -18 260 -25 74 -8 212 -19 305 -25 94 -6 204
-15 245 -21 41 -5 134 -17 205 -25 72 -8 267 -19 435 -26 168 -6 413 -11 545
-11 132 0 391 4 575 9 184 5 341 13 347 17 7 5 65 10 128 13 64 2 137 9 163
15 26 6 119 14 207 19 88 5 257 18 375 29 118 11 258 23 310 26 52 4 160 18
240 32 80 13 210 33 290 44 80 11 219 33 310 50 91 16 206 40 255 53 50 14
139 34 200 46 60 12 146 37 191 55 46 19 143 48 217 64 74 16 181 46 238 66
57 20 142 45 189 56 47 11 179 52 295 90 115 39 224 79 240 89 17 10 73 32
125 49 52 17 124 49 160 70 36 21 106 53 155 71 50 18 110 43 135 56 25 12 81
37 125 54 44 17 103 44 130 59 28 15 81 41 120 57 38 16 91 44 117 62 26 17
74 44 105 58 32 14 79 43 105 64 25 22 79 55 120 75 40 19 114 58 163 87 50
29 118 71 153 93 34 22 113 75 175 118 61 43 126 91 142 106 17 15 66 54 110
87 44 33 103 75 130 94 28 19 83 60 124 93 41 32 146 127 235 210 88 84 213
204 276 267 64 63 183 189 266 280 82 91 173 195 202 231 28 37 77 102 109
145 31 44 83 117 116 164 32 47 88 128 123 180 36 52 79 116 97 142 18 26 48
74 68 105 20 32 51 87 69 123 18 36 47 90 66 120 18 30 45 87 60 125 14 39 41
95 59 125 18 30 45 85 60 121 14 37 42 91 61 120 19 30 44 83 55 119 11 36 35
102 55 147 19 45 63 173 98 285 35 112 76 260 91 328 15 69 42 172 60 230 18
58 35 116 38 130 4 14 13 73 22 133 9 59 29 151 45 205 15 53 33 124 39 157 5
33 17 132 25 220 8 88 19 219 25 290 6 72 14 204 18 295 4 91 7 230 7 310 0
80 -5 267 -12 415 -6 149 -14 286 -16 305 -3 19 -10 87 -16 150 -6 63 -16 155
-21 205 -6 49 -27 160 -49 245 -21 85 -45 199 -54 253 -9 54 -28 128 -42 165
-14 37 -40 131 -59 208 -19 78 -64 231 -101 340 -36 110 -79 225 -95 256 -16
31 -40 88 -54 125 -14 37 -41 91 -60 118 -19 28 -46 77 -61 110 -15 33 -44 83
-65 110 -21 28 -47 72 -58 98 -11 26 -48 91 -82 145 -33 53 -95 145 -137 203
-43 59 -95 130 -117 158 -22 28 -61 77 -86 109 -25 31 -54 71 -65 87 -10 17
-77 100 -148 185 -72 85 -211 239 -310 342 -99 103 -236 239 -305 302 -69 63
-160 142 -201 175 -41 34 -110 88 -152 121 -42 33 -81 66 -85 74 -4 7 -39 35
-76 62 -37 27 -114 82 -170 121 -56 40 -120 82 -142 94 -22 12 -77 46 -123 75
-45 30 -104 65 -130 78 -26 13 -56 33 -66 45 -11 12 -79 57 -150 100 -72 42
-203 113 -291 157 -88 43 -184 93 -214 111 -29 18 -82 42 -116 53 -35 12 -88
39 -119 61 -30 22 -84 50 -119 64 -35 13 -101 41 -148 63 -46 22 -119 49 -162
61 -42 11 -119 39 -170 60 -50 22 -126 47 -167 56 -41 10 -109 34 -150 55 -41
21 -111 45 -155 55 -44 10 -116 31 -160 47 -44 16 -115 41 -158 54 -42 14
-119 34 -170 45 -50 11 -126 32 -167 45 -41 14 -128 36 -192 49 -65 14 -146
32 -180 40 -35 9 -110 29 -168 45 -58 17 -149 36 -203 44 -54 8 -146 30 -205
49 -59 19 -182 52 -275 72 -92 20 -216 52 -274 71 -59 18 -148 41 -198 50 -49
9 -159 36 -243 60 -84 24 -213 55 -285 69 -73 13 -175 37 -227 53 -52 16 -141
37 -197 46 -56 9 -168 39 -250 67 -81 27 -196 58 -256 69 -59 12 -142 35 -184
52 -42 16 -128 41 -191 54 -62 13 -189 44 -280 68 -92 25 -217 54 -279 66 -62
11 -132 28 -155 36 -24 9 -129 35 -233 59 -122 27 -225 57 -285 83 -52 22
-137 49 -187 61 -51 11 -119 32 -151 45 -32 14 -139 47 -238 75 -98 27 -200
58 -226 69 -25 12 -97 34 -158 52 -61 17 -137 43 -168 59 -32 15 -89 38 -127
49 -39 12 -100 40 -135 63 -36 23 -92 52 -125 64 -33 13 -114 51 -180 86 -66
34 -154 82 -195 107 -41 25 -95 62 -120 81 -25 20 -82 71 -127 114 -68 66 -91
95 -133 178 -30 58 -57 128 -65 167 -8 37 -22 142 -32 232 -9 91 -17 199 -18
240 0 41 8 149 18 239 10 91 24 197 33 237 9 44 38 121 74 196 33 67 79 146
102 174 24 28 63 80 88 115 24 35 93 112 152 170 59 59 134 124 165 145 32 21
76 52 98 70 22 17 63 44 90 59 28 16 65 42 84 58 18 15 52 37 75 47 22 11 88
40 145 65 58 25 190 70 295 99 105 30 223 61 261 69 39 8 97 18 130 21 33 4
128 17 210 31 83 13 193 30 245 36 63 8 242 11 525 10 237 -1 462 -6 500 -11
39 -5 126 -16 195 -25 69 -8 188 -22 265 -30 77 -8 176 -19 220 -25 44 -6 190
-36 325 -66 135 -31 277 -66 315 -79 39 -12 123 -41 189 -64 65 -22 146 -56
180 -75 33 -18 92 -50 129 -70 37 -19 82 -46 100 -60 18 -13 59 -38 92 -55 33
-18 96 -56 139 -87 44 -30 111 -82 149 -116 38 -34 117 -119 176 -189 58 -69
134 -164 167 -210 34 -46 76 -113 94 -149 18 -35 42 -80 55 -100 12 -19 51
-115 88 -212 36 -98 74 -217 82 -265 9 -49 28 -132 41 -186 14 -54 31 -149 39
-210 9 -62 22 -182 31 -267 9 -85 19 -249 24 -365 4 -115 12 -221 17 -235 6
-14 20 -33 31 -43 11 -11 38 -25 59 -33 32 -11 496 -13 2800 -14 2510 0 2766
1 2803 16 25 10 48 29 62 52 22 36 22 39 20 410 -1 205 -5 378 -8 384 -4 6
-10 148 -15 317 -4 168 -13 353 -19 411 -6 58 -19 152 -30 210 -11 58 -26 164
-35 235 -8 72 -31 209 -50 305 -19 97 -44 202 -55 235 -11 32 -29 104 -40 158
-11 55 -38 141 -59 191 -21 50 -53 140 -70 199 -17 59 -46 138 -65 175 -18 37
-42 96 -51 132 -10 36 -34 98 -52 139 -19 40 -50 112 -68 160 -18 47 -62 141
-98 209 -37 67 -77 137 -90 155 -14 17 -35 52 -47 77 -12 25 -39 68 -58 95
-20 28 -55 84 -77 125 -23 41 -60 104 -82 140 -22 36 -79 121 -127 190 -47 69
-110 153 -139 187 -28 34 -88 106 -133 161 -44 54 -94 118 -112 143 -17 24
-61 79 -99 121 -37 42 -99 104 -138 138 -38 34 -122 117 -185 185 -64 68 -147
152 -185 186 -39 34 -98 82 -131 108 -34 25 -101 80 -148 121 -48 41 -119 103
-159 137 -40 35 -92 75 -117 89 -25 15 -99 63 -165 107 -66 44 -129 87 -140
97 -11 10 -43 31 -71 46 -27 16 -77 49 -110 72 -32 24 -97 66 -144 93 -47 27
-143 78 -215 115 -71 36 -152 75 -179 86 -28 10 -75 38 -107 62 -31 23 -83 53
-115 66 -33 13 -86 38 -119 56 -33 18 -89 44 -125 58 -36 13 -103 42 -150 64
-47 22 -124 51 -172 66 -48 14 -116 39 -151 55 -36 16 -99 39 -141 50 -42 12
-108 37 -146 56 -38 19 -134 53 -212 75 -79 22 -177 54 -218 70 -42 15 -114
36 -162 45 -48 9 -142 31 -210 50 -68 18 -154 41 -193 50 -38 8 -128 24 -200
35 -71 10 -150 25 -175 33 -25 9 -63 20 -85 26 -22 6 -101 17 -175 26 -74 9
-200 27 -280 41 -80 13 -183 33 -230 44 -47 10 -134 26 -195 34 -60 8 -144 18
-185 21 -41 3 -151 10 -245 15 -93 5 -235 15 -315 21 -80 5 -224 15 -320 21
-96 6 -456 12 -800 13z"/>
<path d="M23350 7095 c-118 1 -237 1 -265 -1 -27 -2 -97 -9 -154 -14 -57 -6
-148 -23 -205 -40 -55 -16 -171 -45 -256 -64 -85 -19 -182 -44 -215 -56 -33
-13 -107 -40 -165 -60 -58 -21 -160 -65 -227 -99 -67 -34 -168 -93 -225 -131
-57 -38 -144 -100 -194 -137 -51 -38 -125 -93 -165 -124 -41 -31 -121 -105
-179 -165 -58 -60 -151 -159 -207 -219 -56 -61 -128 -146 -160 -190 -32 -44
-90 -134 -129 -200 -39 -66 -99 -176 -133 -245 -35 -69 -78 -164 -96 -211 -18
-48 -45 -109 -59 -137 -14 -27 -46 -129 -71 -226 -25 -97 -52 -215 -60 -262
-8 -48 -22 -164 -30 -257 -8 -94 -15 -216 -15 -272 0 -55 5 -161 10 -235 6
-74 19 -193 30 -265 10 -71 28 -159 39 -195 11 -36 31 -111 45 -167 14 -55 40
-132 59 -170 19 -37 44 -100 56 -138 11 -39 35 -93 52 -120 18 -28 52 -92 75
-143 24 -51 67 -132 95 -180 28 -48 79 -125 112 -172 33 -47 85 -114 116 -149
31 -35 81 -91 112 -125 30 -33 70 -80 87 -103 18 -23 85 -86 150 -140 64 -54
132 -109 150 -122 19 -13 61 -48 95 -77 34 -30 105 -81 157 -115 52 -33 135
-83 184 -110 49 -28 121 -62 160 -76 39 -14 101 -41 138 -59 37 -19 107 -45
155 -59 48 -14 123 -41 165 -61 56 -26 118 -43 230 -64 84 -16 175 -34 201
-40 26 -5 105 -17 175 -25 70 -8 208 -15 307 -15 99 0 222 5 273 10 51 6 136
19 190 30 53 11 151 29 217 40 77 14 149 33 200 55 44 19 127 50 185 68 58 18
146 51 195 73 50 21 160 75 245 118 85 44 191 104 235 134 44 31 99 74 123 96
23 23 72 61 107 86 35 25 99 75 142 111 43 37 114 107 159 155 44 49 99 115
122 146 23 32 51 62 62 68 11 6 47 47 82 92 34 45 87 123 117 172 30 50 88
156 128 236 41 80 86 174 100 210 15 36 41 92 59 125 18 33 39 85 48 115 9 30
34 120 57 200 22 80 46 192 54 250 8 58 17 243 21 415 4 203 3 367 -5 475 -7
91 -16 192 -22 225 -5 33 -25 114 -43 180 -19 66 -44 156 -56 200 -11 44 -41
114 -65 156 -24 42 -52 103 -63 135 -11 32 -47 111 -79 174 -33 63 -86 159
-117 214 -31 54 -85 134 -119 177 -34 43 -123 147 -199 231 -75 84 -169 186
-210 226 -41 40 -101 91 -135 115 -33 23 -89 63 -124 90 -35 26 -89 67 -119
91 -30 24 -71 51 -90 61 -19 9 -57 34 -85 54 -27 21 -111 67 -185 103 -74 36
-154 71 -177 77 -22 6 -81 27 -130 47 -48 20 -133 46 -188 59 -55 13 -135 31
-177 40 -43 9 -117 29 -165 44 -49 16 -135 34 -193 41 -58 6 -202 13 -320 15z"/>
</g>
</svg>
