<?xml version="1.0" standalone="no"?>
<!DOCTYPE svg PUBLIC "-//W3C//DTD SVG 20010904//EN"
 "http://www.w3.org/TR/2001/REC-SVG-20010904/DTD/svg10.dtd">
<svg version="1.1" xmlns="http://www.w3.org/2000/svg"
 width="6720.000000pt" height="1090.560000pt" viewBox="0 0 6720.000000 1090.560000"
 preserveAspectRatio="xMidYMid meet">
<metadata>
Created by potrace 1.16, written by Peter Selinger 2001-2019
</metadata>
<g transform="translate(0.000000,1090.560000) scale(0.024000,-0.024000)"
fill="#FFFFFF" stroke="none">
<path d="M18548 45440 c-2383 0 -2403 0 -2416 -20 -6 -11 -29 -28 -50 -39 -24
-12 -70 -22 -118 -26 -43 -4 -126 -17 -184 -30 -59 -14 -169 -29 -250 -34 -80
-6 -204 -15 -276 -21 -73 -5 -156 -15 -185 -20 -30 -6 -99 -15 -154 -21 -55
-6 -131 -21 -170 -34 -38 -14 -101 -31 -140 -39 -38 -7 -122 -19 -185 -25 -63
-7 -209 -26 -325 -42 -115 -16 -259 -42 -320 -58 -60 -16 -153 -40 -205 -54
-52 -15 -142 -31 -200 -37 -58 -6 -145 -18 -193 -26 -49 -8 -146 -32 -216 -54
-70 -21 -167 -48 -217 -59 -49 -11 -148 -29 -219 -40 -72 -11 -161 -30 -200
-42 -38 -11 -111 -39 -162 -60 -68 -29 -124 -44 -220 -60 -70 -11 -164 -29
-208 -40 -44 -11 -123 -40 -176 -65 -54 -25 -137 -54 -185 -65 -49 -11 -134
-35 -189 -53 -55 -19 -136 -50 -181 -70 -44 -20 -112 -43 -150 -52 -38 -8 -96
-22 -129 -30 -33 -9 -99 -38 -146 -65 -68 -39 -113 -57 -210 -80 -68 -17 -141
-40 -162 -50 -21 -11 -62 -35 -92 -54 -29 -19 -82 -43 -117 -54 -35 -11 -93
-29 -130 -41 -37 -11 -101 -42 -142 -68 -48 -32 -116 -63 -196 -91 -67 -23
-151 -59 -186 -80 -35 -21 -94 -51 -132 -66 -37 -16 -92 -39 -122 -52 -30 -13
-82 -42 -116 -64 -33 -21 -108 -58 -165 -81 -57 -22 -129 -58 -159 -78 -30
-21 -93 -56 -140 -80 -47 -23 -114 -63 -150 -88 -36 -25 -107 -65 -159 -89
-52 -24 -128 -68 -170 -97 -42 -30 -105 -67 -141 -83 -36 -17 -94 -52 -129
-78 -36 -26 -108 -69 -160 -95 -53 -27 -125 -71 -160 -100 -35 -28 -90 -64
-121 -80 -32 -16 -89 -53 -126 -81 -38 -29 -100 -70 -139 -92 -38 -22 -93 -59
-121 -83 -28 -23 -80 -62 -115 -85 -35 -23 -89 -64 -119 -89 -30 -26 -86 -67
-125 -92 -38 -25 -92 -65 -120 -90 -27 -24 -77 -64 -110 -88 -33 -24 -90 -71
-126 -104 -36 -34 -123 -108 -193 -166 -71 -58 -140 -120 -154 -138 -14 -19
-60 -61 -101 -95 -42 -34 -132 -112 -201 -173 -69 -61 -247 -235 -396 -385
-149 -151 -297 -310 -329 -354 -32 -44 -120 -143 -195 -220 -76 -77 -161 -167
-188 -200 -27 -33 -91 -107 -140 -165 -50 -58 -117 -139 -149 -180 -32 -41
-81 -102 -109 -135 -28 -33 -71 -91 -96 -130 -24 -38 -64 -92 -88 -120 -24
-27 -59 -75 -78 -105 -19 -30 -58 -82 -87 -115 -29 -33 -71 -91 -95 -129 -23
-38 -65 -99 -94 -135 -29 -36 -63 -84 -76 -106 -13 -22 -51 -78 -85 -125 -35
-47 -76 -112 -93 -145 -16 -33 -53 -91 -82 -130 -29 -38 -71 -108 -95 -155
-24 -47 -64 -114 -89 -149 -25 -35 -59 -101 -75 -148 -17 -46 -38 -98 -47
-115 -9 -16 -35 -58 -58 -92 -23 -33 -57 -103 -75 -155 -19 -51 -55 -125 -81
-165 -26 -39 -54 -84 -62 -101 -8 -16 -28 -68 -43 -115 -15 -47 -49 -128 -76
-180 -26 -52 -60 -138 -74 -190 -15 -52 -50 -142 -79 -200 -29 -58 -63 -134
-74 -170 -12 -36 -30 -104 -41 -151 -11 -47 -37 -121 -57 -165 -20 -43 -47
-110 -61 -149 -13 -38 -39 -135 -58 -215 -18 -80 -54 -200 -79 -268 -25 -68
-57 -178 -70 -245 -13 -67 -32 -165 -41 -217 -10 -52 -35 -146 -56 -210 -20
-63 -47 -167 -58 -230 -12 -63 -30 -198 -41 -300 -11 -102 -25 -207 -32 -235
-6 -27 -22 -81 -35 -119 -12 -38 -28 -110 -33 -160 -6 -50 -17 -131 -25 -180
-8 -49 -15 -128 -15 -175 0 -47 -5 -113 -11 -146 -6 -33 -12 -163 -14 -290 -2
-170 -8 -269 -24 -381 -21 -147 -22 -174 -18 -915 3 -661 6 -773 20 -834 11
-45 20 -158 27 -315 5 -135 17 -290 25 -345 9 -55 22 -155 30 -222 9 -70 26
-154 40 -195 14 -40 32 -98 40 -128 8 -30 21 -116 30 -190 8 -74 24 -175 35
-225 10 -49 37 -142 59 -205 21 -63 46 -142 55 -175 8 -33 22 -105 31 -160 9
-55 24 -122 32 -150 9 -27 37 -93 63 -146 26 -53 54 -128 63 -165 9 -38 23
-104 32 -148 10 -47 33 -109 57 -155 22 -42 49 -92 58 -111 10 -19 30 -80 45
-135 15 -55 36 -121 46 -147 10 -27 39 -83 63 -125 25 -43 61 -127 80 -188 20
-61 56 -143 81 -184 25 -41 52 -95 61 -120 9 -25 29 -73 44 -106 15 -34 45
-88 67 -120 22 -33 52 -91 67 -130 15 -38 36 -90 47 -114 11 -25 40 -70 64
-100 24 -31 58 -87 76 -126 17 -38 53 -103 80 -143 28 -40 68 -110 89 -155 22
-46 64 -114 94 -151 29 -37 66 -91 81 -119 15 -29 53 -88 85 -132 31 -44 73
-108 94 -142 21 -35 59 -87 85 -115 26 -29 70 -87 98 -128 28 -42 58 -82 67
-89 10 -8 44 -53 78 -100 34 -47 78 -104 98 -126 21 -22 62 -74 92 -115 31
-41 66 -84 78 -95 13 -11 53 -60 91 -110 44 -59 242 -263 571 -590 277 -275
532 -522 568 -549 36 -27 92 -75 125 -106 33 -32 92 -78 130 -103 39 -25 100
-72 136 -104 37 -32 102 -87 145 -124 44 -36 113 -88 154 -116 41 -28 84 -61
95 -73 11 -12 54 -45 95 -73 41 -28 104 -74 140 -103 36 -28 100 -73 143 -98
43 -25 97 -61 120 -80 23 -19 76 -53 117 -76 41 -24 104 -66 140 -95 36 -28
97 -69 135 -90 39 -21 95 -58 125 -83 30 -24 89 -61 130 -82 41 -21 108 -63
149 -93 40 -29 108 -68 151 -86 43 -17 114 -58 158 -90 49 -35 114 -70 166
-90 47 -18 121 -56 164 -85 46 -30 120 -67 173 -86 52 -19 122 -53 155 -76 34
-23 75 -49 92 -58 16 -8 67 -29 113 -46 46 -16 118 -53 161 -81 45 -30 124
-69 185 -91 59 -22 143 -61 187 -88 57 -35 116 -59 198 -83 80 -23 145 -50
205 -85 63 -36 121 -60 202 -82 62 -17 127 -38 144 -46 18 -9 61 -34 97 -55
41 -24 108 -49 180 -69 65 -18 169 -57 240 -90 87 -41 171 -71 275 -99 114
-30 170 -51 232 -86 64 -35 115 -54 220 -81 97 -24 167 -49 238 -84 55 -28
132 -57 170 -66 39 -8 108 -24 155 -34 52 -12 127 -41 195 -75 88 -43 132 -58
220 -75 61 -12 126 -26 145 -31 19 -6 91 -37 160 -69 112 -53 140 -62 272 -84
80 -14 175 -36 210 -50 35 -13 86 -35 114 -49 28 -14 79 -33 114 -42 35 -9
119 -27 187 -40 71 -14 159 -39 210 -60 49 -20 120 -47 159 -60 38 -13 108
-29 155 -35 46 -6 126 -20 177 -31 52 -11 148 -40 215 -64 67 -23 156 -50 197
-59 41 -9 131 -23 200 -31 73 -10 154 -27 195 -42 39 -14 119 -43 179 -64 60
-22 170 -50 245 -64 75 -13 161 -33 191 -44 30 -10 88 -33 129 -51 40 -17 112
-40 160 -50 47 -10 124 -24 171 -30 47 -6 108 -15 135 -22 28 -6 89 -28 136
-49 47 -20 116 -46 152 -58 36 -11 130 -30 209 -41 105 -16 185 -35 303 -75
88 -29 179 -58 203 -64 24 -7 113 -23 198 -36 119 -19 195 -38 332 -84 140
-47 215 -66 357 -90 137 -22 211 -41 310 -76 72 -25 159 -53 194 -61 36 -9
131 -26 211 -39 88 -15 189 -39 251 -61 57 -20 129 -44 160 -54 31 -10 90 -25
130 -34 41 -8 125 -20 188 -26 94 -9 144 -21 290 -70 97 -32 208 -66 246 -74
39 -9 120 -23 180 -31 61 -8 133 -22 160 -31 28 -9 109 -38 180 -64 91 -34
169 -55 260 -70 72 -11 146 -25 165 -31 19 -6 78 -31 130 -55 52 -24 131 -52
175 -63 44 -11 104 -22 134 -26 30 -4 78 -15 105 -25 28 -10 103 -40 166 -68
71 -30 160 -59 231 -75 63 -14 153 -41 200 -60 46 -19 116 -49 154 -65 39 -17
124 -45 190 -62 85 -22 148 -47 220 -85 60 -32 143 -66 208 -84 60 -17 127
-41 150 -52 23 -12 57 -32 77 -45 19 -12 53 -29 75 -38 22 -8 83 -26 135 -41
67 -18 122 -42 186 -81 56 -33 128 -66 187 -84 70 -22 119 -46 177 -86 44 -30
114 -70 156 -89 41 -19 112 -58 157 -88 45 -30 112 -68 149 -86 37 -17 93 -53
125 -80 32 -26 90 -66 129 -89 39 -23 93 -59 120 -80 27 -21 94 -69 149 -106
55 -37 125 -87 155 -111 30 -25 84 -67 120 -95 36 -27 99 -77 140 -110 41 -33
129 -106 195 -163 66 -57 140 -129 165 -161 25 -32 68 -86 97 -120 29 -33 69
-87 90 -119 21 -32 68 -105 104 -162 36 -56 78 -138 94 -181 15 -44 52 -125
82 -181 30 -56 58 -117 64 -135 5 -18 23 -114 40 -213 17 -99 35 -211 40 -248
6 -41 9 -259 6 -535 -4 -467 -4 -467 -44 -688 -39 -214 -43 -226 -101 -350
-33 -71 -72 -167 -86 -214 -15 -47 -39 -102 -54 -122 -15 -21 -49 -70 -76
-110 -27 -40 -65 -96 -85 -125 -20 -29 -76 -105 -125 -169 -56 -74 -184 -214
-342 -374 -175 -177 -289 -284 -366 -342 -62 -47 -147 -106 -188 -131 -41 -25
-100 -67 -130 -93 -30 -26 -91 -64 -135 -84 -44 -21 -107 -57 -140 -82 -33
-25 -73 -52 -90 -60 -16 -9 -61 -25 -100 -38 -38 -12 -106 -44 -150 -71 -44
-26 -124 -64 -178 -83 -54 -19 -121 -48 -150 -65 -29 -18 -74 -42 -102 -56
-27 -13 -111 -43 -185 -65 -74 -23 -184 -64 -245 -90 -80 -36 -148 -57 -250
-78 -77 -16 -189 -48 -250 -72 -60 -23 -139 -50 -175 -61 -36 -11 -123 -26
-194 -34 -71 -9 -149 -20 -175 -26 -25 -5 -101 -25 -168 -45 -67 -19 -174 -41
-236 -49 -63 -7 -143 -21 -178 -30 -35 -10 -131 -21 -214 -26 -82 -4 -235 -15
-340 -23 -104 -9 -208 -20 -230 -26 -22 -6 -164 -15 -315 -20 -245 -7 -284
-10 -355 -31 -80 -24 -82 -24 -615 -24 -530 0 -536 0 -640 24 -87 20 -144 26
-330 31 -141 4 -257 13 -310 23 -47 9 -166 21 -265 26 -99 6 -250 15 -335 21
-85 5 -211 21 -280 35 -69 14 -172 32 -230 40 -57 9 -156 29 -220 45 -63 16
-176 37 -250 45 -74 9 -164 20 -200 26 -36 5 -90 16 -120 24 -30 8 -109 32
-175 54 -71 24 -183 50 -275 66 -85 14 -171 31 -190 37 -19 6 -85 32 -146 58
-60 26 -166 65 -235 85 -71 21 -160 56 -208 82 -46 25 -136 62 -201 83 -88 29
-139 53 -202 94 -45 31 -115 66 -153 79 -39 14 -88 33 -110 45 -22 11 -70 40
-107 65 -36 25 -90 53 -120 62 -29 10 -71 27 -92 38 -22 10 -67 40 -101 66
-33 25 -96 61 -141 79 -44 18 -104 53 -134 77 -30 24 -94 65 -142 91 -49 26
-112 68 -142 94 -29 26 -84 68 -122 93 -38 25 -87 65 -109 88 -22 23 -60 55
-85 72 -25 17 -85 68 -135 113 -49 46 -135 133 -190 195 -55 61 -125 139 -156
173 -31 33 -103 120 -160 192 -57 73 -126 165 -152 205 -27 41 -73 110 -102
154 -29 44 -78 118 -109 165 -30 47 -73 125 -96 174 -23 49 -58 114 -79 145
-21 31 -47 74 -58 96 -11 22 -28 65 -38 95 -10 30 -41 102 -70 160 -29 58 -62
134 -73 170 -12 36 -32 110 -45 165 -15 60 -43 137 -70 191 -25 50 -52 115
-61 145 -9 30 -29 122 -45 204 -17 83 -48 198 -70 256 -21 59 -46 140 -55 180
-9 41 -30 189 -47 329 -16 140 -39 325 -49 410 -10 85 -28 193 -39 240 -20 82
-21 112 -21 787 0 683 -1 704 -20 757 -13 33 -35 67 -57 86 -19 17 -46 36 -60
41 -15 6 -2029 9 -5299 9 -4663 0 -5278 -1 -5303 -15 -16 -8 -39 -27 -50 -41
-12 -15 -29 -52 -37 -82 -13 -45 -16 -121 -18 -441 -2 -386 -2 -386 -31 -491
-28 -105 -28 -105 -28 -445 0 -340 0 -340 28 -445 27 -101 28 -117 36 -455 5
-192 12 -447 18 -565 6 -143 14 -235 25 -275 9 -32 21 -111 26 -175 6 -73 18
-143 34 -192 14 -43 30 -124 35 -180 6 -57 15 -125 20 -153 5 -27 19 -144 31
-260 11 -115 28 -237 36 -270 9 -33 31 -106 50 -162 22 -64 47 -179 69 -312
20 -115 47 -245 60 -288 13 -43 39 -124 59 -180 19 -57 44 -162 57 -239 12
-76 32 -168 45 -204 12 -36 39 -102 58 -146 22 -49 50 -145 72 -240 28 -128
45 -178 85 -260 34 -69 59 -140 80 -225 22 -89 46 -154 84 -229 29 -58 67
-154 84 -215 19 -69 54 -155 93 -230 34 -66 74 -161 89 -211 15 -50 37 -111
49 -135 12 -24 32 -57 45 -74 12 -16 31 -48 42 -70 11 -22 33 -80 48 -130 15
-49 36 -108 48 -130 11 -22 30 -53 43 -70 12 -16 43 -75 69 -130 25 -54 64
-124 87 -153 22 -30 56 -87 74 -127 19 -41 34 -78 34 -83 0 -6 26 -45 57 -88
31 -44 79 -124 106 -178 27 -55 64 -118 82 -140 18 -23 56 -84 85 -136 29 -52
67 -114 86 -137 19 -22 57 -79 85 -125 29 -45 73 -110 99 -143 26 -33 67 -91
90 -130 24 -38 63 -96 89 -129 25 -32 69 -91 96 -132 28 -40 89 -124 137 -186
48 -62 112 -144 143 -183 31 -38 93 -115 138 -169 45 -55 109 -130 142 -169
33 -38 83 -101 112 -139 28 -38 84 -104 125 -146 40 -43 109 -120 153 -171 44
-52 248 -264 454 -470 206 -207 401 -394 433 -417 33 -22 114 -92 181 -156 67
-63 163 -145 212 -183 50 -37 108 -84 130 -104 22 -20 67 -56 100 -80 33 -25
83 -65 110 -91 28 -25 73 -61 100 -80 28 -18 70 -52 95 -75 25 -22 80 -65 124
-94 43 -29 95 -68 115 -86 20 -18 84 -64 143 -103 58 -39 109 -76 113 -82 4
-6 44 -35 89 -64 45 -29 105 -73 133 -99 29 -25 87 -64 130 -86 43 -22 105
-63 139 -90 33 -27 94 -66 135 -86 41 -21 110 -63 154 -95 44 -31 107 -72 140
-90 33 -19 86 -51 119 -73 32 -22 95 -56 140 -77 44 -21 113 -61 151 -90 39
-29 111 -72 162 -96 50 -24 126 -66 168 -93 41 -27 92 -55 113 -62 20 -6 65
-24 98 -39 34 -15 87 -47 117 -69 30 -23 104 -63 163 -90 60 -26 135 -66 167
-89 33 -22 87 -50 120 -61 34 -11 88 -27 119 -35 32 -9 88 -37 125 -63 37 -25
91 -56 118 -68 28 -12 79 -32 115 -44 37 -12 99 -42 139 -67 44 -27 116 -59
184 -81 62 -20 159 -59 217 -88 58 -29 166 -72 240 -95 83 -25 164 -59 210
-85 55 -32 112 -54 210 -80 93 -25 168 -52 240 -89 60 -30 138 -61 180 -71 41
-9 102 -23 135 -31 33 -8 102 -34 155 -58 52 -25 122 -53 156 -64 33 -12 105
-28 159 -37 55 -8 124 -22 152 -30 29 -9 92 -35 140 -60 75 -38 114 -49 268
-80 103 -21 236 -55 310 -81 72 -24 155 -51 186 -59 30 -8 147 -30 260 -49
138 -24 238 -47 308 -71 57 -20 158 -47 225 -60 67 -13 165 -29 219 -34 54 -6
137 -20 185 -31 48 -11 166 -39 263 -64 98 -25 237 -52 310 -61 74 -9 202 -25
284 -36 83 -11 206 -33 275 -49 69 -17 206 -43 305 -60 99 -16 277 -36 395
-45 118 -8 242 -19 275 -25 33 -5 123 -16 200 -24 77 -9 176 -24 219 -36 44
-11 111 -20 151 -20 40 0 125 -9 189 -20 75 -13 206 -24 364 -31 136 -6 400
-14 587 -19 187 -5 354 -12 370 -15 17 -4 59 -16 95 -27 63 -19 106 -19 1615
-19 1550 0 1550 0 1625 27 73 26 83 27 370 34 162 4 383 13 490 19 107 7 260
21 340 31 80 11 177 22 215 25 39 3 105 15 148 26 43 10 136 26 207 34 72 9
153 20 181 25 29 6 84 10 123 10 39 0 112 5 161 10 50 6 144 19 210 29 66 11
158 24 205 29 47 6 132 26 190 45 58 19 137 40 175 46 39 5 111 13 160 16 50
4 124 11 165 16 41 6 176 37 300 70 162 42 283 67 431 88 180 26 228 37 375
85 93 31 214 65 269 75 55 11 142 27 194 36 52 9 173 43 270 75 113 38 228 69
321 85 80 15 177 40 215 55 39 16 97 40 130 54 33 13 137 40 230 59 136 28
194 45 289 87 78 34 163 62 248 81 71 16 145 37 166 47 20 11 71 37 112 59 47
26 115 51 180 67 67 17 150 47 230 86 72 34 178 75 249 95 94 27 145 48 207
86 52 32 121 63 186 83 57 18 119 41 138 51 19 10 55 31 79 48 24 16 86 45
138 63 52 19 108 41 125 50 17 9 59 35 93 59 35 23 94 53 131 65 38 13 91 34
117 47 27 13 70 39 96 58 26 19 88 51 137 71 49 21 109 51 134 67 25 17 66 45
91 62 26 18 83 45 127 60 55 19 104 46 151 81 38 29 106 72 152 95 46 23 105
59 130 80 25 21 88 58 140 83 52 25 121 68 153 95 32 27 85 64 117 81 33 17
87 54 122 81 34 28 96 68 137 90 42 21 105 63 140 92 36 30 96 71 134 92 37
21 88 55 113 77 25 21 80 62 122 90 42 28 93 67 114 85 22 19 71 55 110 81 40
25 95 66 122 90 28 25 79 66 115 91 36 25 99 73 139 106 41 33 111 92 157 132
45 39 116 96 157 127 42 30 88 71 104 91 15 20 71 73 123 118 51 45 115 98
140 117 26 19 208 197 405 395 197 198 378 387 403 420 24 33 96 116 160 184
65 68 154 172 200 230 45 58 120 156 167 216 47 61 108 140 137 176 29 36 78
95 109 130 31 35 76 95 99 133 23 38 65 99 94 135 29 36 67 91 86 121 18 30
52 80 76 111 24 31 60 85 80 120 20 35 58 91 84 124 26 33 66 97 88 141 23 45
64 112 92 149 29 37 63 92 77 123 13 32 33 76 43 98 10 23 41 73 68 110 27 38
62 101 78 139 15 39 52 108 80 153 29 46 69 126 89 177 20 51 53 121 75 154
22 33 46 74 54 90 9 16 31 73 51 127 19 53 57 136 84 183 34 59 61 125 86 211
20 69 49 148 64 175 15 28 40 70 54 95 14 25 38 92 52 150 15 58 51 161 80
230 30 69 66 168 80 220 14 52 39 136 54 185 16 50 45 129 65 177 20 48 52
153 71 235 18 81 52 202 75 268 22 66 49 154 60 195 10 41 28 134 39 206 13
84 38 183 70 280 27 82 56 185 64 229 9 44 23 143 32 220 9 77 20 169 26 205
5 36 23 117 39 180 16 64 34 158 40 210 6 52 19 129 30 171 11 44 24 147 31
245 6 93 14 270 19 394 4 130 15 259 24 305 13 69 15 212 16 1070 0 859 -2
1001 -16 1070 -8 44 -19 159 -24 255 -5 96 -14 238 -20 315 -6 77 -24 214 -41
305 -17 91 -41 206 -55 255 -14 50 -42 203 -64 340 -34 212 -48 272 -90 395
-31 92 -60 204 -79 305 -16 88 -34 173 -40 188 -6 15 -31 69 -56 120 -25 51
-53 128 -64 172 -10 44 -26 115 -36 158 -9 43 -39 122 -65 176 -27 55 -65 154
-85 221 -22 75 -57 162 -90 224 -29 55 -63 135 -75 176 -12 41 -32 95 -44 120
-13 25 -39 74 -59 110 -20 36 -52 112 -72 170 -22 64 -56 135 -87 182 -27 42
-68 119 -90 170 -22 51 -64 126 -93 168 -29 41 -69 113 -89 159 -21 47 -61
119 -90 160 -29 42 -69 107 -90 146 -21 38 -57 94 -81 125 -23 30 -62 89 -85
130 -23 41 -58 95 -78 118 -21 24 -62 79 -92 122 -30 42 -79 106 -107 141 -29
35 -77 96 -105 136 -29 40 -88 118 -132 175 -43 57 -93 119 -111 138 -18 19
-57 69 -87 110 -30 41 -68 86 -83 100 -15 14 -41 45 -58 70 -17 25 -74 90
-126 145 -53 55 -139 152 -192 215 -53 63 -303 321 -555 572 -253 252 -497
488 -544 525 -47 38 -116 100 -155 140 -38 39 -142 128 -230 198 -88 70 -180
146 -205 170 -25 23 -81 69 -125 101 -44 33 -129 98 -190 143 -60 46 -126 98
-145 116 -19 18 -60 48 -90 66 -30 18 -80 54 -111 80 -31 26 -97 72 -148 103
-50 30 -112 73 -137 94 -24 22 -82 59 -127 82 -45 24 -106 61 -136 83 -29 22
-96 59 -148 84 -52 24 -125 64 -162 89 -37 24 -116 64 -177 87 -60 24 -131 59
-159 79 -27 19 -64 43 -82 52 -18 9 -70 30 -117 47 -47 17 -109 48 -138 68
-29 21 -71 47 -93 59 -22 11 -77 30 -123 42 -55 15 -113 41 -172 76 -64 38
-120 63 -197 85 -59 17 -155 53 -213 79 -58 26 -131 57 -163 69 -31 11 -103
32 -159 46 -56 14 -122 37 -147 52 -25 14 -69 39 -97 54 -32 19 -102 40 -190
60 -108 24 -165 43 -254 86 -92 44 -145 61 -266 88 -123 27 -170 43 -254 85
-84 42 -131 58 -259 86 -116 26 -177 46 -236 76 -44 22 -103 48 -132 58 -28
10 -100 28 -158 40 -59 12 -139 35 -179 52 -39 16 -102 43 -141 58 -38 16
-128 40 -199 55 -72 15 -159 38 -195 52 -37 14 -116 43 -178 65 -63 21 -174
50 -252 63 -107 19 -169 36 -267 76 -98 40 -170 60 -318 90 -117 24 -246 59
-332 89 -78 27 -175 55 -215 64 -41 8 -139 24 -219 36 -109 16 -185 35 -305
75 -88 29 -187 58 -220 64 -33 6 -103 15 -155 22 -52 6 -123 17 -157 25 -35 8
-128 36 -207 63 -80 27 -180 56 -223 64 -43 9 -125 23 -183 32 -59 10 -176 40
-269 71 -90 30 -180 58 -200 64 -20 5 -97 18 -172 30 -74 11 -164 29 -200 39
-35 10 -104 34 -154 54 -49 19 -115 43 -145 52 -30 9 -107 23 -170 31 -83 11
-159 30 -275 69 -88 29 -187 61 -221 69 -33 9 -121 24 -195 35 -74 11 -163 31
-199 44 -36 14 -105 41 -155 61 -49 19 -121 40 -160 46 -38 7 -122 21 -185 32
-63 10 -153 33 -200 49 -47 17 -121 42 -165 55 -44 14 -160 38 -259 55 -98 16
-202 38 -230 48 -28 11 -91 36 -140 56 -69 29 -134 45 -278 70 -145 26 -227
46 -351 89 -133 46 -200 62 -372 91 -116 19 -239 43 -275 54 -36 11 -99 31
-140 46 -41 14 -104 32 -140 40 -36 8 -128 24 -205 35 -77 11 -158 25 -180 31
-22 6 -101 31 -175 55 -74 25 -216 61 -315 81 -142 27 -204 45 -295 83 -63 27
-133 53 -155 59 -22 5 -84 17 -137 25 -53 9 -118 23 -145 32 -26 8 -93 38
-148 65 -81 40 -127 55 -245 80 -120 25 -166 40 -270 89 -91 43 -156 66 -240
85 -85 18 -148 41 -240 84 -69 33 -150 67 -180 75 -30 8 -88 25 -128 36 -41
12 -113 43 -160 71 -48 27 -112 57 -142 65 -30 8 -91 26 -135 39 -44 14 -113
45 -154 70 -41 25 -93 51 -115 59 -23 8 -77 25 -120 37 -52 15 -105 40 -155
73 -41 27 -120 67 -175 87 -55 21 -130 59 -167 83 -37 25 -107 65 -155 89 -49
25 -109 63 -134 84 -25 22 -79 62 -120 89 -41 27 -130 96 -197 152 -67 57
-150 138 -185 180 -34 42 -78 95 -98 117 -20 22 -78 126 -132 235 -92 185 -98
202 -123 330 -15 74 -44 199 -66 276 -21 78 -44 175 -49 215 -5 41 -9 121 -10
179 0 79 7 132 26 215 20 85 28 151 34 295 5 102 13 201 19 220 6 19 23 115
36 212 14 97 32 203 40 235 9 32 35 96 59 143 24 47 58 124 75 172 16 48 38
102 47 120 9 18 34 55 55 83 20 27 56 84 78 125 22 41 70 111 107 155 36 44
152 168 257 275 106 107 224 222 262 255 39 34 104 86 145 117 41 31 89 71
105 88 17 18 71 56 120 85 50 29 108 68 130 85 22 18 81 56 131 86 50 29 97
61 104 70 8 8 32 28 54 43 23 15 79 42 125 60 47 17 110 49 141 70 31 22 74
48 96 59 21 11 79 32 127 46 48 15 144 54 212 87 88 43 150 66 214 79 49 10
100 21 113 25 12 3 104 33 203 65 146 48 206 62 310 75 72 8 189 24 260 35 72
11 173 25 225 31 52 6 129 22 170 35 52 17 115 28 205 34 72 5 166 16 210 24
66 13 212 15 850 15 654 0 782 -2 850 -15 44 -9 170 -19 280 -24 131 -6 236
-16 305 -29 58 -12 148 -28 200 -36 52 -8 170 -24 261 -35 91 -11 222 -24 290
-30 68 -6 162 -17 208 -26 46 -8 118 -28 161 -43 43 -16 107 -36 142 -45 36
-9 143 -27 239 -41 96 -14 208 -32 249 -41 41 -9 122 -35 180 -59 58 -24 137
-52 175 -63 39 -11 110 -30 160 -41 64 -15 115 -35 175 -70 47 -27 128 -62
180 -79 53 -16 115 -39 140 -52 24 -12 66 -37 92 -56 27 -18 74 -42 106 -54
31 -11 75 -28 97 -38 22 -9 67 -38 101 -64 34 -25 99 -65 145 -88 46 -24 115
-67 152 -96 38 -30 95 -68 126 -84 32 -17 88 -55 124 -83 36 -29 103 -79 149
-112 45 -33 170 -145 276 -250 107 -104 222 -224 255 -265 34 -41 84 -100 112
-131 27 -32 69 -91 92 -133 24 -42 64 -104 89 -138 25 -35 70 -113 99 -174 28
-60 69 -139 89 -174 21 -35 56 -109 78 -165 22 -55 64 -145 93 -200 34 -64 63
-136 79 -200 15 -55 46 -140 70 -190 24 -49 51 -112 59 -140 9 -27 28 -111 42
-185 14 -74 43 -189 64 -256 21 -66 48 -165 60 -221 11 -55 25 -152 31 -214 6
-63 15 -256 20 -429 7 -239 14 -346 30 -444 16 -101 20 -166 19 -295 -3 -155
-1 -171 23 -247 16 -47 29 -118 33 -170 4 -49 11 -104 17 -122 6 -19 24 -50
41 -69 18 -20 46 -42 64 -50 28 -11 883 -13 5403 -13 4600 0 5374 2 5398 14
15 8 35 22 44 33 10 10 25 37 34 58 15 37 16 132 15 1094 -1 580 -5 1059 -8
1064 -3 6 -9 127 -14 271 -5 192 -11 275 -23 316 -9 30 -21 111 -26 180 -5 69
-14 141 -20 160 -6 19 -18 86 -26 149 -8 63 -24 151 -35 195 -10 45 -23 153
-29 241 -6 88 -15 185 -21 215 -6 30 -35 138 -64 240 -29 102 -55 199 -59 215
-3 17 -15 95 -25 175 -11 80 -31 179 -44 220 -14 41 -41 113 -60 160 -26 61
-43 128 -62 237 -14 84 -28 160 -31 170 -4 10 -31 70 -60 133 -40 86 -61 150
-85 255 -23 105 -44 169 -84 255 -30 63 -68 165 -85 225 -17 61 -62 175 -100
255 -37 80 -81 183 -96 230 -15 47 -49 123 -75 169 -27 46 -56 107 -65 135 -9
28 -27 76 -39 106 -13 30 -42 86 -64 125 -22 38 -57 118 -77 177 -20 62 -50
129 -70 156 -18 26 -47 66 -63 88 -17 23 -44 76 -61 119 -17 43 -51 109 -76
147 -24 38 -64 111 -88 161 -24 51 -64 120 -89 154 -25 34 -59 88 -76 120 -16
32 -56 99 -88 148 -33 50 -76 120 -97 157 -20 36 -61 97 -91 134 -30 38 -66
91 -81 119 -15 27 -100 148 -188 267 -89 119 -178 241 -199 270 -20 29 -72 97
-115 150 -42 53 -120 148 -173 210 -53 62 -104 120 -114 128 -10 8 -49 56 -86
105 -37 50 -99 122 -139 160 -39 39 -131 135 -204 215 -73 80 -156 177 -184
217 -34 46 -78 90 -125 124 -39 29 -115 91 -167 138 -52 47 -156 145 -230 218
-74 72 -162 151 -195 174 -33 23 -100 81 -150 129 -49 47 -117 109 -150 136
-33 28 -76 61 -95 74 -19 14 -66 52 -105 85 -38 34 -97 78 -130 99 -33 21 -82
58 -110 81 -27 23 -83 63 -123 89 -40 26 -100 72 -133 101 -33 30 -86 68 -117
85 -31 18 -82 52 -114 76 -31 24 -96 67 -145 95 -48 28 -110 68 -138 89 -27
21 -81 54 -120 73 -38 19 -97 56 -130 82 -33 26 -103 68 -155 95 -52 26 -123
69 -157 94 -34 26 -101 65 -149 87 -49 23 -120 61 -158 86 -38 24 -106 62
-150 82 -45 21 -112 61 -151 89 -46 35 -96 61 -150 78 -44 15 -93 33 -110 42
-16 8 -55 33 -85 55 -33 25 -95 56 -160 79 -67 24 -135 59 -187 94 -51 34
-115 66 -168 84 -46 16 -126 54 -176 84 -63 38 -128 67 -203 91 -68 21 -144
54 -196 84 -54 32 -132 65 -215 92 -71 23 -170 63 -220 90 -49 26 -132 59
-184 74 -52 14 -155 53 -230 86 -75 34 -199 79 -276 101 -77 22 -183 60 -235
83 -52 24 -120 51 -150 59 -30 9 -106 27 -169 41 -63 14 -160 45 -217 69 -56
24 -133 51 -171 60 -37 8 -115 24 -173 35 -58 11 -186 47 -285 80 -107 35
-222 66 -285 76 -58 9 -139 23 -180 32 -41 8 -128 32 -192 54 -65 21 -154 45
-199 54 -44 8 -170 29 -278 45 -108 17 -239 41 -291 54 -52 13 -129 33 -170
45 -41 11 -154 32 -250 45 -96 14 -256 34 -356 46 -100 11 -214 29 -255 41
-41 11 -103 29 -139 39 -36 10 -81 19 -100 19 -19 1 -80 8 -135 16 -55 9 -154
20 -220 25 -66 5 -187 14 -270 20 -89 6 -191 20 -250 35 -55 13 -134 26 -175
30 -41 3 -92 11 -113 17 -21 6 -49 24 -62 40 -24 28 -24 28 -2427 28z"/>
<path d="M87778 44572 c-6630 2 -12070 0 -12089 -3 -19 -3 -48 -13 -64 -21
-17 -9 -38 -24 -47 -35 -10 -10 -25 -37 -35 -58 -17 -38 -18 -919 -21 -21669
-1 -15737 1 -21640 9 -21670 7 -25 27 -57 53 -82 24 -25 58 -46 81 -53 29 -8
1548 -11 5560 -11 5521 0 5521 0 5565 23 35 17 51 34 70 72 25 50 25 50 27
7959 2 7550 3 7910 20 7944 10 20 29 44 43 54 25 18 172 18 4430 18 3914 0
4411 -2 4460 -15 30 -9 123 -20 205 -25 83 -5 173 -12 200 -15 28 -3 109 -10
180 -15 94 -6 157 -17 230 -38 55 -17 177 -48 270 -70 94 -22 219 -48 278 -57
60 -9 133 -23 164 -31 30 -8 101 -37 157 -64 72 -35 136 -57 213 -74 61 -14
127 -32 146 -40 20 -8 65 -35 101 -60 37 -24 92 -54 124 -66 31 -11 76 -27 99
-36 24 -9 78 -39 120 -68 43 -29 111 -69 152 -90 41 -20 95 -54 120 -75 25
-21 75 -57 111 -80 36 -23 103 -74 150 -114 46 -40 113 -99 148 -132 36 -33
100 -103 143 -155 44 -52 98 -118 122 -146 23 -29 76 -98 118 -155 42 -57 93
-133 113 -169 21 -36 55 -88 77 -116 21 -28 60 -95 85 -150 25 -54 65 -126 89
-159 23 -33 51 -78 62 -100 11 -22 30 -71 43 -110 13 -38 34 -92 48 -120 13
-27 35 -65 48 -85 12 -19 42 -93 65 -165 23 -71 66 -186 96 -254 36 -82 64
-167 83 -251 19 -85 47 -172 85 -260 50 -117 61 -153 85 -294 20 -113 46 -217
89 -348 48 -149 64 -213 76 -315 9 -70 27 -201 40 -289 13 -89 38 -204 55
-257 19 -59 34 -135 40 -200 6 -58 15 -129 20 -157 5 -28 17 -138 25 -243 9
-106 23 -250 31 -322 9 -71 27 -193 40 -270 13 -77 33 -198 45 -270 11 -71 24
-164 30 -205 5 -41 21 -221 35 -400 13 -179 31 -359 39 -400 8 -41 14 -107 15
-147 0 -50 8 -97 26 -150 20 -61 27 -111 34 -228 5 -82 16 -195 24 -250 9 -55
16 -145 16 -200 0 -55 7 -172 15 -260 8 -88 15 -216 15 -285 0 -83 7 -164 20
-237 16 -87 21 -163 24 -340 2 -219 3 -231 30 -313 28 -85 28 -85 31 -415 2
-271 5 -343 19 -405 13 -56 18 -132 21 -300 2 -124 8 -249 14 -279 6 -29 11
-92 11 -140 0 -47 5 -115 10 -151 6 -36 19 -130 30 -210 10 -80 26 -167 34
-195 8 -27 29 -131 45 -230 17 -99 37 -254 46 -345 9 -91 23 -202 31 -248 8
-46 32 -133 54 -195 21 -62 45 -139 53 -172 8 -33 23 -123 32 -200 14 -118 26
-168 76 -319 43 -128 68 -226 90 -349 24 -139 38 -190 73 -271 24 -56 53 -130
64 -166 11 -36 27 -103 36 -150 10 -47 24 -107 33 -135 9 -27 35 -88 59 -135
24 -47 52 -121 63 -165 11 -44 27 -114 36 -155 8 -41 29 -100 45 -130 16 -30
43 -82 59 -115 17 -33 44 -112 61 -175 21 -77 49 -148 84 -215 29 -55 59 -118
66 -140 7 -22 24 -61 38 -88 14 -26 40 -57 58 -68 18 -11 48 -24 66 -29 19 -6
2317 -10 5895 -10 5143 0 5867 1 5892 14 15 8 36 27 45 41 10 15 20 41 23 59
3 17 0 51 -6 74 -8 29 -33 64 -81 116 -38 41 -80 97 -94 124 -14 28 -49 79
-79 114 -29 34 -72 92 -95 127 -24 35 -64 89 -91 120 -26 31 -58 72 -71 91
-13 19 -49 67 -80 105 -31 39 -77 102 -102 140 -25 39 -68 96 -96 128 -29 32
-64 79 -79 105 -15 26 -59 90 -98 142 -39 52 -103 138 -143 190 -39 52 -83
122 -98 155 -15 33 -53 103 -84 155 -32 52 -72 133 -91 179 -18 46 -55 120
-82 165 -27 45 -67 125 -88 178 -21 54 -54 121 -73 150 -18 29 -43 71 -54 94
-11 22 -33 83 -47 134 -14 50 -51 142 -81 202 -47 94 -61 135 -94 281 -21 95
-59 227 -85 295 -25 67 -52 148 -60 180 -9 31 -22 118 -31 192 -11 90 -37 218
-79 385 -35 138 -71 297 -79 355 -8 58 -20 172 -26 254 -6 82 -19 188 -29 235
-11 47 -22 127 -25 176 -3 52 -14 116 -26 150 -13 37 -25 106 -30 180 -5 66
-16 161 -25 210 -8 50 -17 178 -20 285 -2 107 -9 233 -15 280 -5 47 -10 155
-11 240 0 85 -7 198 -14 250 -8 52 -19 172 -25 265 -6 94 -22 229 -35 300 -17
90 -26 184 -30 305 -3 96 -12 207 -20 245 -10 43 -19 167 -24 326 -4 141 -11
261 -15 268 -4 6 -9 125 -11 264 -2 190 -7 273 -20 337 -14 67 -19 166 -25
465 -7 354 -9 385 -30 450 -19 61 -23 103 -30 320 -5 138 -14 270 -20 295 -6
25 -15 169 -20 320 -5 151 -14 307 -19 345 -6 39 -10 116 -11 173 0 56 -7 148
-15 205 -9 56 -22 161 -30 234 -8 72 -24 169 -34 215 -11 45 -25 128 -31 183
-6 55 -15 125 -20 155 -6 31 -17 142 -24 247 -9 111 -30 273 -50 389 -20 110
-52 253 -71 319 -28 94 -39 155 -50 284 -8 91 -22 208 -31 260 -9 53 -35 157
-59 231 -24 74 -48 160 -54 190 -6 30 -20 114 -30 185 -11 72 -29 164 -40 205
-10 42 -42 134 -69 205 -33 86 -59 175 -76 263 -16 88 -37 160 -61 215 -20 45
-47 109 -60 142 -13 33 -35 101 -49 150 -13 50 -47 137 -74 195 -28 58 -66
157 -86 220 -24 80 -50 137 -81 185 -29 45 -56 106 -76 170 -18 55 -43 123
-57 150 -13 28 -42 74 -63 103 -20 29 -51 91 -68 138 -17 47 -38 99 -47 117
-9 18 -36 57 -60 87 -24 31 -60 94 -80 140 -20 47 -58 119 -84 160 -27 41 -62
110 -80 152 -17 43 -54 108 -82 145 -28 38 -70 109 -93 158 -24 50 -64 117
-89 150 -25 33 -62 92 -82 130 -20 39 -63 106 -95 150 -32 44 -82 112 -111
152 -29 39 -87 116 -128 170 -41 54 -96 121 -121 149 -26 28 -66 80 -89 114
-23 34 -104 126 -179 204 -75 78 -149 161 -166 184 -16 23 -126 131 -243 239
-117 109 -261 241 -319 293 -58 52 -144 125 -192 163 -47 37 -137 106 -200
155 -62 48 -139 105 -171 127 -32 22 -93 63 -135 90 -42 28 -106 69 -143 92
-37 23 -75 51 -84 63 -10 12 -18 34 -18 49 0 15 7 37 16 50 9 13 60 51 113 86
53 34 124 76 158 94 33 18 92 59 130 90 37 32 97 75 133 96 36 22 92 61 125
87 33 26 98 76 144 110 46 35 128 95 183 134 55 39 118 89 141 111 23 22 72
61 109 86 37 26 76 60 87 76 12 16 64 67 117 113 53 46 122 104 153 129 31 26
155 145 276 266 121 120 254 261 296 313 42 52 89 106 104 120 15 14 66 70
114 125 48 55 127 151 177 213 49 62 118 155 154 206 36 52 80 111 99 132 19
21 55 70 79 109 25 38 67 96 94 128 26 32 66 93 88 135 22 42 60 101 84 131
24 29 67 95 94 147 28 51 69 118 92 147 22 30 57 94 76 143 20 48 58 123 86
166 27 43 67 124 89 180 21 56 59 132 85 169 25 37 63 113 85 170 21 56 62
138 90 181 40 61 60 105 86 196 19 64 46 137 60 162 14 25 38 68 54 95 15 28
41 100 58 160 17 61 56 160 86 222 29 62 68 163 85 225 17 62 53 163 79 223
27 61 53 126 59 145 6 19 20 83 32 142 12 59 50 187 85 286 35 99 72 219 81
268 9 49 27 134 39 189 13 55 37 143 53 196 17 53 42 159 56 235 13 76 32 193
41 258 9 66 29 176 45 245 16 69 43 195 60 280 17 84 35 206 40 270 5 64 14
193 20 286 6 94 18 220 27 280 9 64 18 232 23 400 6 271 9 297 34 393 27 102
27 102 24 440 -4 332 -4 339 -31 437 -28 100 -28 100 -27 530 1 404 0 435 -19
510 -14 55 -21 112 -21 185 0 58 -7 186 -15 285 -8 99 -22 241 -31 315 -9 74
-33 203 -54 285 -21 83 -45 188 -54 235 -8 47 -22 147 -31 223 -8 77 -20 160
-25 185 -6 26 -35 119 -65 207 -39 114 -61 199 -76 295 -11 74 -28 160 -36
190 -9 30 -27 77 -41 105 -13 27 -35 78 -48 113 -14 35 -35 125 -49 200 -13
75 -31 157 -40 182 -9 25 -26 61 -39 80 -13 20 -33 54 -44 76 -12 23 -35 96
-51 163 -23 93 -43 146 -85 224 -30 57 -64 139 -76 183 -12 43 -28 102 -37
129 -8 28 -37 88 -64 135 -27 47 -66 139 -88 205 -21 66 -46 136 -55 156 -8
20 -31 64 -51 97 -19 33 -51 102 -70 152 -19 50 -55 123 -80 161 -25 39 -68
115 -96 170 -27 55 -65 121 -84 148 -19 27 -54 93 -78 147 -24 55 -67 130 -95
167 -29 37 -70 105 -91 150 -22 45 -61 107 -86 137 -25 30 -62 84 -82 120 -20
36 -51 84 -71 108 -19 24 -63 90 -98 148 -35 57 -81 126 -103 152 -22 26 -57
72 -78 103 -21 32 -68 92 -105 135 -37 44 -87 104 -112 134 -25 30 -84 105
-130 165 -47 61 -134 164 -193 231 -60 66 -126 145 -148 175 -21 29 -167 182
-323 339 -156 156 -318 314 -362 350 -43 36 -120 101 -171 145 -51 44 -135
119 -185 166 -51 47 -127 115 -169 150 -43 35 -113 94 -155 130 -43 37 -93 77
-112 89 -18 13 -58 47 -88 76 -31 28 -87 72 -125 96 -39 25 -92 64 -120 88
-27 24 -79 62 -115 85 -36 23 -94 67 -130 97 -36 30 -92 71 -125 91 -33 19
-84 56 -113 81 -29 25 -88 64 -130 86 -42 22 -102 60 -132 86 -30 25 -91 64
-135 86 -44 22 -109 62 -145 88 -36 26 -103 67 -150 90 -47 23 -109 60 -138
82 -30 22 -96 59 -147 83 -51 24 -125 66 -163 94 -39 29 -106 64 -153 82 -46
18 -123 58 -171 89 -65 43 -108 63 -170 80 -46 12 -103 31 -128 41 -25 11 -73
38 -108 61 -43 28 -101 52 -188 78 -78 24 -153 54 -202 82 -42 25 -99 52 -127
61 -27 9 -75 21 -105 27 -30 6 -91 26 -135 46 -44 20 -111 49 -150 66 -38 16
-122 41 -185 54 -63 14 -151 40 -195 59 -44 18 -111 47 -150 63 -38 17 -127
42 -196 56 -69 14 -150 34 -180 45 -30 10 -81 31 -114 46 -33 15 -88 36 -122
45 -35 10 -127 28 -205 40 -104 15 -183 35 -289 71 -80 27 -193 59 -250 70
-57 11 -168 29 -246 39 -79 11 -231 42 -338 69 -107 28 -232 57 -277 65 -46 9
-173 23 -283 31 -110 9 -238 22 -285 30 -47 7 -121 17 -165 20 -44 4 -138 18
-210 32 -78 15 -195 28 -295 33 -91 5 -208 16 -261 24 -86 14 -1352 16 -12151
18z m3817 -9362 c3973 0 4629 -2 4745 -15 74 -8 218 -15 320 -15 130 0 203 -5
245 -15 33 -9 112 -19 176 -24 82 -7 144 -18 210 -39 63 -20 168 -41 314 -61
121 -17 247 -35 281 -40 33 -5 125 -34 205 -64 79 -31 173 -62 209 -71 36 -8
108 -24 161 -36 76 -16 117 -33 194 -77 53 -30 134 -67 179 -80 44 -14 97 -33
116 -43 19 -10 61 -39 93 -63 31 -25 88 -57 125 -72 37 -14 87 -42 112 -61 25
-19 83 -60 130 -91 46 -30 107 -77 135 -103 27 -26 84 -70 125 -97 41 -28 91
-68 111 -89 20 -22 56 -66 80 -99 24 -33 68 -87 99 -121 30 -33 87 -100 127
-149 40 -49 87 -116 104 -150 18 -33 57 -96 87 -139 30 -43 67 -114 83 -158
16 -44 39 -98 51 -121 11 -23 31 -55 43 -72 13 -16 32 -49 43 -71 12 -23 35
-99 52 -169 16 -70 51 -174 76 -233 26 -59 52 -127 59 -152 8 -25 27 -129 44
-231 17 -102 43 -230 57 -285 14 -54 40 -189 57 -299 31 -200 31 -200 35 -935
3 -629 1 -749 -12 -830 -9 -52 -21 -140 -27 -195 -5 -55 -19 -134 -29 -176
-10 -42 -31 -144 -45 -225 -15 -82 -37 -216 -50 -299 -14 -82 -30 -168 -36
-190 -6 -22 -31 -87 -56 -143 -28 -66 -57 -158 -78 -251 -18 -82 -41 -166 -50
-187 -9 -21 -34 -69 -55 -105 -22 -36 -54 -103 -70 -148 -17 -46 -38 -97 -47
-114 -9 -18 -34 -58 -55 -90 -22 -32 -54 -91 -71 -130 -17 -40 -40 -85 -51
-102 -11 -16 -45 -62 -76 -101 -30 -39 -74 -98 -98 -131 -24 -34 -109 -128
-190 -209 -80 -82 -182 -180 -226 -217 -45 -38 -105 -82 -134 -99 -30 -17 -81
-53 -115 -80 -34 -28 -98 -68 -142 -90 -44 -22 -111 -62 -150 -89 -52 -36
-101 -59 -190 -87 -66 -22 -172 -64 -235 -96 -90 -44 -140 -62 -230 -81 -64
-13 -181 -47 -261 -74 -80 -28 -175 -57 -211 -66 -37 -8 -130 -22 -208 -30
-77 -8 -185 -26 -238 -39 -53 -14 -140 -30 -192 -36 -52 -6 -122 -18 -155 -26
-33 -9 -116 -20 -185 -24 -69 -4 -138 -14 -155 -21 -22 -10 -151 -15 -500 -20
-258 -4 -504 -12 -545 -18 -51 -7 -1482 -10 -4401 -11 -4326 0 -4326 0 -4360
23 -19 12 -40 35 -47 49 -10 21 -12 931 -12 4619 -1 4169 1 4594 15 4616 9 13
30 33 48 43 32 20 90 20 4642 20z"/>
<path d="M55790 44469 c-9017 -1 -16414 -5 -16438 -10 -23 -4 -60 -18 -81 -30
-22 -12 -49 -40 -62 -63 -24 -41 -24 -41 -24 -21686 0 -20707 1 -21647 18
-21691 10 -25 28 -56 40 -67 12 -12 42 -28 66 -37 39 -13 1756 -15 16691 -15
14935 0 16652 2 16691 15 24 9 54 25 66 37 12 11 30 42 40 67 17 44 18 272 18
4821 0 4549 -1 4777 -18 4821 -10 25 -28 55 -40 67 -12 11 -35 27 -52 34 -25
11 -1962 14 -11020 18 -10202 5 -10992 6 -11020 22 -16 9 -40 27 -53 40 -12
14 -26 38 -30 54 -4 16 -5 1748 -2 3849 5 3820 5 3820 26 3860 13 25 36 49 61
63 41 22 41 22 9912 22 9090 0 9874 1 9904 16 18 9 42 25 54 37 12 11 29 41
38 66 13 42 15 523 13 4566 -3 4520 -3 4520 -28 4564 -15 27 -39 52 -61 63
-35 18 -332 18 -9905 18 -9579 0 -9870 1 -9909 19 -22 10 -50 29 -61 42 -12
13 -26 39 -33 58 -8 25 -11 856 -11 3190 0 2171 3 3168 11 3194 5 21 23 52 39
71 16 18 47 38 68 44 30 9 2579 12 10778 12 10739 0 10739 0 10784 23 30 16
55 39 75 72 30 48 30 48 30 4829 0 4480 -1 4783 -17 4812 -9 17 -33 45 -52 62
-20 17 -52 36 -73 41 -27 8 -5020 11 -16433 10z"/>
<path d="M120835 44467 c-4774 1 -5517 0 -5564 -13 -29 -8 -66 -23 -81 -34
-15 -11 -36 -37 -46 -57 -19 -37 -19 -548 -22 -21663 -2 -16045 1 -21639 9
-21680 9 -41 21 -64 48 -91 20 -20 54 -42 76 -48 29 -8 1580 -11 5555 -11
3707 0 5527 3 5551 10 20 6 52 20 70 33 19 12 45 44 59 72 25 50 25 50 27
8848 3 8798 3 8798 24 8829 12 17 40 39 63 49 40 18 239 19 7157 19 7116 0
7116 0 7160 -23 24 -13 52 -37 61 -54 17 -29 18 -422 21 -8829 2 -8799 2
-8799 27 -8844 14 -24 40 -54 59 -67 18 -13 50 -27 70 -33 24 -7 1867 -10
5519 -10 4169 0 5493 3 5523 11 22 7 57 28 79 46 28 25 44 49 55 85 13 46 15
2362 15 21670 0 19512 -1 21622 -15 21656 -9 20 -25 47 -36 59 -12 12 -44 32
-72 45 -52 23 -52 23 -5552 23 -5500 0 -5500 0 -5558 -28 -38 -19 -67 -42 -82
-66 -14 -20 -28 -57 -32 -81 -5 -25 -6 -3530 -3 -7790 5 -7729 5 -7745 -15
-7790 -14 -33 -31 -51 -61 -68 -42 -22 -42 -22 -7162 -22 -3916 0 -7128 3
-7139 6 -10 4 -33 18 -50 31 -18 13 -37 33 -43 43 -7 13 -10 2459 -10 7807 0
7586 -1 7789 -19 7829 -10 23 -29 51 -42 64 -13 12 -44 32 -69 44 -45 21 -45
21 -5555 23z"/>
<path d="M175190 44470 c-4737 -1 -5349 -2 -5380 -16 -19 -8 -43 -23 -53 -32
-10 -9 -56 -93 -102 -187 -61 -124 -91 -199 -110 -275 -16 -64 -51 -158 -90
-240 -36 -78 -74 -179 -90 -239 -14 -57 -32 -115 -38 -130 -6 -14 -31 -60 -54
-103 -33 -57 -53 -111 -78 -213 -28 -109 -45 -155 -84 -223 -36 -62 -57 -116
-76 -189 -14 -57 -54 -170 -90 -252 -35 -82 -78 -198 -96 -257 -17 -61 -53
-151 -81 -203 -33 -62 -63 -142 -90 -235 -25 -88 -60 -182 -94 -251 -36 -72
-63 -146 -80 -215 -17 -70 -45 -146 -85 -228 -40 -83 -71 -164 -95 -255 -27
-103 -47 -153 -89 -227 -43 -76 -60 -120 -85 -220 -23 -93 -44 -149 -84 -225
-38 -71 -60 -127 -75 -195 -14 -61 -43 -140 -81 -221 -32 -69 -77 -188 -100
-265 -26 -87 -60 -172 -91 -230 -34 -63 -58 -127 -80 -210 -19 -74 -53 -166
-89 -244 -33 -69 -73 -177 -91 -240 -17 -65 -54 -163 -85 -225 -31 -65 -66
-157 -84 -225 -18 -67 -55 -167 -90 -240 -32 -69 -68 -159 -80 -200 -12 -41
-53 -148 -91 -238 -39 -90 -83 -213 -99 -275 -16 -61 -40 -132 -53 -157 -13
-25 -38 -72 -55 -105 -17 -33 -44 -116 -61 -184 -24 -97 -41 -143 -77 -204
-25 -44 -52 -97 -60 -119 -7 -22 -23 -77 -34 -124 -12 -51 -44 -135 -79 -207
-41 -83 -69 -160 -90 -242 -22 -84 -47 -152 -85 -225 -35 -69 -66 -150 -90
-235 -21 -74 -58 -174 -86 -232 -28 -57 -62 -145 -76 -195 -14 -51 -46 -133
-70 -183 -23 -49 -53 -115 -64 -145 -12 -30 -39 -114 -60 -187 -23 -79 -59
-171 -89 -230 -35 -67 -59 -132 -76 -203 -14 -58 -31 -118 -38 -135 -7 -16
-33 -68 -59 -115 -31 -56 -57 -124 -78 -200 -17 -63 -55 -167 -85 -230 -31
-66 -69 -168 -88 -240 -22 -81 -52 -160 -85 -225 -32 -63 -63 -143 -82 -215
-18 -68 -55 -166 -90 -240 -34 -73 -72 -173 -90 -238 -17 -63 -39 -130 -49
-150 -10 -21 -37 -71 -59 -113 -24 -45 -47 -108 -57 -155 -9 -44 -25 -104 -36
-135 -11 -31 -38 -89 -60 -127 -27 -47 -51 -108 -69 -179 -16 -60 -54 -167
-85 -238 -31 -72 -64 -148 -72 -170 -8 -22 -28 -89 -44 -149 -18 -67 -48 -143
-79 -200 -29 -55 -63 -140 -86 -216 -20 -69 -59 -170 -86 -224 -32 -63 -61
-141 -79 -215 -19 -74 -52 -162 -89 -241 -39 -81 -70 -166 -90 -244 -16 -65
-43 -142 -58 -170 -16 -28 -41 -72 -56 -98 -15 -26 -41 -102 -57 -170 -23 -94
-43 -147 -85 -224 -39 -74 -61 -130 -78 -203 -14 -62 -45 -146 -79 -218 -30
-65 -69 -161 -85 -213 -17 -52 -38 -122 -47 -155 -9 -33 -38 -104 -65 -157
-28 -53 -64 -146 -81 -205 -17 -59 -54 -155 -81 -213 -28 -58 -57 -123 -65
-145 -7 -22 -23 -76 -34 -120 -11 -44 -47 -136 -79 -205 -37 -77 -71 -171 -90
-245 -22 -81 -48 -150 -80 -212 -27 -50 -63 -138 -79 -195 -17 -57 -57 -164
-90 -239 -33 -74 -69 -168 -80 -207 -12 -40 -30 -105 -42 -144 -11 -40 -40
-107 -64 -148 -23 -41 -50 -97 -58 -125 -9 -27 -23 -85 -33 -129 -9 -43 -29
-101 -43 -130 -15 -28 -39 -72 -54 -97 -15 -25 -40 -98 -56 -161 -20 -78 -48
-151 -84 -225 -30 -60 -67 -149 -81 -198 -15 -50 -34 -115 -43 -145 -8 -30
-39 -102 -69 -160 -36 -71 -63 -144 -84 -225 -20 -80 -48 -155 -85 -230 -31
-60 -67 -153 -81 -205 -13 -52 -43 -129 -64 -172 -22 -43 -51 -107 -64 -142
-14 -36 -41 -122 -61 -192 -23 -79 -58 -169 -91 -234 -38 -75 -59 -132 -73
-200 -16 -71 -36 -125 -81 -213 -44 -85 -66 -143 -80 -210 -15 -66 -38 -128
-85 -222 -46 -93 -74 -168 -100 -264 -25 -92 -53 -166 -91 -240 -36 -71 -64
-144 -84 -221 -19 -73 -50 -156 -85 -227 -35 -70 -66 -153 -85 -225 -20 -80
-47 -147 -90 -231 -48 -93 -66 -142 -86 -230 -17 -75 -37 -133 -61 -177 -20
-36 -45 -82 -55 -103 -11 -21 -30 -83 -44 -137 -13 -55 -43 -141 -65 -192 -23
-51 -54 -123 -70 -161 -15 -37 -42 -120 -59 -185 -22 -80 -48 -148 -85 -217
-34 -64 -65 -141 -85 -213 -17 -63 -56 -164 -87 -226 -33 -69 -64 -151 -79
-212 -15 -60 -48 -149 -84 -225 -38 -81 -72 -171 -94 -256 -25 -92 -50 -158
-85 -224 -32 -61 -61 -134 -81 -207 -16 -62 -37 -129 -44 -147 -8 -19 -33 -66
-56 -104 -29 -50 -49 -104 -69 -187 -18 -73 -47 -152 -76 -212 -27 -54 -61
-135 -77 -182 -16 -47 -38 -121 -49 -165 -11 -44 -44 -127 -73 -185 -29 -58
-67 -154 -85 -215 -18 -60 -57 -161 -86 -223 -32 -65 -67 -159 -85 -225 -17
-66 -52 -158 -84 -224 -34 -70 -67 -157 -86 -230 -20 -76 -52 -161 -89 -238
-37 -75 -69 -159 -86 -225 -16 -65 -51 -157 -91 -242 -38 -80 -76 -181 -93
-245 -16 -59 -33 -117 -37 -128 -5 -11 -28 -55 -52 -97 -31 -55 -52 -113 -76
-210 -27 -106 -44 -152 -84 -221 -36 -64 -57 -115 -76 -194 -18 -71 -49 -154
-91 -243 -44 -92 -75 -173 -95 -255 -22 -85 -46 -148 -81 -214 -27 -51 -61
-134 -75 -185 -14 -50 -35 -120 -46 -156 -12 -36 -41 -101 -64 -146 -29 -53
-54 -121 -74 -200 -21 -80 -52 -163 -95 -254 -36 -74 -78 -184 -95 -245 -17
-61 -55 -159 -85 -220 -37 -74 -65 -149 -85 -228 -21 -86 -43 -144 -80 -213
-36 -66 -58 -124 -76 -196 -17 -73 -43 -141 -89 -233 -48 -95 -73 -162 -96
-250 -21 -83 -47 -153 -84 -226 -35 -70 -63 -145 -84 -225 -20 -76 -53 -164
-91 -244 -35 -73 -72 -172 -90 -238 -17 -66 -51 -154 -80 -212 -29 -58 -63
-147 -80 -212 -17 -62 -44 -140 -61 -173 -16 -33 -42 -84 -58 -113 -15 -29
-38 -94 -50 -145 -13 -50 -53 -164 -91 -252 -38 -88 -85 -218 -105 -290 -26
-92 -50 -155 -85 -215 -34 -60 -59 -123 -85 -215 -23 -80 -56 -166 -86 -225
-31 -61 -60 -136 -79 -209 -18 -72 -52 -162 -89 -240 -40 -84 -69 -163 -87
-236 -18 -74 -44 -145 -80 -215 -28 -58 -59 -127 -67 -155 -9 -27 -26 -87 -37
-132 -14 -50 -41 -116 -71 -169 -38 -64 -58 -118 -84 -216 -19 -71 -46 -148
-59 -171 -14 -23 -40 -81 -60 -129 -19 -48 -51 -145 -71 -214 -22 -77 -58
-169 -90 -233 -38 -74 -61 -138 -79 -214 -14 -59 -34 -124 -44 -145 -11 -20
-37 -71 -59 -112 -25 -45 -52 -117 -68 -180 -16 -66 -48 -150 -85 -225 -39
-80 -68 -160 -89 -240 -21 -81 -49 -156 -86 -230 -34 -69 -66 -153 -85 -225
-19 -68 -57 -169 -94 -250 -38 -81 -75 -177 -91 -240 -17 -66 -43 -136 -72
-190 -25 -46 -52 -102 -60 -125 -8 -22 -23 -80 -34 -129 -11 -49 -30 -110 -43
-135 -13 -25 -37 -71 -54 -101 -17 -30 -44 -104 -61 -165 -16 -60 -58 -177
-94 -260 -35 -82 -74 -186 -87 -230 -12 -44 -45 -127 -72 -185 -27 -58 -52
-125 -54 -150 -4 -32 0 -55 13 -79 10 -19 31 -44 46 -55 28 -21 28 -21 5715
-21 5596 0 5688 0 5726 19 23 12 50 37 66 62 15 24 39 87 54 141 15 54 52 146
81 204 39 77 63 141 84 230 21 84 47 157 80 225 28 56 57 131 65 165 8 35 22
100 32 143 11 56 34 114 75 193 47 89 65 136 84 223 14 61 36 139 51 173 14
34 41 99 60 144 18 45 48 132 65 195 17 62 50 156 74 208 23 52 52 124 63 160
12 36 33 113 46 172 19 81 41 137 86 225 50 98 65 140 90 249 21 97 42 158 80
237 34 72 59 141 76 215 13 61 31 130 39 153 9 24 29 64 45 89 16 25 38 65 49
90 11 25 27 81 36 125 8 44 25 113 35 153 11 40 42 117 70 171 29 59 60 140
75 202 15 56 53 164 85 238 38 89 67 176 84 252 14 64 31 130 37 145 6 16 35
81 65 146 36 77 65 158 85 239 17 68 52 173 79 235 27 62 70 181 95 265 26 84
64 187 85 229 20 41 44 98 53 125 9 28 28 104 42 170 21 94 38 143 82 229 40
80 63 143 85 230 19 79 46 156 78 222 31 62 59 141 75 207 14 58 34 130 44
159 10 29 39 95 64 146 30 61 55 133 73 210 17 73 52 178 94 277 37 88 81 211
99 274 18 63 50 153 71 200 21 47 50 124 63 171 14 47 28 101 32 120 4 19 15
51 25 70 10 19 29 45 42 58 14 12 40 27 59 32 22 7 2424 10 6874 10 4019 0
6853 -4 6871 -9 17 -5 44 -17 58 -26 15 -10 36 -36 47 -57 11 -21 31 -80 44
-131 13 -51 30 -110 38 -132 9 -22 32 -76 52 -120 20 -44 52 -142 70 -220 23
-94 53 -184 90 -270 32 -73 66 -170 77 -220 10 -49 26 -115 35 -145 9 -30 33
-92 53 -136 21 -45 47 -110 58 -145 12 -35 31 -107 43 -159 12 -52 48 -156 79
-231 35 -83 69 -186 88 -266 20 -86 50 -173 87 -257 35 -79 65 -167 81 -235
13 -59 32 -132 43 -162 10 -30 37 -96 60 -148 24 -53 56 -155 76 -237 23 -95
51 -179 84 -251 27 -59 54 -126 60 -148 6 -22 23 -89 37 -150 15 -63 49 -162
79 -231 34 -78 63 -163 80 -239 14 -65 37 -145 50 -179 13 -33 37 -90 53 -126
16 -36 39 -96 50 -135 11 -38 28 -104 37 -145 9 -41 43 -137 75 -212 33 -77
67 -177 79 -230 11 -51 27 -111 35 -133 8 -22 35 -76 60 -119 34 -59 51 -104
66 -175 12 -53 28 -124 37 -159 9 -35 37 -107 64 -159 28 -57 56 -132 69 -187
12 -50 28 -120 36 -156 8 -36 39 -117 70 -180 43 -93 60 -144 85 -260 25 -119
40 -164 84 -253 37 -75 60 -138 75 -205 11 -53 28 -124 36 -156 8 -33 34 -100
58 -150 24 -50 50 -113 59 -141 9 -27 26 -97 37 -155 16 -80 35 -135 80 -230
32 -69 65 -156 74 -195 8 -38 22 -104 31 -145 10 -46 36 -114 67 -175 38 -74
59 -135 85 -240 19 -77 45 -159 59 -183 14 -23 42 -54 64 -68 21 -14 60 -32
86 -40 42 -12 817 -14 5819 -14 3353 0 5783 4 5801 9 17 5 41 14 53 21 12 6
31 26 41 43 11 18 20 50 20 71 0 26 -15 73 -45 135 -24 53 -58 148 -75 211
-18 66 -47 143 -68 180 -20 36 -44 81 -53 100 -9 19 -27 79 -39 133 -15 65
-40 134 -76 208 -30 61 -72 171 -95 247 -22 75 -65 194 -94 263 -30 70 -68
178 -85 240 -18 65 -54 161 -84 224 -30 61 -61 133 -69 160 -9 28 -25 86 -37
130 -12 44 -41 117 -65 162 -29 54 -61 137 -90 238 -28 97 -63 191 -94 252
-30 60 -60 139 -76 203 -16 63 -53 160 -90 240 -40 85 -75 179 -94 254 -22 83
-46 146 -81 210 -35 66 -59 130 -85 224 -22 84 -54 174 -89 245 -29 61 -68
164 -85 227 -18 65 -58 169 -91 240 -37 78 -69 165 -86 230 -17 69 -45 142
-80 212 -36 72 -66 151 -90 239 -22 84 -54 169 -85 231 -29 58 -65 155 -89
236 -22 76 -53 170 -69 208 -16 38 -43 101 -59 139 -17 39 -45 122 -62 185
-18 69 -44 137 -64 170 -18 30 -41 69 -50 87 -8 17 -28 82 -42 145 -20 86 -39
137 -80 215 -38 70 -63 135 -84 215 -16 62 -42 145 -58 183 -16 39 -47 111
-69 160 -22 50 -52 137 -67 195 -19 72 -43 133 -78 195 -38 69 -58 121 -84
223 -25 102 -46 157 -85 229 -36 66 -62 133 -85 218 -18 67 -63 191 -99 274
-36 84 -77 194 -90 244 -13 51 -29 106 -35 122 -6 17 -29 60 -51 97 -30 49
-48 98 -70 190 -17 67 -43 148 -58 178 -15 30 -39 78 -54 105 -14 28 -40 101
-57 163 -16 62 -45 149 -64 195 -19 45 -48 114 -65 154 -17 39 -43 116 -56
170 -15 56 -51 152 -85 223 -39 81 -71 167 -91 245 -22 86 -46 148 -84 220
-39 74 -62 132 -84 221 -21 83 -50 161 -91 246 -39 83 -70 166 -90 243 -19 77
-45 146 -74 200 -24 46 -53 110 -64 142 -11 32 -30 97 -42 143 -12 48 -44 131
-75 191 -37 73 -63 144 -85 230 -22 83 -52 164 -91 244 -38 79 -68 161 -88
239 -20 75 -46 146 -70 190 -21 39 -50 105 -64 146 -14 41 -37 117 -51 168
-15 53 -48 134 -76 186 -35 64 -59 128 -80 211 -20 77 -54 168 -95 255 -46
100 -68 162 -85 240 -12 58 -32 125 -44 150 -12 25 -38 74 -58 110 -23 42 -46
106 -63 180 -20 82 -43 145 -81 220 -29 58 -67 154 -84 214 -17 59 -43 140
-57 180 -14 39 -46 111 -70 160 -27 53 -52 123 -63 175 -11 47 -25 102 -32
121 -7 19 -33 70 -56 113 -32 56 -52 112 -74 200 -21 89 -43 146 -78 212 -30
56 -64 144 -90 229 -23 76 -52 166 -64 200 -13 33 -42 97 -64 142 -25 49 -51
122 -67 190 -20 84 -37 129 -76 196 -40 70 -57 114 -80 210 -22 89 -45 152
-83 228 -34 67 -69 158 -95 250 -25 85 -67 197 -101 270 -39 82 -68 163 -86
235 -14 61 -42 142 -61 180 -19 39 -47 102 -63 140 -15 39 -35 104 -45 145
-10 41 -45 136 -80 210 -35 76 -74 181 -89 240 -16 59 -53 160 -86 230 -32 69
-70 170 -85 225 -14 56 -52 155 -85 225 -36 75 -71 171 -90 240 -19 73 -50
155 -85 225 -37 75 -65 149 -86 230 -20 80 -50 160 -88 240 -35 71 -70 163
-86 225 -15 58 -54 161 -86 230 -33 72 -71 174 -89 240 -20 75 -49 152 -84
220 -36 71 -64 144 -85 225 -20 73 -55 169 -91 245 -34 73 -71 173 -89 240
-16 63 -43 147 -59 185 -17 39 -44 101 -62 139 -17 38 -45 121 -61 185 -21 81
-41 135 -69 181 -21 36 -46 82 -54 102 -9 20 -25 78 -36 130 -14 66 -37 128
-80 213 -38 76 -70 161 -90 232 -16 61 -59 180 -95 265 -37 84 -80 202 -96
263 -20 71 -48 143 -80 202 -37 69 -58 124 -80 214 -22 91 -43 146 -84 223
-29 55 -61 130 -70 166 -9 36 -25 94 -37 130 -11 36 -47 126 -79 200 -32 74
-72 187 -89 250 -22 81 -45 140 -79 200 -27 47 -54 103 -60 125 -6 22 -20 79
-31 127 -13 60 -37 120 -74 190 -36 69 -63 138 -82 208 -15 58 -58 179 -96
269 -38 90 -79 208 -93 262 -14 57 -44 137 -73 195 -27 55 -59 128 -70 164
-11 36 -30 101 -42 145 -12 44 -43 121 -71 172 -35 65 -59 130 -84 224 -24 88
-54 169 -90 243 -34 69 -66 155 -85 226 -19 71 -52 158 -85 227 -36 74 -67
157 -90 244 -26 95 -50 159 -85 225 -36 65 -59 127 -81 210 -19 76 -52 166
-91 247 -36 78 -72 173 -89 240 -18 71 -49 152 -84 222 -36 74 -65 150 -85
230 -22 85 -48 154 -90 237 -43 83 -67 147 -86 225 -17 73 -47 152 -90 243
-48 102 -70 163 -89 250 -14 63 -36 135 -48 160 -13 25 -38 70 -55 100 -18 32
-43 106 -61 179 -22 88 -44 148 -75 205 -28 51 -63 143 -96 251 -28 94 -78
226 -110 295 -36 78 -66 161 -79 220 -12 52 -33 115 -46 140 -14 25 -41 77
-60 115 -19 39 -43 113 -55 165 -14 69 -35 124 -74 201 -34 67 -68 154 -91
235 -21 71 -50 161 -65 199 -15 39 -44 102 -64 140 -21 40 -48 119 -64 185
-21 85 -43 143 -84 220 -40 77 -61 132 -78 205 -15 68 -39 133 -75 206 -30 58
-63 139 -75 180 -12 41 -33 110 -47 154 -14 44 -50 133 -81 198 -34 74 -65
162 -83 233 -16 65 -44 145 -65 187 -20 39 -47 99 -59 132 -13 33 -33 101 -44
150 -14 55 -43 131 -75 195 -30 58 -61 130 -70 160 -8 30 -27 95 -42 145 -14
49 -48 132 -74 185 -28 56 -59 139 -75 200 -16 62 -53 161 -90 240 -38 83 -75
181 -94 253 -20 78 -48 152 -81 215 -34 66 -62 139 -86 227 -22 82 -57 176
-94 255 -33 69 -70 169 -85 225 -14 55 -52 156 -84 225 -35 73 -71 169 -86
230 -17 66 -49 150 -86 225 -39 79 -69 159 -89 234 -17 68 -51 161 -84 230
-30 64 -69 166 -85 226 -16 61 -36 128 -44 151 -8 22 -38 92 -66 155 -28 64
-60 153 -71 200 -12 46 -28 101 -36 123 -8 21 -33 68 -54 104 -22 36 -45 82
-50 102 -6 19 -19 75 -30 124 -14 63 -36 118 -75 192 -36 67 -65 140 -84 211
-17 59 -36 126 -44 148 -8 22 -40 98 -71 168 -31 71 -68 175 -82 230 -17 69
-43 134 -79 202 -41 76 -61 129 -84 223 -22 92 -42 145 -81 217 -35 66 -61
131 -81 207 -16 61 -49 157 -73 214 -24 57 -58 126 -75 153 -17 27 -49 61 -70
75 -21 15 -53 31 -72 36 -22 7 -1928 10 -5379 10z m-154 -14630 c7 0 26 -11
42 -25 16 -13 45 -55 65 -92 19 -38 53 -124 76 -193 22 -69 49 -163 60 -210
10 -48 41 -131 69 -190 28 -58 57 -126 66 -153 9 -26 25 -88 36 -138 12 -56
38 -130 68 -193 27 -55 54 -117 60 -136 7 -19 23 -89 37 -154 18 -91 37 -147
79 -235 31 -64 69 -165 85 -226 16 -60 35 -123 41 -139 6 -16 28 -64 49 -106
21 -42 45 -106 54 -141 9 -35 28 -111 42 -168 14 -62 45 -147 74 -210 28 -58
58 -135 66 -171 9 -36 28 -103 42 -150 14 -46 45 -124 69 -173 31 -61 57 -136
85 -244 23 -92 59 -202 89 -269 27 -62 65 -175 84 -251 26 -98 52 -171 92
-253 42 -86 65 -150 91 -255 21 -85 55 -189 88 -265 32 -76 67 -181 88 -266
24 -96 46 -162 70 -205 20 -35 45 -89 56 -119 11 -30 32 -105 46 -166 18 -76
44 -148 80 -224 30 -63 61 -146 71 -188 9 -43 25 -113 35 -157 10 -45 39 -118
64 -167 27 -53 61 -144 86 -229 22 -78 58 -177 80 -221 22 -43 50 -117 63
-166 13 -48 33 -126 44 -174 12 -50 42 -133 70 -190 28 -57 64 -152 81 -213
17 -60 40 -134 51 -162 11 -29 38 -95 59 -145 22 -51 54 -148 71 -216 17 -67
38 -144 46 -170 9 -26 34 -85 55 -132 21 -47 51 -134 68 -195 16 -60 59 -181
96 -267 42 -102 74 -197 90 -270 14 -62 46 -162 72 -223 25 -60 56 -141 69
-180 12 -38 32 -110 43 -158 14 -62 35 -114 70 -175 27 -48 54 -103 60 -122 6
-19 22 -88 35 -153 19 -90 37 -143 75 -220 28 -56 61 -142 75 -192 14 -49 32
-110 41 -134 8 -24 15 -63 15 -88 0 -33 -6 -50 -23 -67 -14 -14 -46 -28 -76
-35 -38 -8 -1038 -11 -3659 -11 -2429 0 -3619 3 -3644 10 -20 6 -48 24 -62 41
-16 19 -26 43 -26 63 0 17 17 83 39 146 21 63 59 160 83 215 25 55 55 129 66
165 12 36 28 94 37 130 9 36 30 97 47 135 17 39 41 97 55 130 13 33 37 113 54
179 21 83 46 150 84 225 31 60 63 141 74 186 11 44 28 116 37 160 11 54 35
114 71 183 41 78 63 137 88 235 22 89 49 166 83 235 30 61 57 134 67 180 9 42
25 106 37 141 11 36 42 109 69 163 33 68 56 135 74 216 17 74 50 172 91 268
35 82 79 204 97 270 19 66 56 168 81 227 26 59 62 166 81 239 25 94 51 166 94
252 50 102 64 143 91 266 26 122 40 163 87 255 40 80 64 144 88 241 22 87 49
162 79 222 30 60 57 137 81 229 24 93 53 175 90 253 38 81 63 152 84 241 19
80 50 172 85 250 30 68 61 145 70 170 8 26 24 83 36 127 11 44 42 132 70 194
27 63 65 175 85 249 25 95 53 169 95 254 50 100 64 143 90 260 25 114 41 163
90 265 39 82 70 165 89 241 18 71 47 151 75 207 32 64 56 133 80 230 25 101
49 170 89 253 40 83 62 147 82 234 18 80 49 170 92 269 35 82 79 204 98 271
19 68 53 164 75 215 22 50 53 135 69 188 15 53 34 126 41 161 8 37 36 109 68
170 44 86 60 131 86 248 20 86 40 151 51 163 10 11 24 20 31 20z"/>
<path d="M203255 44469 c-2871 -1 -5242 -5 -5268 -9 -27 -5 -66 -20 -88 -34
-21 -14 -46 -41 -56 -58 -17 -32 -18 -953 -18 -21678 0 -11905 4 -21662 8
-21682 4 -21 19 -51 34 -68 14 -17 39 -38 57 -48 29 -16 343 -17 5250 -20
3773 -1 5230 1 5259 9 24 6 57 27 78 47 27 27 39 51 48 90 8 40 11 3171 11
12388 0 8519 3 12341 10 12354 6 11 19 24 30 30 11 6 31 8 45 4 14 -3 36 -20
49 -38 13 -17 41 -65 61 -106 21 -41 52 -95 70 -120 18 -25 49 -76 70 -115 21
-38 60 -101 85 -140 26 -38 61 -96 79 -127 17 -31 53 -85 78 -120 26 -35 66
-100 90 -146 24 -46 64 -109 90 -140 25 -31 64 -95 86 -142 21 -46 60 -112 87
-145 26 -33 66 -96 88 -140 22 -44 63 -111 92 -150 29 -38 66 -97 82 -130 17
-33 56 -96 88 -140 31 -44 74 -113 95 -154 20 -41 59 -103 86 -139 28 -35 66
-97 86 -136 19 -39 57 -100 83 -136 26 -36 61 -93 78 -126 17 -34 54 -92 82
-129 29 -36 76 -111 105 -165 29 -55 68 -121 88 -147 19 -26 50 -79 70 -118
19 -38 58 -99 87 -135 29 -36 70 -103 92 -149 21 -47 63 -114 92 -150 30 -36
73 -104 96 -151 23 -47 62 -112 87 -144 24 -33 56 -80 70 -105 14 -26 54 -89
88 -141 35 -52 73 -115 85 -140 12 -25 46 -79 75 -121 29 -41 67 -103 83 -136
17 -33 58 -97 92 -141 34 -45 78 -119 99 -164 21 -46 59 -111 85 -145 26 -34
67 -99 92 -145 26 -45 68 -112 94 -148 26 -36 61 -92 78 -125 16 -33 53 -91
82 -130 29 -38 70 -106 92 -150 23 -44 60 -105 83 -135 23 -30 64 -93 89 -140
26 -47 65 -108 86 -136 21 -28 60 -91 86 -140 26 -49 67 -114 89 -144 23 -30
64 -98 90 -150 26 -52 67 -121 91 -152 25 -31 60 -85 80 -120 20 -35 68 -114
107 -176 40 -63 95 -148 124 -190 29 -43 70 -111 92 -153 22 -42 67 -112 99
-155 33 -44 78 -118 100 -164 22 -47 61 -110 86 -140 26 -30 67 -95 92 -145
26 -49 64 -114 86 -143 22 -29 58 -88 80 -130 23 -42 62 -106 88 -142 26 -36
62 -94 80 -130 18 -36 56 -96 84 -135 29 -38 72 -106 96 -150 24 -44 64 -109
90 -145 26 -36 64 -96 84 -135 20 -38 56 -95 81 -125 25 -30 63 -91 84 -136
22 -44 61 -109 88 -145 27 -35 68 -100 92 -144 24 -44 64 -109 91 -145 26 -36
64 -100 84 -144 20 -43 60 -108 90 -145 29 -36 73 -104 96 -151 23 -47 65
-116 92 -155 27 -38 71 -105 96 -147 26 -42 70 -114 97 -159 28 -44 77 -122
111 -173 33 -50 77 -122 98 -161 21 -38 62 -101 91 -140 30 -38 71 -108 93
-155 22 -47 63 -116 92 -155 28 -38 67 -99 85 -135 18 -36 54 -93 79 -128 26
-35 67 -99 91 -143 25 -45 65 -108 91 -142 25 -34 64 -98 86 -142 22 -44 59
-105 83 -135 23 -30 61 -90 85 -133 23 -43 63 -105 87 -139 25 -34 64 -97 87
-142 23 -45 65 -112 93 -151 28 -38 71 -106 95 -150 24 -44 61 -102 82 -129
21 -27 54 -81 73 -120 20 -39 65 -117 102 -173 36 -56 98 -151 136 -210 39
-59 89 -143 113 -186 23 -44 64 -107 91 -141 26 -33 66 -99 88 -146 23 -47 62
-110 87 -140 26 -30 65 -93 88 -140 22 -47 62 -112 88 -145 26 -33 65 -91 86
-130 21 -38 59 -101 85 -140 26 -38 61 -99 79 -135 18 -36 52 -91 77 -123 25
-32 68 -100 95 -150 28 -51 72 -121 98 -157 26 -36 61 -93 78 -126 17 -34 54
-92 83 -129 28 -37 71 -107 95 -154 24 -47 62 -108 85 -136 23 -27 58 -84 79
-125 21 -41 59 -104 85 -139 26 -35 69 -104 95 -153 27 -48 67 -112 90 -141
23 -28 62 -95 87 -147 25 -52 69 -127 98 -165 29 -39 60 -86 70 -105 10 -19
43 -73 74 -120 32 -47 72 -112 91 -145 18 -33 56 -94 85 -135 28 -41 70 -110
93 -153 23 -43 63 -104 88 -135 26 -31 66 -97 89 -147 23 -49 63 -115 89 -145
26 -30 68 -95 93 -144 25 -49 69 -123 98 -165 29 -42 64 -98 78 -126 14 -27
48 -81 77 -120 29 -38 70 -106 92 -149 22 -44 57 -102 78 -130 21 -28 57 -85
81 -126 23 -41 65 -109 94 -150 29 -41 67 -104 85 -140 18 -36 54 -95 81 -131
27 -36 70 -104 95 -150 26 -46 67 -111 91 -144 25 -33 59 -87 75 -120 17 -33
56 -96 88 -140 31 -44 72 -109 90 -145 18 -36 56 -99 85 -140 29 -41 66 -103
83 -136 17 -34 58 -97 90 -140 33 -44 76 -115 96 -158 20 -44 57 -104 82 -135
26 -31 67 -96 91 -146 25 -49 67 -117 93 -150 25 -33 61 -87 78 -119 18 -32
64 -110 104 -173 40 -63 96 -149 125 -191 29 -42 73 -117 99 -167 25 -49 72
-126 103 -170 32 -44 74 -112 94 -150 21 -39 55 -92 77 -119 23 -27 63 -92 90
-145 27 -53 68 -118 91 -146 23 -27 57 -81 76 -120 19 -38 61 -106 93 -150 31
-44 74 -114 95 -155 20 -41 55 -96 77 -123 21 -26 60 -86 85 -135 25 -48 67
-116 93 -152 26 -36 62 -94 80 -130 18 -36 56 -99 85 -140 28 -41 69 -106 90
-145 21 -38 60 -99 86 -135 25 -36 61 -94 79 -130 18 -36 58 -96 88 -135 30
-38 74 -110 97 -160 24 -49 64 -114 90 -144 25 -30 68 -98 95 -150 27 -53 69
-123 94 -156 25 -33 64 -94 86 -135 22 -41 69 -107 104 -145 35 -39 83 -80
108 -93 46 -22 46 -22 5336 -22 3744 0 5298 3 5319 10 15 6 43 25 61 43 19 19
39 52 47 81 13 43 15 2674 15 21670 0 13334 -4 21633 -9 21653 -5 18 -19 47
-31 63 -12 17 -40 40 -63 53 -42 22 -42 22 -5237 25 -3618 1 -5211 -1 -5246
-8 -28 -6 -73 -24 -98 -41 -33 -21 -53 -42 -67 -73 -19 -44 -19 -130 -19
-7511 0 -7466 0 -7466 25 -7598 14 -73 27 -145 30 -160 3 -16 5 -2167 5 -4780
0 -4697 0 -4751 -19 -4771 -19 -18 -21 -18 -47 -2 -14 10 -54 46 -88 80 -43
42 -76 89 -110 154 -26 52 -67 121 -91 155 -23 34 -57 91 -74 127 -18 36 -57
97 -86 136 -30 39 -71 106 -91 150 -20 43 -60 108 -89 144 -29 36 -73 106 -98
155 -25 50 -66 117 -92 150 -26 33 -60 85 -75 116 -16 31 -50 87 -76 125 -26
38 -69 106 -95 150 -27 45 -60 95 -73 111 -13 16 -47 70 -74 120 -27 50 -76
128 -110 174 -33 46 -74 114 -90 151 -17 37 -56 100 -88 140 -31 40 -70 102
-87 138 -16 36 -60 108 -97 160 -37 52 -78 115 -90 140 -12 25 -41 72 -65 105
-23 33 -63 101 -88 150 -26 50 -67 115 -92 145 -25 30 -64 91 -87 135 -22 44
-62 109 -88 145 -26 36 -61 92 -78 126 -17 33 -56 94 -87 135 -31 40 -70 103
-87 139 -17 36 -56 101 -88 145 -31 44 -70 105 -85 135 -15 30 -53 91 -85 135
-31 44 -75 116 -98 160 -22 44 -58 103 -81 130 -23 28 -62 89 -86 137 -25 47
-63 109 -85 137 -23 28 -63 91 -89 140 -27 49 -67 111 -89 138 -22 26 -60 89
-85 138 -25 50 -66 117 -92 150 -26 33 -63 91 -82 129 -19 37 -56 98 -83 135
-27 37 -67 105 -89 151 -23 47 -66 116 -97 155 -31 38 -72 103 -90 143 -19 41
-54 101 -79 135 -26 33 -65 92 -87 131 -23 39 -55 91 -73 116 -18 25 -54 83
-80 130 -26 47 -65 109 -86 137 -22 29 -61 93 -88 142 -26 49 -70 115 -96 148
-26 32 -67 99 -90 148 -23 50 -63 115 -89 145 -25 30 -69 98 -96 151 -28 54
-67 119 -87 146 -20 26 -57 82 -81 123 -24 41 -61 99 -82 130 -20 30 -58 95
-84 145 -26 49 -69 119 -95 155 -27 36 -60 88 -74 116 -14 28 -55 93 -90 145
-35 52 -79 123 -97 158 -17 35 -56 96 -85 135 -29 39 -65 96 -80 126 -15 30
-53 91 -85 135 -31 44 -70 105 -85 135 -15 30 -53 91 -85 135 -31 44 -73 112
-93 151 -20 39 -61 107 -92 150 -32 43 -70 104 -85 134 -15 30 -49 84 -76 120
-26 36 -68 103 -93 150 -24 47 -64 111 -88 142 -24 31 -62 92 -85 135 -23 43
-63 108 -90 145 -27 37 -63 96 -80 130 -16 35 -64 116 -106 181 -43 65 -104
159 -138 210 -33 51 -81 130 -107 177 -25 47 -65 108 -88 135 -23 28 -61 91
-84 140 -23 50 -66 119 -94 154 -29 35 -70 100 -93 145 -22 45 -62 110 -88
146 -27 36 -67 99 -91 140 -23 41 -61 102 -84 135 -23 33 -56 87 -75 120 -18
33 -52 86 -76 119 -25 32 -64 97 -89 145 -24 47 -63 108 -86 136 -23 27 -63
93 -89 145 -27 52 -71 123 -99 158 -28 34 -67 97 -87 140 -20 42 -55 102 -79
132 -23 30 -59 89 -80 130 -21 41 -63 111 -95 155 -32 44 -74 112 -94 150 -20
39 -54 92 -76 119 -22 27 -61 89 -86 138 -26 49 -66 114 -91 146 -25 31 -61
88 -80 126 -19 38 -57 98 -84 134 -28 36 -70 103 -94 151 -24 47 -64 113 -90
146 -26 33 -64 94 -85 135 -21 41 -61 107 -90 145 -29 39 -69 104 -90 145 -21
41 -56 97 -77 123 -22 26 -61 88 -87 137 -26 49 -67 115 -90 147 -24 32 -57
85 -74 119 -17 34 -55 97 -84 140 -30 43 -71 111 -92 149 -21 39 -56 93 -76
121 -21 28 -62 93 -90 145 -29 51 -73 118 -98 149 -24 30 -64 96 -87 145 -23
50 -63 115 -89 145 -25 30 -69 99 -98 155 -28 55 -65 118 -83 140 -17 22 -49
69 -70 105 -21 36 -64 103 -95 150 -32 47 -67 105 -80 130 -12 25 -46 79 -75
120 -29 41 -66 103 -83 136 -17 34 -58 98 -92 142 -34 45 -78 119 -99 165 -22
46 -62 109 -90 143 -29 32 -70 97 -93 144 -23 47 -62 114 -88 150 -26 36 -60
90 -75 120 -15 30 -53 91 -85 135 -31 44 -74 114 -95 155 -20 41 -59 104 -85
140 -26 36 -62 92 -80 125 -19 33 -61 101 -95 150 -34 50 -76 118 -93 151 -17
34 -56 97 -88 140 -31 44 -71 108 -89 144 -18 36 -52 89 -74 118 -23 29 -63
92 -89 140 -27 48 -70 116 -96 152 -27 36 -63 96 -82 133 -18 37 -55 98 -82
135 -28 37 -67 99 -88 137 -21 39 -55 93 -76 121 -21 28 -61 93 -89 145 -28
52 -72 121 -97 154 -25 33 -62 96 -83 140 -21 44 -65 118 -99 165 -34 47 -73
108 -87 135 -14 28 -44 77 -68 110 -23 33 -61 94 -84 135 -24 41 -64 104 -91
140 -26 36 -62 94 -80 130 -18 36 -56 97 -86 136 -29 38 -73 110 -97 160 -25
49 -68 118 -97 154 -29 36 -66 94 -82 130 -17 36 -61 108 -98 160 -37 52 -78
115 -90 140 -12 25 -42 73 -65 106 -24 34 -60 93 -81 130 -21 38 -63 105 -95
149 -31 44 -69 109 -85 145 -16 36 -51 94 -78 130 -27 36 -70 103 -95 150 -26
47 -66 110 -90 140 -24 30 -62 93 -86 140 -23 47 -64 112 -90 145 -26 33 -63
92 -82 130 -20 39 -62 106 -93 150 -32 44 -72 109 -90 144 -18 35 -54 93 -81
129 -28 35 -66 97 -86 136 -19 39 -57 100 -83 136 -26 36 -66 98 -87 138 -22
40 -52 87 -67 103 -16 16 -46 39 -67 49 -21 11 -64 27 -96 35 -50 13 -674 15
-5278 14z"/>
<path d="M254450 44467 c-15711 1 -17882 0 -17930 -13 -30 -8 -71 -27 -90 -43
-19 -15 -44 -45 -55 -67 -20 -39 -20 -59 -20 -4804 0 -4765 0 -4765 27 -4811
19 -31 42 -54 80 -75 53 -29 53 -29 6133 -31 5875 -3 6081 -3 6105 -21 14 -10
34 -36 45 -58 20 -39 20 -61 22 -16764 1 -12349 5 -16739 13 -16778 6 -29 23
-66 37 -83 15 -17 37 -35 51 -40 15 -6 2181 -9 5567 -9 3938 0 5551 3 5571 10
16 6 42 23 57 38 16 15 36 43 45 62 16 33 17 1172 22 16780 5 15834 6 16747
22 16777 10 17 34 42 55 55 38 23 38 23 6083 28 5797 5 6047 6 6085 23 22 10
52 30 67 44 15 15 35 45 43 67 14 37 15 537 13 4807 -3 4765 -3 4765 -30 4806
-19 28 -45 50 -85 70 -58 28 -58 28 -17933 30z"/>
<path d="M273875 12904 c-269 0 -506 0 -525 -2 -19 -2 -71 -10 -115 -18 -44
-8 -146 -19 -228 -24 -81 -5 -209 -17 -285 -25 -102 -12 -162 -25 -237 -51
-55 -20 -126 -44 -158 -55 -32 -10 -121 -30 -198 -44 -77 -14 -161 -33 -187
-41 -26 -9 -90 -36 -144 -60 -53 -25 -149 -58 -213 -74 -64 -17 -133 -39 -153
-49 -20 -11 -63 -35 -96 -55 -32 -19 -88 -45 -125 -57 -36 -12 -88 -33 -116
-47 -27 -13 -71 -40 -97 -59 -26 -19 -75 -45 -110 -59 -35 -14 -84 -36 -110
-49 -26 -13 -71 -42 -100 -64 -29 -21 -87 -56 -128 -75 -41 -20 -106 -61 -143
-91 -37 -29 -103 -74 -147 -100 -43 -25 -98 -63 -122 -83 -23 -21 -76 -62
-117 -91 -40 -29 -114 -88 -165 -132 -50 -43 -104 -94 -119 -114 -16 -20 -70
-67 -120 -104 -51 -38 -111 -86 -134 -107 -22 -21 -74 -77 -115 -124 -40 -47
-93 -110 -118 -140 -24 -30 -78 -91 -119 -136 -42 -44 -108 -118 -148 -165
-40 -46 -95 -118 -124 -159 -28 -41 -59 -84 -69 -95 -10 -11 -44 -62 -75 -114
-31 -52 -77 -119 -102 -149 -24 -31 -61 -88 -80 -126 -20 -39 -59 -105 -88
-146 -28 -41 -75 -122 -104 -180 -28 -58 -67 -130 -87 -160 -19 -30 -49 -100
-66 -155 -18 -59 -50 -133 -78 -180 -30 -49 -60 -120 -80 -185 -17 -58 -51
-148 -75 -200 -24 -53 -52 -122 -63 -155 -11 -33 -32 -132 -47 -220 -15 -88
-43 -209 -62 -270 -19 -60 -45 -157 -58 -215 -13 -58 -30 -154 -39 -215 -8
-60 -18 -186 -21 -280 -3 -93 -15 -225 -26 -292 -19 -110 -20 -155 -16 -440 3
-239 8 -337 20 -393 8 -41 18 -142 22 -225 3 -82 13 -213 21 -290 8 -77 19
-165 25 -195 6 -30 33 -124 60 -209 32 -97 59 -209 75 -305 18 -109 35 -174
61 -236 19 -47 59 -156 89 -243 30 -89 77 -203 108 -260 31 -58 66 -143 81
-197 15 -52 34 -108 43 -125 8 -16 33 -56 55 -89 22 -32 57 -96 79 -143 22
-46 63 -118 92 -161 28 -42 67 -104 85 -137 18 -33 50 -82 71 -110 21 -27 63
-89 92 -136 29 -48 89 -135 133 -194 44 -59 107 -140 141 -179 33 -39 74 -91
91 -116 17 -25 48 -61 68 -80 20 -19 96 -104 169 -189 72 -84 132 -157 134
-162 2 -4 47 -41 100 -81 53 -40 148 -123 212 -184 63 -61 149 -134 190 -162
41 -28 111 -79 155 -112 44 -33 109 -84 144 -112 36 -28 99 -71 140 -96 42
-24 106 -66 142 -93 37 -27 106 -68 154 -90 48 -23 121 -64 164 -93 45 -31
114 -65 169 -85 51 -18 122 -53 158 -78 36 -25 85 -53 108 -63 22 -10 79 -28
126 -40 53 -13 114 -38 164 -66 43 -25 97 -52 119 -60 21 -8 92 -26 156 -40
64 -14 172 -48 241 -74 69 -26 145 -53 169 -60 24 -6 107 -22 185 -36 77 -13
191 -32 251 -43 61 -11 146 -28 190 -40 44 -11 123 -25 175 -31 52 -6 136 -17
185 -25 71 -12 202 -15 610 -15 485 0 526 1 603 20 46 11 136 24 200 29 89 7
136 16 197 39 44 16 109 34 145 40 36 6 124 18 195 27 72 9 171 26 220 39 50
13 128 39 175 59 47 19 148 51 225 71 107 28 171 51 270 101 75 37 160 71 200
80 39 9 93 27 122 40 29 13 73 38 98 55 26 18 89 49 142 71 52 21 125 61 161
88 37 27 107 67 155 90 49 22 116 62 150 89 34 27 89 64 122 83 33 18 104 65
157 104 54 38 123 89 155 112 32 23 97 73 144 110 47 37 137 114 200 170 63
55 218 206 345 335 127 128 259 266 295 307 35 41 97 115 136 165 40 50 94
122 120 159 27 37 72 100 101 140 30 40 72 104 94 142 23 39 61 96 85 128 24
31 65 96 90 145 26 48 66 112 90 144 28 35 59 95 84 160 22 56 62 137 89 178
27 41 60 110 74 154 14 43 26 84 26 90 0 7 29 69 66 139 55 107 72 155 109
297 24 93 48 178 53 187 5 10 26 61 45 114 20 52 45 149 56 215 12 65 32 160
45 209 13 50 34 116 46 147 12 32 32 66 46 77 24 19 24 19 24 1071 0 1052 0
1052 -25 1072 -14 11 -36 39 -50 63 -14 24 -30 58 -36 77 -5 18 -23 105 -39
194 -16 88 -35 185 -43 215 -8 30 -35 104 -60 164 -24 61 -57 164 -72 230 -16
73 -39 141 -57 175 -17 30 -43 78 -59 105 -16 28 -39 91 -53 140 -13 50 -29
104 -36 120 -6 17 -29 58 -51 92 -22 34 -61 108 -85 165 -25 57 -67 135 -93
173 -27 39 -67 106 -89 150 -22 44 -60 107 -84 140 -24 33 -61 89 -82 125 -21
36 -64 99 -95 140 -32 41 -75 102 -96 135 -21 33 -59 85 -85 115 -26 30 -61
75 -79 100 -18 25 -62 81 -99 124 -37 44 -200 213 -362 376 -162 163 -317 311
-344 330 -27 18 -73 55 -102 80 -28 26 -80 67 -115 90 -35 24 -93 66 -129 95
-36 28 -92 68 -126 88 -33 20 -90 60 -125 88 -35 28 -91 65 -124 81 -33 17
-98 57 -145 88 -47 32 -124 76 -172 98 -48 22 -116 61 -152 87 -50 35 -97 57
-188 87 -67 21 -147 54 -178 72 -30 19 -69 41 -87 50 -17 8 -82 29 -145 46
-64 18 -152 51 -203 77 -49 25 -108 52 -130 60 -21 7 -103 25 -180 38 -78 13
-197 42 -266 64 -68 21 -200 53 -294 71 -112 21 -221 35 -320 40 -86 4 -178
15 -215 25 -57 15 -125 17 -555 19z"/>
</g>
</svg>
